%TF.GenerationSoftware,KiCad,Pcbnew,6.0.2*%
%TF.CreationDate,2022-04-10T12:21:22-06:00*%
%TF.ProjectId,FPGA_1,46504741-5f31-42e6-9b69-6361645f7063,rev?*%
%TF.SameCoordinates,Original*%
%TF.FileFunction,Copper,L2,Inr*%
%TF.FilePolarity,Positive*%
%FSLAX46Y46*%
G04 Gerber Fmt 4.6, Leading zero omitted, Abs format (unit mm)*
G04 Created by KiCad (PCBNEW 6.0.2) date 2022-04-10 12:21:22*
%MOMM*%
%LPD*%
G01*
G04 APERTURE LIST*
G04 Aperture macros list*
%AMOutline5P*
0 Free polygon, 5 corners , with rotation*
0 The origin of the aperture is its center*
0 number of corners: always 5*
0 $1 to $10 corner X, Y*
0 $11 Rotation angle, in degrees counterclockwise*
0 create outline with 5 corners*
4,1,5,$1,$2,$3,$4,$5,$6,$7,$8,$9,$10,$1,$2,$11*%
%AMOutline6P*
0 Free polygon, 6 corners , with rotation*
0 The origin of the aperture is its center*
0 number of corners: always 6*
0 $1 to $12 corner X, Y*
0 $13 Rotation angle, in degrees counterclockwise*
0 create outline with 6 corners*
4,1,6,$1,$2,$3,$4,$5,$6,$7,$8,$9,$10,$11,$12,$1,$2,$13*%
%AMOutline7P*
0 Free polygon, 7 corners , with rotation*
0 The origin of the aperture is its center*
0 number of corners: always 7*
0 $1 to $14 corner X, Y*
0 $15 Rotation angle, in degrees counterclockwise*
0 create outline with 7 corners*
4,1,7,$1,$2,$3,$4,$5,$6,$7,$8,$9,$10,$11,$12,$13,$14,$1,$2,$15*%
%AMOutline8P*
0 Free polygon, 8 corners , with rotation*
0 The origin of the aperture is its center*
0 number of corners: always 8*
0 $1 to $16 corner X, Y*
0 $17 Rotation angle, in degrees counterclockwise*
0 create outline with 8 corners*
4,1,8,$1,$2,$3,$4,$5,$6,$7,$8,$9,$10,$11,$12,$13,$14,$15,$16,$1,$2,$17*%
G04 Aperture macros list end*
%TA.AperFunction,ComponentPad*%
%ADD10Outline8P,-0.600000X0.760000X-0.360000X1.000000X0.360000X1.000000X0.600000X0.760000X0.600000X-0.760000X0.360000X-1.000000X-0.360000X-1.000000X-0.600000X-0.760000X180.000000*%
%TD*%
%TA.AperFunction,ComponentPad*%
%ADD11O,1.200000X2.000000*%
%TD*%
%TA.AperFunction,ViaPad*%
%ADD12C,0.800000*%
%TD*%
%TA.AperFunction,Conductor*%
%ADD13C,0.250000*%
%TD*%
G04 APERTURE END LIST*
D10*
%TO.N,/3b*%
%TO.C,J1*%
X111785400Y-81457800D03*
D11*
%TO.N,/5b*%
X109245400Y-81457800D03*
%TO.N,/0a*%
X106705400Y-81457800D03*
%TO.N,/2a*%
X104165400Y-81457800D03*
%TO.N,/4a*%
X101625400Y-81457800D03*
%TO.N,/6a*%
X99085400Y-81457800D03*
%TO.N,/9b*%
X96545400Y-81457800D03*
%TO.N,/8a*%
X94005400Y-81457800D03*
%TO.N,/13b*%
X91465400Y-81457800D03*
%TO.N,/~{CRESET}*%
X88925400Y-81457800D03*
%TO.N,/Cdone*%
X86385400Y-81457800D03*
%TO.N,/16a*%
X83845400Y-81457800D03*
%TO.N,/18a*%
X81305400Y-81457800D03*
%TO.N,/20a*%
X78765400Y-81457800D03*
%TO.N,/22b*%
X76225400Y-81457800D03*
%TO.N,/24a*%
X73685400Y-81457800D03*
%TO.N,/SPI_SO*%
X71145400Y-81457800D03*
%TO.N,/SPI_SCK*%
X68605400Y-81457800D03*
%TO.N,/SPI_SS*%
X66065400Y-81457800D03*
%TO.N,GND*%
X63525400Y-81457800D03*
%TO.N,/SPI_SI*%
X63525400Y-96697800D03*
%TO.N,/31b*%
X66065400Y-96697800D03*
%TO.N,/29b*%
X68605400Y-96697800D03*
%TO.N,/25b*%
X71145400Y-96697800D03*
%TO.N,/23b*%
X73685400Y-96697800D03*
%TO.N,/37a*%
X76225400Y-96697800D03*
%TO.N,/36b*%
X78765400Y-96697800D03*
%TO.N,/39a*%
X81305400Y-96697800D03*
%TO.N,/38b*%
X83845400Y-96697800D03*
%TO.N,/41a*%
X86385400Y-96697800D03*
%TO.N,/42b*%
X88925400Y-96697800D03*
%TO.N,/43a*%
X91465400Y-96697800D03*
%TO.N,/44b*%
X94005400Y-96697800D03*
%TO.N,/46b*%
X96545400Y-96697800D03*
%TO.N,/48b*%
X99085400Y-96697800D03*
%TO.N,/45a*%
X101625400Y-96697800D03*
%TO.N,/50b*%
X104165400Y-96697800D03*
%TO.N,/51a*%
X106705400Y-96697800D03*
%TO.N,/49b*%
X109245400Y-96697800D03*
%TO.N,+3V3*%
X111785400Y-96697800D03*
%TD*%
D12*
%TO.N,+3V3*%
X89916000Y-85425500D03*
X112928400Y-90195400D03*
X87884000Y-94081600D03*
X80772000Y-90874500D03*
X68986400Y-88519000D03*
X95504000Y-85344000D03*
X112649000Y-86995000D03*
%TO.N,GND*%
X86995000Y-88265000D03*
X84455000Y-86995000D03*
X84455000Y-89535000D03*
X88265000Y-88265000D03*
X88265000Y-89535000D03*
X84455000Y-90805000D03*
X85725000Y-86995000D03*
X88265000Y-90805000D03*
X86995000Y-90805000D03*
X84455000Y-88265000D03*
X85725000Y-90805000D03*
X85725000Y-89535000D03*
X102844600Y-94564200D03*
X88265000Y-86995000D03*
X86995000Y-86995000D03*
X85725000Y-88265000D03*
X86995000Y-89535000D03*
%TO.N,+1V2*%
X87624984Y-83433984D03*
X85852000Y-93599000D03*
%TO.N,/51a*%
X106680000Y-89535000D03*
%TO.N,/49b*%
X108585000Y-89535000D03*
%TD*%
D13*
%TO.N,+1V2*%
X86238016Y-83433984D02*
X83312000Y-86360000D01*
X83312000Y-86360000D02*
X83312000Y-91059000D01*
X83312000Y-91059000D02*
X85852000Y-93599000D01*
X87624984Y-83433984D02*
X86238016Y-83433984D01*
%TD*%
%TA.AperFunction,Conductor*%
%TO.N,+3V3*%
G36*
X113607121Y-79395002D02*
G01*
X113653614Y-79448658D01*
X113665000Y-79501000D01*
X113665000Y-98299307D01*
X113644998Y-98367428D01*
X113591342Y-98413921D01*
X113539309Y-98425307D01*
X109989667Y-98433964D01*
X109488305Y-98435187D01*
X109420136Y-98415351D01*
X109373512Y-98361809D01*
X109363237Y-98291560D01*
X109392573Y-98226907D01*
X109458477Y-98186694D01*
X109462731Y-98185669D01*
X109503040Y-98175954D01*
X109602101Y-98152081D01*
X109602103Y-98152080D01*
X109607934Y-98150675D01*
X109613392Y-98148193D01*
X109613396Y-98148192D01*
X109728441Y-98095884D01*
X109800487Y-98063126D01*
X109973011Y-97940746D01*
X110119281Y-97787950D01*
X110234020Y-97610252D01*
X110313086Y-97414063D01*
X110353628Y-97206463D01*
X110353900Y-97200901D01*
X110353900Y-96244954D01*
X110338852Y-96087234D01*
X110279308Y-95884266D01*
X110182458Y-95696220D01*
X110051796Y-95529880D01*
X110047265Y-95525948D01*
X110047262Y-95525945D01*
X109896567Y-95395179D01*
X109892037Y-95391248D01*
X109886851Y-95388248D01*
X109886847Y-95388245D01*
X109714142Y-95288333D01*
X109708946Y-95285327D01*
X109509129Y-95215939D01*
X109503194Y-95215078D01*
X109503192Y-95215078D01*
X109305736Y-95186448D01*
X109305733Y-95186448D01*
X109299796Y-95185587D01*
X109088501Y-95195367D01*
X108962713Y-95225682D01*
X108888699Y-95243519D01*
X108888697Y-95243520D01*
X108882866Y-95244925D01*
X108877408Y-95247407D01*
X108877404Y-95247408D01*
X108762359Y-95299716D01*
X108690313Y-95332474D01*
X108517789Y-95454854D01*
X108371519Y-95607650D01*
X108256780Y-95785348D01*
X108177714Y-95981537D01*
X108137172Y-96189137D01*
X108136900Y-96194699D01*
X108136900Y-97150646D01*
X108151948Y-97308366D01*
X108211492Y-97511334D01*
X108308342Y-97699380D01*
X108439004Y-97865720D01*
X108443535Y-97869652D01*
X108443538Y-97869655D01*
X108529458Y-97944212D01*
X108598763Y-98004352D01*
X108603949Y-98007352D01*
X108603953Y-98007355D01*
X108700357Y-98063126D01*
X108781854Y-98110273D01*
X108981671Y-98179661D01*
X108987606Y-98180522D01*
X108987608Y-98180522D01*
X109023107Y-98185669D01*
X109087653Y-98215239D01*
X109125965Y-98275011D01*
X109125881Y-98346007D01*
X109087426Y-98405688D01*
X109022810Y-98435104D01*
X109005334Y-98436365D01*
X108848127Y-98436748D01*
X106922334Y-98441446D01*
X106854167Y-98421610D01*
X106807543Y-98368068D01*
X106797268Y-98297819D01*
X106826604Y-98233166D01*
X106892508Y-98192953D01*
X107062101Y-98152081D01*
X107062103Y-98152080D01*
X107067934Y-98150675D01*
X107073392Y-98148193D01*
X107073396Y-98148192D01*
X107188441Y-98095884D01*
X107260487Y-98063126D01*
X107433011Y-97940746D01*
X107579281Y-97787950D01*
X107694020Y-97610252D01*
X107773086Y-97414063D01*
X107813628Y-97206463D01*
X107813900Y-97200901D01*
X107813900Y-96244954D01*
X107798852Y-96087234D01*
X107739308Y-95884266D01*
X107642458Y-95696220D01*
X107511796Y-95529880D01*
X107507265Y-95525948D01*
X107507262Y-95525945D01*
X107356567Y-95395179D01*
X107352037Y-95391248D01*
X107346851Y-95388248D01*
X107346847Y-95388245D01*
X107174142Y-95288333D01*
X107168946Y-95285327D01*
X106969129Y-95215939D01*
X106963194Y-95215078D01*
X106963192Y-95215078D01*
X106765736Y-95186448D01*
X106765733Y-95186448D01*
X106759796Y-95185587D01*
X106548501Y-95195367D01*
X106422713Y-95225682D01*
X106348699Y-95243519D01*
X106348697Y-95243520D01*
X106342866Y-95244925D01*
X106337408Y-95247407D01*
X106337404Y-95247408D01*
X106155766Y-95329994D01*
X106155761Y-95329997D01*
X106150313Y-95332474D01*
X106146094Y-95335466D01*
X106077337Y-95352019D01*
X106010287Y-95328679D01*
X105966498Y-95272795D01*
X105959874Y-95202108D01*
X105996663Y-95134926D01*
X106014247Y-95118181D01*
X106047795Y-95086234D01*
X106138240Y-94950103D01*
X106151670Y-94914747D01*
X106193778Y-94803900D01*
X106193779Y-94803895D01*
X106196278Y-94797317D01*
X106199540Y-94774108D01*
X106218473Y-94639393D01*
X106218473Y-94639388D01*
X106219024Y-94635470D01*
X106219310Y-94615000D01*
X106203027Y-94469831D01*
X106201877Y-94459577D01*
X106201876Y-94459575D01*
X106201092Y-94452581D01*
X106147342Y-94298234D01*
X106060734Y-94159630D01*
X106055772Y-94154633D01*
X105950533Y-94048657D01*
X105950529Y-94048654D01*
X105945570Y-94043660D01*
X105929736Y-94033611D01*
X105892640Y-94010069D01*
X105807574Y-93956085D01*
X105783035Y-93947347D01*
X105660241Y-93903622D01*
X105660236Y-93903621D01*
X105653606Y-93901260D01*
X105646618Y-93900427D01*
X105646615Y-93900426D01*
X105535676Y-93887197D01*
X105491318Y-93881908D01*
X105484315Y-93882644D01*
X105484314Y-93882644D01*
X105335775Y-93898256D01*
X105335773Y-93898257D01*
X105328775Y-93898992D01*
X105247473Y-93926669D01*
X105180727Y-93949391D01*
X105180724Y-93949392D01*
X105174057Y-93951662D01*
X105168058Y-93955352D01*
X105168057Y-93955353D01*
X105153561Y-93964271D01*
X105034852Y-94037301D01*
X105023256Y-94048657D01*
X104929110Y-94140852D01*
X104918080Y-94151653D01*
X104829545Y-94289034D01*
X104827136Y-94295654D01*
X104827135Y-94295655D01*
X104802986Y-94362003D01*
X104773646Y-94442615D01*
X104753161Y-94604764D01*
X104769110Y-94767422D01*
X104771334Y-94774107D01*
X104771334Y-94774108D01*
X104794904Y-94844963D01*
X104820699Y-94922505D01*
X104905365Y-95062304D01*
X105018898Y-95179871D01*
X105024790Y-95183726D01*
X105024794Y-95183730D01*
X105088904Y-95225682D01*
X105155657Y-95269364D01*
X105162257Y-95271818D01*
X105162256Y-95271818D01*
X105302248Y-95323880D01*
X105302251Y-95323881D01*
X105308845Y-95326333D01*
X105315822Y-95327264D01*
X105463866Y-95347018D01*
X105463870Y-95347018D01*
X105470847Y-95347949D01*
X105477858Y-95347311D01*
X105477862Y-95347311D01*
X105626591Y-95333775D01*
X105633612Y-95333136D01*
X105640314Y-95330958D01*
X105640316Y-95330958D01*
X105782352Y-95284808D01*
X105782355Y-95284807D01*
X105789051Y-95282631D01*
X105795103Y-95279024D01*
X105795106Y-95279022D01*
X105814799Y-95267283D01*
X105883554Y-95249583D01*
X105950963Y-95271866D01*
X105995625Y-95327055D01*
X106003359Y-95397629D01*
X105970333Y-95462642D01*
X105831519Y-95607650D01*
X105716780Y-95785348D01*
X105637714Y-95981537D01*
X105597172Y-96189137D01*
X105596900Y-96194699D01*
X105596900Y-97150646D01*
X105611948Y-97308366D01*
X105671492Y-97511334D01*
X105768342Y-97699380D01*
X105899004Y-97865720D01*
X105903535Y-97869652D01*
X105903538Y-97869655D01*
X105989458Y-97944212D01*
X106058763Y-98004352D01*
X106063949Y-98007352D01*
X106063953Y-98007355D01*
X106160357Y-98063126D01*
X106241854Y-98110273D01*
X106441671Y-98179661D01*
X106490177Y-98186694D01*
X106525128Y-98191762D01*
X106589673Y-98221332D01*
X106627985Y-98281104D01*
X106627901Y-98352101D01*
X106589446Y-98411781D01*
X106524830Y-98441197D01*
X106507359Y-98442458D01*
X104356368Y-98447704D01*
X104288199Y-98427868D01*
X104241575Y-98374326D01*
X104231300Y-98304077D01*
X104260636Y-98239424D01*
X104326540Y-98199211D01*
X104522101Y-98152081D01*
X104522103Y-98152080D01*
X104527934Y-98150675D01*
X104533392Y-98148193D01*
X104533396Y-98148192D01*
X104648441Y-98095884D01*
X104720487Y-98063126D01*
X104893011Y-97940746D01*
X105039281Y-97787950D01*
X105154020Y-97610252D01*
X105233086Y-97414063D01*
X105273628Y-97206463D01*
X105273900Y-97200901D01*
X105273900Y-96244954D01*
X105258852Y-96087234D01*
X105199308Y-95884266D01*
X105102458Y-95696220D01*
X104971796Y-95529880D01*
X104967265Y-95525948D01*
X104967262Y-95525945D01*
X104816567Y-95395179D01*
X104812037Y-95391248D01*
X104806851Y-95388248D01*
X104806847Y-95388245D01*
X104634142Y-95288333D01*
X104628946Y-95285327D01*
X104429129Y-95215939D01*
X104423194Y-95215078D01*
X104423192Y-95215078D01*
X104225736Y-95186448D01*
X104225733Y-95186448D01*
X104219796Y-95185587D01*
X104008501Y-95195367D01*
X103882713Y-95225682D01*
X103808699Y-95243519D01*
X103808697Y-95243520D01*
X103802866Y-95244925D01*
X103797408Y-95247407D01*
X103797404Y-95247408D01*
X103750835Y-95268582D01*
X103680544Y-95278568D01*
X103616013Y-95248968D01*
X103577729Y-95189178D01*
X103577847Y-95118181D01*
X103589565Y-95090881D01*
X103609542Y-95056281D01*
X103679127Y-94935756D01*
X103738142Y-94754128D01*
X103758104Y-94564200D01*
X103752145Y-94507500D01*
X103738832Y-94380835D01*
X103738832Y-94380833D01*
X103738142Y-94374272D01*
X103679127Y-94192644D01*
X103583640Y-94027256D01*
X103519558Y-93956085D01*
X103460275Y-93890245D01*
X103460274Y-93890244D01*
X103455853Y-93885334D01*
X103323162Y-93788928D01*
X103306694Y-93776963D01*
X103306693Y-93776962D01*
X103301352Y-93773082D01*
X103295324Y-93770398D01*
X103295322Y-93770397D01*
X103132919Y-93698091D01*
X103132918Y-93698091D01*
X103126888Y-93695406D01*
X103033488Y-93675553D01*
X102946544Y-93657072D01*
X102946539Y-93657072D01*
X102940087Y-93655700D01*
X102749113Y-93655700D01*
X102742661Y-93657072D01*
X102742656Y-93657072D01*
X102655713Y-93675553D01*
X102562312Y-93695406D01*
X102556282Y-93698091D01*
X102556281Y-93698091D01*
X102393878Y-93770397D01*
X102393876Y-93770398D01*
X102387848Y-93773082D01*
X102382507Y-93776962D01*
X102382506Y-93776963D01*
X102366038Y-93788928D01*
X102233347Y-93885334D01*
X102228926Y-93890244D01*
X102228925Y-93890245D01*
X102169643Y-93956085D01*
X102105560Y-94027256D01*
X102010073Y-94192644D01*
X101951058Y-94374272D01*
X101950368Y-94380833D01*
X101950368Y-94380835D01*
X101937055Y-94507500D01*
X101931096Y-94564200D01*
X101951058Y-94754128D01*
X102010073Y-94935756D01*
X102013376Y-94941478D01*
X102013377Y-94941479D01*
X102073554Y-95045708D01*
X102090292Y-95114703D01*
X102067072Y-95181795D01*
X102011265Y-95225682D01*
X101940589Y-95232431D01*
X101923103Y-95227736D01*
X101894797Y-95217907D01*
X101894795Y-95217906D01*
X101889129Y-95215939D01*
X101883194Y-95215078D01*
X101883192Y-95215078D01*
X101685736Y-95186448D01*
X101685733Y-95186448D01*
X101679796Y-95185587D01*
X101468501Y-95195367D01*
X101342713Y-95225682D01*
X101268699Y-95243519D01*
X101268697Y-95243520D01*
X101262866Y-95244925D01*
X101257408Y-95247407D01*
X101257404Y-95247408D01*
X101142359Y-95299716D01*
X101070313Y-95332474D01*
X100897789Y-95454854D01*
X100751519Y-95607650D01*
X100636780Y-95785348D01*
X100557714Y-95981537D01*
X100517172Y-96189137D01*
X100516900Y-96194699D01*
X100516900Y-97150646D01*
X100531948Y-97308366D01*
X100591492Y-97511334D01*
X100688342Y-97699380D01*
X100819004Y-97865720D01*
X100823535Y-97869652D01*
X100823538Y-97869655D01*
X100909458Y-97944212D01*
X100978763Y-98004352D01*
X100983949Y-98007352D01*
X100983953Y-98007355D01*
X101080357Y-98063126D01*
X101161854Y-98110273D01*
X101361671Y-98179661D01*
X101367606Y-98180522D01*
X101367608Y-98180522D01*
X101529167Y-98203947D01*
X101593713Y-98233517D01*
X101629971Y-98290085D01*
X101650069Y-98245791D01*
X101709701Y-98207262D01*
X101739668Y-98202206D01*
X101782299Y-98200233D01*
X101913477Y-98168619D01*
X101982101Y-98152081D01*
X101982103Y-98152080D01*
X101987934Y-98150675D01*
X101993392Y-98148193D01*
X101993396Y-98148192D01*
X102108441Y-98095884D01*
X102180487Y-98063126D01*
X102353011Y-97940746D01*
X102499281Y-97787950D01*
X102614020Y-97610252D01*
X102693086Y-97414063D01*
X102733628Y-97206463D01*
X102733900Y-97200901D01*
X102733900Y-96244954D01*
X102718852Y-96087234D01*
X102659308Y-95884266D01*
X102562458Y-95696220D01*
X102558756Y-95691507D01*
X102558754Y-95691504D01*
X102528998Y-95653624D01*
X102502647Y-95587699D01*
X102516121Y-95517992D01*
X102565143Y-95466636D01*
X102634147Y-95449936D01*
X102654279Y-95452543D01*
X102720584Y-95466636D01*
X102749113Y-95472700D01*
X102940087Y-95472700D01*
X102946539Y-95471328D01*
X102946544Y-95471328D01*
X103035078Y-95452509D01*
X103126888Y-95432994D01*
X103132920Y-95430308D01*
X103139200Y-95428268D01*
X103139907Y-95430443D01*
X103199846Y-95422404D01*
X103264144Y-95452509D01*
X103301959Y-95512597D01*
X103301285Y-95583591D01*
X103286583Y-95615294D01*
X103230887Y-95701551D01*
X103176780Y-95785348D01*
X103097714Y-95981537D01*
X103057172Y-96189137D01*
X103056900Y-96194699D01*
X103056900Y-97150646D01*
X103071948Y-97308366D01*
X103131492Y-97511334D01*
X103228342Y-97699380D01*
X103359004Y-97865720D01*
X103363535Y-97869652D01*
X103363538Y-97869655D01*
X103449458Y-97944212D01*
X103518763Y-98004352D01*
X103523949Y-98007352D01*
X103523953Y-98007355D01*
X103620357Y-98063126D01*
X103701854Y-98110273D01*
X103901671Y-98179661D01*
X103907604Y-98180521D01*
X103907607Y-98180522D01*
X103974416Y-98190209D01*
X104027148Y-98197854D01*
X104091693Y-98227424D01*
X104130005Y-98287195D01*
X104129921Y-98358192D01*
X104091466Y-98417872D01*
X104026850Y-98447289D01*
X104009374Y-98448550D01*
X101745801Y-98454071D01*
X101677632Y-98434235D01*
X101631008Y-98380693D01*
X101629225Y-98368501D01*
X101593486Y-98423966D01*
X101528870Y-98453382D01*
X101511395Y-98454643D01*
X99064511Y-98460611D01*
X99046288Y-98455309D01*
X99042936Y-98457236D01*
X99013759Y-98460735D01*
X61721307Y-98551692D01*
X61653138Y-98531856D01*
X61606514Y-98478314D01*
X61595000Y-98425692D01*
X61595000Y-97150646D01*
X62416900Y-97150646D01*
X62431948Y-97308366D01*
X62491492Y-97511334D01*
X62588342Y-97699380D01*
X62719004Y-97865720D01*
X62723535Y-97869652D01*
X62723538Y-97869655D01*
X62809458Y-97944212D01*
X62878763Y-98004352D01*
X62883949Y-98007352D01*
X62883953Y-98007355D01*
X62980357Y-98063126D01*
X63061854Y-98110273D01*
X63261671Y-98179661D01*
X63267606Y-98180522D01*
X63267608Y-98180522D01*
X63465064Y-98209152D01*
X63465067Y-98209152D01*
X63471004Y-98210013D01*
X63682299Y-98200233D01*
X63813477Y-98168619D01*
X63882101Y-98152081D01*
X63882103Y-98152080D01*
X63887934Y-98150675D01*
X63893392Y-98148193D01*
X63893396Y-98148192D01*
X64008441Y-98095884D01*
X64080487Y-98063126D01*
X64253011Y-97940746D01*
X64399281Y-97787950D01*
X64514020Y-97610252D01*
X64593086Y-97414063D01*
X64633628Y-97206463D01*
X64633900Y-97200901D01*
X64633900Y-97150646D01*
X64956900Y-97150646D01*
X64971948Y-97308366D01*
X65031492Y-97511334D01*
X65128342Y-97699380D01*
X65259004Y-97865720D01*
X65263535Y-97869652D01*
X65263538Y-97869655D01*
X65349458Y-97944212D01*
X65418763Y-98004352D01*
X65423949Y-98007352D01*
X65423953Y-98007355D01*
X65520357Y-98063126D01*
X65601854Y-98110273D01*
X65801671Y-98179661D01*
X65807606Y-98180522D01*
X65807608Y-98180522D01*
X66005064Y-98209152D01*
X66005067Y-98209152D01*
X66011004Y-98210013D01*
X66222299Y-98200233D01*
X66353477Y-98168619D01*
X66422101Y-98152081D01*
X66422103Y-98152080D01*
X66427934Y-98150675D01*
X66433392Y-98148193D01*
X66433396Y-98148192D01*
X66548441Y-98095884D01*
X66620487Y-98063126D01*
X66793011Y-97940746D01*
X66939281Y-97787950D01*
X67054020Y-97610252D01*
X67133086Y-97414063D01*
X67173628Y-97206463D01*
X67173900Y-97200901D01*
X67173900Y-97150646D01*
X67496900Y-97150646D01*
X67511948Y-97308366D01*
X67571492Y-97511334D01*
X67668342Y-97699380D01*
X67799004Y-97865720D01*
X67803535Y-97869652D01*
X67803538Y-97869655D01*
X67889458Y-97944212D01*
X67958763Y-98004352D01*
X67963949Y-98007352D01*
X67963953Y-98007355D01*
X68060357Y-98063126D01*
X68141854Y-98110273D01*
X68341671Y-98179661D01*
X68347606Y-98180522D01*
X68347608Y-98180522D01*
X68545064Y-98209152D01*
X68545067Y-98209152D01*
X68551004Y-98210013D01*
X68762299Y-98200233D01*
X68893477Y-98168619D01*
X68962101Y-98152081D01*
X68962103Y-98152080D01*
X68967934Y-98150675D01*
X68973392Y-98148193D01*
X68973396Y-98148192D01*
X69088441Y-98095884D01*
X69160487Y-98063126D01*
X69333011Y-97940746D01*
X69479281Y-97787950D01*
X69594020Y-97610252D01*
X69673086Y-97414063D01*
X69713628Y-97206463D01*
X69713900Y-97200901D01*
X69713900Y-97150646D01*
X70036900Y-97150646D01*
X70051948Y-97308366D01*
X70111492Y-97511334D01*
X70208342Y-97699380D01*
X70339004Y-97865720D01*
X70343535Y-97869652D01*
X70343538Y-97869655D01*
X70429458Y-97944212D01*
X70498763Y-98004352D01*
X70503949Y-98007352D01*
X70503953Y-98007355D01*
X70600357Y-98063126D01*
X70681854Y-98110273D01*
X70881671Y-98179661D01*
X70887606Y-98180522D01*
X70887608Y-98180522D01*
X71085064Y-98209152D01*
X71085067Y-98209152D01*
X71091004Y-98210013D01*
X71302299Y-98200233D01*
X71433477Y-98168619D01*
X71502101Y-98152081D01*
X71502103Y-98152080D01*
X71507934Y-98150675D01*
X71513392Y-98148193D01*
X71513396Y-98148192D01*
X71628441Y-98095884D01*
X71700487Y-98063126D01*
X71873011Y-97940746D01*
X72019281Y-97787950D01*
X72134020Y-97610252D01*
X72213086Y-97414063D01*
X72253628Y-97206463D01*
X72253900Y-97200901D01*
X72253900Y-97150646D01*
X72576900Y-97150646D01*
X72591948Y-97308366D01*
X72651492Y-97511334D01*
X72748342Y-97699380D01*
X72879004Y-97865720D01*
X72883535Y-97869652D01*
X72883538Y-97869655D01*
X72969458Y-97944212D01*
X73038763Y-98004352D01*
X73043949Y-98007352D01*
X73043953Y-98007355D01*
X73140357Y-98063126D01*
X73221854Y-98110273D01*
X73421671Y-98179661D01*
X73427606Y-98180522D01*
X73427608Y-98180522D01*
X73625064Y-98209152D01*
X73625067Y-98209152D01*
X73631004Y-98210013D01*
X73842299Y-98200233D01*
X73973477Y-98168619D01*
X74042101Y-98152081D01*
X74042103Y-98152080D01*
X74047934Y-98150675D01*
X74053392Y-98148193D01*
X74053396Y-98148192D01*
X74168441Y-98095884D01*
X74240487Y-98063126D01*
X74413011Y-97940746D01*
X74559281Y-97787950D01*
X74674020Y-97610252D01*
X74753086Y-97414063D01*
X74793628Y-97206463D01*
X74793900Y-97200901D01*
X74793900Y-97150646D01*
X75116900Y-97150646D01*
X75131948Y-97308366D01*
X75191492Y-97511334D01*
X75288342Y-97699380D01*
X75419004Y-97865720D01*
X75423535Y-97869652D01*
X75423538Y-97869655D01*
X75509458Y-97944212D01*
X75578763Y-98004352D01*
X75583949Y-98007352D01*
X75583953Y-98007355D01*
X75680357Y-98063126D01*
X75761854Y-98110273D01*
X75961671Y-98179661D01*
X75967606Y-98180522D01*
X75967608Y-98180522D01*
X76165064Y-98209152D01*
X76165067Y-98209152D01*
X76171004Y-98210013D01*
X76382299Y-98200233D01*
X76513477Y-98168619D01*
X76582101Y-98152081D01*
X76582103Y-98152080D01*
X76587934Y-98150675D01*
X76593392Y-98148193D01*
X76593396Y-98148192D01*
X76708441Y-98095884D01*
X76780487Y-98063126D01*
X76953011Y-97940746D01*
X77099281Y-97787950D01*
X77214020Y-97610252D01*
X77293086Y-97414063D01*
X77333628Y-97206463D01*
X77333900Y-97200901D01*
X77333900Y-97150646D01*
X77656900Y-97150646D01*
X77671948Y-97308366D01*
X77731492Y-97511334D01*
X77828342Y-97699380D01*
X77959004Y-97865720D01*
X77963535Y-97869652D01*
X77963538Y-97869655D01*
X78049458Y-97944212D01*
X78118763Y-98004352D01*
X78123949Y-98007352D01*
X78123953Y-98007355D01*
X78220357Y-98063126D01*
X78301854Y-98110273D01*
X78501671Y-98179661D01*
X78507606Y-98180522D01*
X78507608Y-98180522D01*
X78705064Y-98209152D01*
X78705067Y-98209152D01*
X78711004Y-98210013D01*
X78922299Y-98200233D01*
X79053477Y-98168619D01*
X79122101Y-98152081D01*
X79122103Y-98152080D01*
X79127934Y-98150675D01*
X79133392Y-98148193D01*
X79133396Y-98148192D01*
X79248441Y-98095884D01*
X79320487Y-98063126D01*
X79493011Y-97940746D01*
X79639281Y-97787950D01*
X79754020Y-97610252D01*
X79833086Y-97414063D01*
X79873628Y-97206463D01*
X79873900Y-97200901D01*
X79873900Y-97150646D01*
X80196900Y-97150646D01*
X80211948Y-97308366D01*
X80271492Y-97511334D01*
X80368342Y-97699380D01*
X80499004Y-97865720D01*
X80503535Y-97869652D01*
X80503538Y-97869655D01*
X80589458Y-97944212D01*
X80658763Y-98004352D01*
X80663949Y-98007352D01*
X80663953Y-98007355D01*
X80760357Y-98063126D01*
X80841854Y-98110273D01*
X81041671Y-98179661D01*
X81047606Y-98180522D01*
X81047608Y-98180522D01*
X81245064Y-98209152D01*
X81245067Y-98209152D01*
X81251004Y-98210013D01*
X81462299Y-98200233D01*
X81593477Y-98168619D01*
X81662101Y-98152081D01*
X81662103Y-98152080D01*
X81667934Y-98150675D01*
X81673392Y-98148193D01*
X81673396Y-98148192D01*
X81788441Y-98095884D01*
X81860487Y-98063126D01*
X82033011Y-97940746D01*
X82179281Y-97787950D01*
X82294020Y-97610252D01*
X82373086Y-97414063D01*
X82413628Y-97206463D01*
X82413900Y-97200901D01*
X82413900Y-97150646D01*
X82736900Y-97150646D01*
X82751948Y-97308366D01*
X82811492Y-97511334D01*
X82908342Y-97699380D01*
X83039004Y-97865720D01*
X83043535Y-97869652D01*
X83043538Y-97869655D01*
X83129458Y-97944212D01*
X83198763Y-98004352D01*
X83203949Y-98007352D01*
X83203953Y-98007355D01*
X83300357Y-98063126D01*
X83381854Y-98110273D01*
X83581671Y-98179661D01*
X83587606Y-98180522D01*
X83587608Y-98180522D01*
X83785064Y-98209152D01*
X83785067Y-98209152D01*
X83791004Y-98210013D01*
X84002299Y-98200233D01*
X84133477Y-98168619D01*
X84202101Y-98152081D01*
X84202103Y-98152080D01*
X84207934Y-98150675D01*
X84213392Y-98148193D01*
X84213396Y-98148192D01*
X84328441Y-98095884D01*
X84400487Y-98063126D01*
X84573011Y-97940746D01*
X84719281Y-97787950D01*
X84834020Y-97610252D01*
X84913086Y-97414063D01*
X84953628Y-97206463D01*
X84953900Y-97200901D01*
X84953900Y-97150646D01*
X85276900Y-97150646D01*
X85291948Y-97308366D01*
X85351492Y-97511334D01*
X85448342Y-97699380D01*
X85579004Y-97865720D01*
X85583535Y-97869652D01*
X85583538Y-97869655D01*
X85669458Y-97944212D01*
X85738763Y-98004352D01*
X85743949Y-98007352D01*
X85743953Y-98007355D01*
X85840357Y-98063126D01*
X85921854Y-98110273D01*
X86121671Y-98179661D01*
X86127606Y-98180522D01*
X86127608Y-98180522D01*
X86325064Y-98209152D01*
X86325067Y-98209152D01*
X86331004Y-98210013D01*
X86542299Y-98200233D01*
X86673477Y-98168619D01*
X86742101Y-98152081D01*
X86742103Y-98152080D01*
X86747934Y-98150675D01*
X86753392Y-98148193D01*
X86753396Y-98148192D01*
X86868441Y-98095884D01*
X86940487Y-98063126D01*
X87113011Y-97940746D01*
X87259281Y-97787950D01*
X87374020Y-97610252D01*
X87453086Y-97414063D01*
X87493628Y-97206463D01*
X87493900Y-97200901D01*
X87493900Y-97150646D01*
X87816900Y-97150646D01*
X87831948Y-97308366D01*
X87891492Y-97511334D01*
X87988342Y-97699380D01*
X88119004Y-97865720D01*
X88123535Y-97869652D01*
X88123538Y-97869655D01*
X88209458Y-97944212D01*
X88278763Y-98004352D01*
X88283949Y-98007352D01*
X88283953Y-98007355D01*
X88380357Y-98063126D01*
X88461854Y-98110273D01*
X88661671Y-98179661D01*
X88667606Y-98180522D01*
X88667608Y-98180522D01*
X88865064Y-98209152D01*
X88865067Y-98209152D01*
X88871004Y-98210013D01*
X89082299Y-98200233D01*
X89213477Y-98168619D01*
X89282101Y-98152081D01*
X89282103Y-98152080D01*
X89287934Y-98150675D01*
X89293392Y-98148193D01*
X89293396Y-98148192D01*
X89408441Y-98095884D01*
X89480487Y-98063126D01*
X89653011Y-97940746D01*
X89799281Y-97787950D01*
X89914020Y-97610252D01*
X89993086Y-97414063D01*
X90033628Y-97206463D01*
X90033900Y-97200901D01*
X90033900Y-97150646D01*
X90356900Y-97150646D01*
X90371948Y-97308366D01*
X90431492Y-97511334D01*
X90528342Y-97699380D01*
X90659004Y-97865720D01*
X90663535Y-97869652D01*
X90663538Y-97869655D01*
X90749458Y-97944212D01*
X90818763Y-98004352D01*
X90823949Y-98007352D01*
X90823953Y-98007355D01*
X90920357Y-98063126D01*
X91001854Y-98110273D01*
X91201671Y-98179661D01*
X91207606Y-98180522D01*
X91207608Y-98180522D01*
X91405064Y-98209152D01*
X91405067Y-98209152D01*
X91411004Y-98210013D01*
X91622299Y-98200233D01*
X91753477Y-98168619D01*
X91822101Y-98152081D01*
X91822103Y-98152080D01*
X91827934Y-98150675D01*
X91833392Y-98148193D01*
X91833396Y-98148192D01*
X91948441Y-98095884D01*
X92020487Y-98063126D01*
X92193011Y-97940746D01*
X92339281Y-97787950D01*
X92454020Y-97610252D01*
X92533086Y-97414063D01*
X92573628Y-97206463D01*
X92573900Y-97200901D01*
X92573900Y-97150646D01*
X92896900Y-97150646D01*
X92911948Y-97308366D01*
X92971492Y-97511334D01*
X93068342Y-97699380D01*
X93199004Y-97865720D01*
X93203535Y-97869652D01*
X93203538Y-97869655D01*
X93289458Y-97944212D01*
X93358763Y-98004352D01*
X93363949Y-98007352D01*
X93363953Y-98007355D01*
X93460357Y-98063126D01*
X93541854Y-98110273D01*
X93741671Y-98179661D01*
X93747606Y-98180522D01*
X93747608Y-98180522D01*
X93945064Y-98209152D01*
X93945067Y-98209152D01*
X93951004Y-98210013D01*
X94162299Y-98200233D01*
X94293477Y-98168619D01*
X94362101Y-98152081D01*
X94362103Y-98152080D01*
X94367934Y-98150675D01*
X94373392Y-98148193D01*
X94373396Y-98148192D01*
X94488441Y-98095884D01*
X94560487Y-98063126D01*
X94733011Y-97940746D01*
X94879281Y-97787950D01*
X94994020Y-97610252D01*
X95073086Y-97414063D01*
X95113628Y-97206463D01*
X95113900Y-97200901D01*
X95113900Y-97150646D01*
X95436900Y-97150646D01*
X95451948Y-97308366D01*
X95511492Y-97511334D01*
X95608342Y-97699380D01*
X95739004Y-97865720D01*
X95743535Y-97869652D01*
X95743538Y-97869655D01*
X95829458Y-97944212D01*
X95898763Y-98004352D01*
X95903949Y-98007352D01*
X95903953Y-98007355D01*
X96000357Y-98063126D01*
X96081854Y-98110273D01*
X96281671Y-98179661D01*
X96287606Y-98180522D01*
X96287608Y-98180522D01*
X96485064Y-98209152D01*
X96485067Y-98209152D01*
X96491004Y-98210013D01*
X96702299Y-98200233D01*
X96833477Y-98168619D01*
X96902101Y-98152081D01*
X96902103Y-98152080D01*
X96907934Y-98150675D01*
X96913392Y-98148193D01*
X96913396Y-98148192D01*
X97028441Y-98095884D01*
X97100487Y-98063126D01*
X97273011Y-97940746D01*
X97419281Y-97787950D01*
X97534020Y-97610252D01*
X97613086Y-97414063D01*
X97653628Y-97206463D01*
X97653900Y-97200901D01*
X97653900Y-97150646D01*
X97976900Y-97150646D01*
X97991948Y-97308366D01*
X98051492Y-97511334D01*
X98148342Y-97699380D01*
X98279004Y-97865720D01*
X98283535Y-97869652D01*
X98283538Y-97869655D01*
X98369458Y-97944212D01*
X98438763Y-98004352D01*
X98443949Y-98007352D01*
X98443953Y-98007355D01*
X98540357Y-98063126D01*
X98621854Y-98110273D01*
X98821671Y-98179661D01*
X98827606Y-98180522D01*
X98827608Y-98180522D01*
X99031004Y-98210013D01*
X99030615Y-98212698D01*
X99032030Y-98213191D01*
X99058378Y-98208746D01*
X99078853Y-98207798D01*
X99242299Y-98200233D01*
X99373477Y-98168619D01*
X99442101Y-98152081D01*
X99442103Y-98152080D01*
X99447934Y-98150675D01*
X99453392Y-98148193D01*
X99453396Y-98148192D01*
X99568441Y-98095884D01*
X99640487Y-98063126D01*
X99813011Y-97940746D01*
X99959281Y-97787950D01*
X100074020Y-97610252D01*
X100153086Y-97414063D01*
X100193628Y-97206463D01*
X100193900Y-97200901D01*
X100193900Y-96244954D01*
X100178852Y-96087234D01*
X100119308Y-95884266D01*
X100022458Y-95696220D01*
X99891796Y-95529880D01*
X99887265Y-95525948D01*
X99887262Y-95525945D01*
X99736567Y-95395179D01*
X99732037Y-95391248D01*
X99726851Y-95388248D01*
X99726847Y-95388245D01*
X99554142Y-95288333D01*
X99548946Y-95285327D01*
X99349129Y-95215939D01*
X99343194Y-95215078D01*
X99343192Y-95215078D01*
X99145736Y-95186448D01*
X99145733Y-95186448D01*
X99139796Y-95185587D01*
X98928501Y-95195367D01*
X98802713Y-95225682D01*
X98728699Y-95243519D01*
X98728697Y-95243520D01*
X98722866Y-95244925D01*
X98717408Y-95247407D01*
X98717404Y-95247408D01*
X98602359Y-95299716D01*
X98530313Y-95332474D01*
X98357789Y-95454854D01*
X98211519Y-95607650D01*
X98096780Y-95785348D01*
X98017714Y-95981537D01*
X97977172Y-96189137D01*
X97976900Y-96194699D01*
X97976900Y-97150646D01*
X97653900Y-97150646D01*
X97653900Y-96244954D01*
X97638852Y-96087234D01*
X97579308Y-95884266D01*
X97482458Y-95696220D01*
X97351796Y-95529880D01*
X97347265Y-95525948D01*
X97347262Y-95525945D01*
X97196567Y-95395179D01*
X97192037Y-95391248D01*
X97186851Y-95388248D01*
X97186847Y-95388245D01*
X97014142Y-95288333D01*
X97008946Y-95285327D01*
X96809129Y-95215939D01*
X96803194Y-95215078D01*
X96803192Y-95215078D01*
X96605736Y-95186448D01*
X96605733Y-95186448D01*
X96599796Y-95185587D01*
X96388501Y-95195367D01*
X96262713Y-95225682D01*
X96188699Y-95243519D01*
X96188697Y-95243520D01*
X96182866Y-95244925D01*
X96177408Y-95247407D01*
X96177404Y-95247408D01*
X96062359Y-95299716D01*
X95990313Y-95332474D01*
X95817789Y-95454854D01*
X95671519Y-95607650D01*
X95556780Y-95785348D01*
X95477714Y-95981537D01*
X95437172Y-96189137D01*
X95436900Y-96194699D01*
X95436900Y-97150646D01*
X95113900Y-97150646D01*
X95113900Y-96244954D01*
X95098852Y-96087234D01*
X95039308Y-95884266D01*
X94942458Y-95696220D01*
X94811796Y-95529880D01*
X94807265Y-95525948D01*
X94807262Y-95525945D01*
X94656567Y-95395179D01*
X94652037Y-95391248D01*
X94646851Y-95388248D01*
X94646847Y-95388245D01*
X94474142Y-95288333D01*
X94468946Y-95285327D01*
X94269129Y-95215939D01*
X94263194Y-95215078D01*
X94263192Y-95215078D01*
X94065736Y-95186448D01*
X94065733Y-95186448D01*
X94059796Y-95185587D01*
X93848501Y-95195367D01*
X93722713Y-95225682D01*
X93648699Y-95243519D01*
X93648697Y-95243520D01*
X93642866Y-95244925D01*
X93637408Y-95247407D01*
X93637404Y-95247408D01*
X93522359Y-95299716D01*
X93450313Y-95332474D01*
X93277789Y-95454854D01*
X93131519Y-95607650D01*
X93016780Y-95785348D01*
X92937714Y-95981537D01*
X92897172Y-96189137D01*
X92896900Y-96194699D01*
X92896900Y-97150646D01*
X92573900Y-97150646D01*
X92573900Y-96244954D01*
X92558852Y-96087234D01*
X92499308Y-95884266D01*
X92402458Y-95696220D01*
X92271796Y-95529880D01*
X92267265Y-95525948D01*
X92267262Y-95525945D01*
X92116567Y-95395179D01*
X92112037Y-95391248D01*
X92106851Y-95388248D01*
X92106847Y-95388245D01*
X91934142Y-95288333D01*
X91928946Y-95285327D01*
X91729129Y-95215939D01*
X91723194Y-95215078D01*
X91723192Y-95215078D01*
X91525736Y-95186448D01*
X91525733Y-95186448D01*
X91519796Y-95185587D01*
X91308501Y-95195367D01*
X91182713Y-95225682D01*
X91108699Y-95243519D01*
X91108697Y-95243520D01*
X91102866Y-95244925D01*
X91097408Y-95247407D01*
X91097404Y-95247408D01*
X90982359Y-95299716D01*
X90910313Y-95332474D01*
X90737789Y-95454854D01*
X90591519Y-95607650D01*
X90476780Y-95785348D01*
X90397714Y-95981537D01*
X90357172Y-96189137D01*
X90356900Y-96194699D01*
X90356900Y-97150646D01*
X90033900Y-97150646D01*
X90033900Y-96244954D01*
X90018852Y-96087234D01*
X89959308Y-95884266D01*
X89862458Y-95696220D01*
X89731796Y-95529880D01*
X89727265Y-95525948D01*
X89727262Y-95525945D01*
X89576567Y-95395179D01*
X89572037Y-95391248D01*
X89566851Y-95388248D01*
X89566847Y-95388245D01*
X89394142Y-95288333D01*
X89388946Y-95285327D01*
X89189129Y-95215939D01*
X89183194Y-95215078D01*
X89183192Y-95215078D01*
X88985736Y-95186448D01*
X88985733Y-95186448D01*
X88979796Y-95185587D01*
X88768501Y-95195367D01*
X88642713Y-95225682D01*
X88568699Y-95243519D01*
X88568697Y-95243520D01*
X88562866Y-95244925D01*
X88557408Y-95247407D01*
X88557404Y-95247408D01*
X88442359Y-95299716D01*
X88370313Y-95332474D01*
X88197789Y-95454854D01*
X88051519Y-95607650D01*
X87936780Y-95785348D01*
X87857714Y-95981537D01*
X87817172Y-96189137D01*
X87816900Y-96194699D01*
X87816900Y-97150646D01*
X87493900Y-97150646D01*
X87493900Y-96244954D01*
X87478852Y-96087234D01*
X87419308Y-95884266D01*
X87322458Y-95696220D01*
X87191796Y-95529880D01*
X87187265Y-95525948D01*
X87187262Y-95525945D01*
X87036567Y-95395179D01*
X87032037Y-95391248D01*
X87026851Y-95388248D01*
X87026847Y-95388245D01*
X86854142Y-95288333D01*
X86848946Y-95285327D01*
X86649129Y-95215939D01*
X86643194Y-95215078D01*
X86643192Y-95215078D01*
X86445736Y-95186448D01*
X86445733Y-95186448D01*
X86439796Y-95185587D01*
X86228501Y-95195367D01*
X86102713Y-95225682D01*
X86028699Y-95243519D01*
X86028697Y-95243520D01*
X86022866Y-95244925D01*
X86017408Y-95247407D01*
X86017404Y-95247408D01*
X85902359Y-95299716D01*
X85830313Y-95332474D01*
X85657789Y-95454854D01*
X85511519Y-95607650D01*
X85396780Y-95785348D01*
X85317714Y-95981537D01*
X85277172Y-96189137D01*
X85276900Y-96194699D01*
X85276900Y-97150646D01*
X84953900Y-97150646D01*
X84953900Y-96244954D01*
X84938852Y-96087234D01*
X84879308Y-95884266D01*
X84782458Y-95696220D01*
X84651796Y-95529880D01*
X84647265Y-95525948D01*
X84647262Y-95525945D01*
X84496567Y-95395179D01*
X84492037Y-95391248D01*
X84486851Y-95388248D01*
X84486847Y-95388245D01*
X84314142Y-95288333D01*
X84308946Y-95285327D01*
X84109129Y-95215939D01*
X84103194Y-95215078D01*
X84103192Y-95215078D01*
X83905736Y-95186448D01*
X83905733Y-95186448D01*
X83899796Y-95185587D01*
X83688501Y-95195367D01*
X83562713Y-95225682D01*
X83488699Y-95243519D01*
X83488697Y-95243520D01*
X83482866Y-95244925D01*
X83477408Y-95247407D01*
X83477404Y-95247408D01*
X83362359Y-95299716D01*
X83290313Y-95332474D01*
X83117789Y-95454854D01*
X82971519Y-95607650D01*
X82856780Y-95785348D01*
X82777714Y-95981537D01*
X82737172Y-96189137D01*
X82736900Y-96194699D01*
X82736900Y-97150646D01*
X82413900Y-97150646D01*
X82413900Y-96244954D01*
X82398852Y-96087234D01*
X82339308Y-95884266D01*
X82242458Y-95696220D01*
X82111796Y-95529880D01*
X82107265Y-95525948D01*
X82107262Y-95525945D01*
X81956567Y-95395179D01*
X81952037Y-95391248D01*
X81946851Y-95388248D01*
X81946847Y-95388245D01*
X81774142Y-95288333D01*
X81768946Y-95285327D01*
X81569129Y-95215939D01*
X81563194Y-95215078D01*
X81563192Y-95215078D01*
X81365736Y-95186448D01*
X81365733Y-95186448D01*
X81359796Y-95185587D01*
X81148501Y-95195367D01*
X81022713Y-95225682D01*
X80948699Y-95243519D01*
X80948697Y-95243520D01*
X80942866Y-95244925D01*
X80937408Y-95247407D01*
X80937404Y-95247408D01*
X80822359Y-95299716D01*
X80750313Y-95332474D01*
X80577789Y-95454854D01*
X80431519Y-95607650D01*
X80316780Y-95785348D01*
X80237714Y-95981537D01*
X80197172Y-96189137D01*
X80196900Y-96194699D01*
X80196900Y-97150646D01*
X79873900Y-97150646D01*
X79873900Y-96244954D01*
X79858852Y-96087234D01*
X79799308Y-95884266D01*
X79702458Y-95696220D01*
X79571796Y-95529880D01*
X79567265Y-95525948D01*
X79567262Y-95525945D01*
X79416567Y-95395179D01*
X79412037Y-95391248D01*
X79406851Y-95388248D01*
X79406847Y-95388245D01*
X79234142Y-95288333D01*
X79228946Y-95285327D01*
X79029129Y-95215939D01*
X79023194Y-95215078D01*
X79023192Y-95215078D01*
X78825736Y-95186448D01*
X78825733Y-95186448D01*
X78819796Y-95185587D01*
X78608501Y-95195367D01*
X78482713Y-95225682D01*
X78408699Y-95243519D01*
X78408697Y-95243520D01*
X78402866Y-95244925D01*
X78397408Y-95247407D01*
X78397404Y-95247408D01*
X78282359Y-95299716D01*
X78210313Y-95332474D01*
X78037789Y-95454854D01*
X77891519Y-95607650D01*
X77776780Y-95785348D01*
X77697714Y-95981537D01*
X77657172Y-96189137D01*
X77656900Y-96194699D01*
X77656900Y-97150646D01*
X77333900Y-97150646D01*
X77333900Y-96244954D01*
X77318852Y-96087234D01*
X77259308Y-95884266D01*
X77162458Y-95696220D01*
X77031796Y-95529880D01*
X77027265Y-95525948D01*
X77027262Y-95525945D01*
X76876567Y-95395179D01*
X76872037Y-95391248D01*
X76866851Y-95388248D01*
X76866847Y-95388245D01*
X76694142Y-95288333D01*
X76688946Y-95285327D01*
X76489129Y-95215939D01*
X76483194Y-95215078D01*
X76483192Y-95215078D01*
X76285736Y-95186448D01*
X76285733Y-95186448D01*
X76279796Y-95185587D01*
X76068501Y-95195367D01*
X75942713Y-95225682D01*
X75868699Y-95243519D01*
X75868697Y-95243520D01*
X75862866Y-95244925D01*
X75857408Y-95247407D01*
X75857404Y-95247408D01*
X75742359Y-95299716D01*
X75670313Y-95332474D01*
X75497789Y-95454854D01*
X75351519Y-95607650D01*
X75236780Y-95785348D01*
X75157714Y-95981537D01*
X75117172Y-96189137D01*
X75116900Y-96194699D01*
X75116900Y-97150646D01*
X74793900Y-97150646D01*
X74793900Y-96244954D01*
X74778852Y-96087234D01*
X74719308Y-95884266D01*
X74622458Y-95696220D01*
X74491796Y-95529880D01*
X74487265Y-95525948D01*
X74487262Y-95525945D01*
X74336567Y-95395179D01*
X74332037Y-95391248D01*
X74326851Y-95388248D01*
X74326847Y-95388245D01*
X74154142Y-95288333D01*
X74148946Y-95285327D01*
X73949129Y-95215939D01*
X73943194Y-95215078D01*
X73943192Y-95215078D01*
X73745736Y-95186448D01*
X73745733Y-95186448D01*
X73739796Y-95185587D01*
X73528501Y-95195367D01*
X73402713Y-95225682D01*
X73328699Y-95243519D01*
X73328697Y-95243520D01*
X73322866Y-95244925D01*
X73317408Y-95247407D01*
X73317404Y-95247408D01*
X73202359Y-95299716D01*
X73130313Y-95332474D01*
X72957789Y-95454854D01*
X72811519Y-95607650D01*
X72696780Y-95785348D01*
X72617714Y-95981537D01*
X72577172Y-96189137D01*
X72576900Y-96194699D01*
X72576900Y-97150646D01*
X72253900Y-97150646D01*
X72253900Y-96244954D01*
X72238852Y-96087234D01*
X72179308Y-95884266D01*
X72082458Y-95696220D01*
X71951796Y-95529880D01*
X71947265Y-95525948D01*
X71947262Y-95525945D01*
X71796567Y-95395179D01*
X71792037Y-95391248D01*
X71786851Y-95388248D01*
X71786847Y-95388245D01*
X71614142Y-95288333D01*
X71608946Y-95285327D01*
X71409129Y-95215939D01*
X71403194Y-95215078D01*
X71403192Y-95215078D01*
X71205736Y-95186448D01*
X71205733Y-95186448D01*
X71199796Y-95185587D01*
X70988501Y-95195367D01*
X70862713Y-95225682D01*
X70788699Y-95243519D01*
X70788697Y-95243520D01*
X70782866Y-95244925D01*
X70777408Y-95247407D01*
X70777404Y-95247408D01*
X70662359Y-95299716D01*
X70590313Y-95332474D01*
X70417789Y-95454854D01*
X70271519Y-95607650D01*
X70156780Y-95785348D01*
X70077714Y-95981537D01*
X70037172Y-96189137D01*
X70036900Y-96194699D01*
X70036900Y-97150646D01*
X69713900Y-97150646D01*
X69713900Y-96244954D01*
X69698852Y-96087234D01*
X69639308Y-95884266D01*
X69542458Y-95696220D01*
X69411796Y-95529880D01*
X69407265Y-95525948D01*
X69407262Y-95525945D01*
X69256567Y-95395179D01*
X69252037Y-95391248D01*
X69246851Y-95388248D01*
X69246847Y-95388245D01*
X69074142Y-95288333D01*
X69068946Y-95285327D01*
X68869129Y-95215939D01*
X68863194Y-95215078D01*
X68863192Y-95215078D01*
X68665736Y-95186448D01*
X68665733Y-95186448D01*
X68659796Y-95185587D01*
X68448501Y-95195367D01*
X68322713Y-95225682D01*
X68248699Y-95243519D01*
X68248697Y-95243520D01*
X68242866Y-95244925D01*
X68237408Y-95247407D01*
X68237404Y-95247408D01*
X68122359Y-95299716D01*
X68050313Y-95332474D01*
X67877789Y-95454854D01*
X67731519Y-95607650D01*
X67616780Y-95785348D01*
X67537714Y-95981537D01*
X67497172Y-96189137D01*
X67496900Y-96194699D01*
X67496900Y-97150646D01*
X67173900Y-97150646D01*
X67173900Y-96244954D01*
X67158852Y-96087234D01*
X67099308Y-95884266D01*
X67002458Y-95696220D01*
X66871796Y-95529880D01*
X66867265Y-95525948D01*
X66867262Y-95525945D01*
X66716567Y-95395179D01*
X66712037Y-95391248D01*
X66706851Y-95388248D01*
X66706847Y-95388245D01*
X66534142Y-95288333D01*
X66528946Y-95285327D01*
X66329129Y-95215939D01*
X66323194Y-95215078D01*
X66323192Y-95215078D01*
X66125736Y-95186448D01*
X66125733Y-95186448D01*
X66119796Y-95185587D01*
X65908501Y-95195367D01*
X65782713Y-95225682D01*
X65708699Y-95243519D01*
X65708697Y-95243520D01*
X65702866Y-95244925D01*
X65697408Y-95247407D01*
X65697404Y-95247408D01*
X65582359Y-95299716D01*
X65510313Y-95332474D01*
X65337789Y-95454854D01*
X65191519Y-95607650D01*
X65076780Y-95785348D01*
X64997714Y-95981537D01*
X64957172Y-96189137D01*
X64956900Y-96194699D01*
X64956900Y-97150646D01*
X64633900Y-97150646D01*
X64633900Y-96244954D01*
X64618852Y-96087234D01*
X64559308Y-95884266D01*
X64462458Y-95696220D01*
X64331796Y-95529880D01*
X64327265Y-95525948D01*
X64327262Y-95525945D01*
X64176567Y-95395179D01*
X64172037Y-95391248D01*
X64166851Y-95388248D01*
X64166847Y-95388245D01*
X63994142Y-95288333D01*
X63988946Y-95285327D01*
X63789129Y-95215939D01*
X63783194Y-95215078D01*
X63783192Y-95215078D01*
X63585736Y-95186448D01*
X63585733Y-95186448D01*
X63579796Y-95185587D01*
X63368501Y-95195367D01*
X63242713Y-95225682D01*
X63168699Y-95243519D01*
X63168697Y-95243520D01*
X63162866Y-95244925D01*
X63157408Y-95247407D01*
X63157404Y-95247408D01*
X63042359Y-95299716D01*
X62970313Y-95332474D01*
X62797789Y-95454854D01*
X62651519Y-95607650D01*
X62536780Y-95785348D01*
X62457714Y-95981537D01*
X62417172Y-96189137D01*
X62416900Y-96194699D01*
X62416900Y-97150646D01*
X61595000Y-97150646D01*
X61595000Y-93791964D01*
X62817761Y-93791964D01*
X62833710Y-93954622D01*
X62835934Y-93961307D01*
X62835934Y-93961308D01*
X62856239Y-94022348D01*
X62885299Y-94109705D01*
X62969965Y-94249504D01*
X62974856Y-94254569D01*
X62974857Y-94254570D01*
X63002421Y-94283113D01*
X63083498Y-94367071D01*
X63089390Y-94370926D01*
X63089394Y-94370930D01*
X63118717Y-94390118D01*
X63220257Y-94456564D01*
X63250454Y-94467794D01*
X63366848Y-94511080D01*
X63366851Y-94511081D01*
X63373445Y-94513533D01*
X63380422Y-94514464D01*
X63528466Y-94534218D01*
X63528470Y-94534218D01*
X63535447Y-94535149D01*
X63542458Y-94534511D01*
X63542462Y-94534511D01*
X63691191Y-94520975D01*
X63698212Y-94520336D01*
X63704914Y-94518158D01*
X63704916Y-94518158D01*
X63846952Y-94472008D01*
X63846955Y-94472007D01*
X63853651Y-94469831D01*
X63861572Y-94465109D01*
X63987986Y-94389752D01*
X63987988Y-94389751D01*
X63994038Y-94386144D01*
X64112395Y-94273434D01*
X64202840Y-94137303D01*
X64216270Y-94101947D01*
X64258378Y-93991100D01*
X64258379Y-93991095D01*
X64260878Y-93984517D01*
X64262840Y-93970556D01*
X64283073Y-93826593D01*
X64283073Y-93826588D01*
X64283624Y-93822670D01*
X64283910Y-93802200D01*
X64274887Y-93721760D01*
X64266477Y-93646777D01*
X64266476Y-93646775D01*
X64265692Y-93639781D01*
X64211942Y-93485434D01*
X64125334Y-93346830D01*
X64120372Y-93341833D01*
X64015133Y-93235857D01*
X64015129Y-93235854D01*
X64010170Y-93230860D01*
X63995770Y-93221721D01*
X63944129Y-93188949D01*
X63872174Y-93143285D01*
X63847635Y-93134547D01*
X63724841Y-93090822D01*
X63724836Y-93090821D01*
X63718206Y-93088460D01*
X63711218Y-93087627D01*
X63711215Y-93087626D01*
X63600276Y-93074397D01*
X63555918Y-93069108D01*
X63548915Y-93069844D01*
X63548914Y-93069844D01*
X63400375Y-93085456D01*
X63400373Y-93085457D01*
X63393375Y-93086192D01*
X63333697Y-93106508D01*
X63245327Y-93136591D01*
X63245324Y-93136592D01*
X63238657Y-93138862D01*
X63099452Y-93224501D01*
X62982680Y-93338853D01*
X62894145Y-93476234D01*
X62891736Y-93482854D01*
X62891735Y-93482855D01*
X62868104Y-93547782D01*
X62838246Y-93629815D01*
X62817761Y-93791964D01*
X61595000Y-93791964D01*
X61595000Y-92445764D01*
X81054961Y-92445764D01*
X81070910Y-92608422D01*
X81073134Y-92615107D01*
X81073134Y-92615108D01*
X81085937Y-92653595D01*
X81122499Y-92763505D01*
X81207165Y-92903304D01*
X81212056Y-92908369D01*
X81212057Y-92908370D01*
X81224604Y-92921363D01*
X81320698Y-93020871D01*
X81326590Y-93024726D01*
X81326594Y-93024730D01*
X81395536Y-93069844D01*
X81457457Y-93110364D01*
X81493132Y-93123631D01*
X81604048Y-93164880D01*
X81604051Y-93164881D01*
X81610645Y-93167333D01*
X81617622Y-93168264D01*
X81765666Y-93188018D01*
X81765670Y-93188018D01*
X81772647Y-93188949D01*
X81779658Y-93188311D01*
X81779662Y-93188311D01*
X81928391Y-93174775D01*
X81935412Y-93174136D01*
X81942114Y-93171958D01*
X81942116Y-93171958D01*
X82084152Y-93125808D01*
X82084155Y-93125807D01*
X82090851Y-93123631D01*
X82149850Y-93088461D01*
X82225186Y-93043552D01*
X82225188Y-93043551D01*
X82231238Y-93039944D01*
X82349595Y-92927234D01*
X82440040Y-92791103D01*
X82463694Y-92728834D01*
X82495578Y-92644900D01*
X82495579Y-92644895D01*
X82498078Y-92638317D01*
X82501340Y-92615108D01*
X82520273Y-92480393D01*
X82520273Y-92480388D01*
X82520824Y-92476470D01*
X82520965Y-92466361D01*
X82521055Y-92459962D01*
X82521055Y-92459956D01*
X82521110Y-92456000D01*
X82502892Y-92293581D01*
X82449142Y-92139234D01*
X82362534Y-92000630D01*
X82357572Y-91995633D01*
X82252333Y-91889657D01*
X82252329Y-91889654D01*
X82247370Y-91884660D01*
X82231536Y-91874611D01*
X82194440Y-91851069D01*
X82109374Y-91797085D01*
X82055145Y-91777775D01*
X81962041Y-91744622D01*
X81962036Y-91744621D01*
X81955406Y-91742260D01*
X81948418Y-91741427D01*
X81948415Y-91741426D01*
X81824339Y-91726631D01*
X81793118Y-91722908D01*
X81786115Y-91723644D01*
X81786114Y-91723644D01*
X81637575Y-91739256D01*
X81637573Y-91739257D01*
X81630575Y-91739992D01*
X81549273Y-91767669D01*
X81482527Y-91790391D01*
X81482524Y-91790392D01*
X81475857Y-91792662D01*
X81336652Y-91878301D01*
X81219880Y-91992653D01*
X81131345Y-92130034D01*
X81128936Y-92136654D01*
X81128935Y-92136655D01*
X81114863Y-92175319D01*
X81075446Y-92283615D01*
X81054961Y-92445764D01*
X61595000Y-92445764D01*
X61595000Y-91048764D01*
X62843161Y-91048764D01*
X62859110Y-91211422D01*
X62861334Y-91218107D01*
X62861334Y-91218108D01*
X62874908Y-91258912D01*
X62910699Y-91366505D01*
X62914348Y-91372530D01*
X62989466Y-91496563D01*
X62995365Y-91506304D01*
X63000256Y-91511369D01*
X63000257Y-91511370D01*
X63012804Y-91524363D01*
X63108898Y-91623871D01*
X63114790Y-91627726D01*
X63114794Y-91627730D01*
X63198753Y-91682671D01*
X63245657Y-91713364D01*
X63273300Y-91723644D01*
X63392248Y-91767880D01*
X63392251Y-91767881D01*
X63398845Y-91770333D01*
X63405822Y-91771264D01*
X63553866Y-91791018D01*
X63553870Y-91791018D01*
X63560847Y-91791949D01*
X63567858Y-91791311D01*
X63567862Y-91791311D01*
X63716591Y-91777775D01*
X63723612Y-91777136D01*
X63730314Y-91774958D01*
X63730316Y-91774958D01*
X63872352Y-91728808D01*
X63872355Y-91728807D01*
X63879051Y-91726631D01*
X63885102Y-91723024D01*
X64013386Y-91646552D01*
X64013388Y-91646551D01*
X64019438Y-91642944D01*
X64137795Y-91530234D01*
X64228240Y-91394103D01*
X64249338Y-91338563D01*
X64283778Y-91247900D01*
X64283779Y-91247895D01*
X64286278Y-91241317D01*
X64289584Y-91217797D01*
X64308473Y-91083393D01*
X64308473Y-91083388D01*
X64309024Y-91079470D01*
X64309171Y-91068958D01*
X64309255Y-91062962D01*
X64309255Y-91062956D01*
X64309310Y-91059000D01*
X64308162Y-91048764D01*
X65637161Y-91048764D01*
X65653110Y-91211422D01*
X65655334Y-91218107D01*
X65655334Y-91218108D01*
X65668908Y-91258912D01*
X65704699Y-91366505D01*
X65708348Y-91372530D01*
X65783466Y-91496563D01*
X65789365Y-91506304D01*
X65794256Y-91511369D01*
X65794257Y-91511370D01*
X65806804Y-91524363D01*
X65902898Y-91623871D01*
X65908790Y-91627726D01*
X65908794Y-91627730D01*
X65992753Y-91682671D01*
X66039657Y-91713364D01*
X66067300Y-91723644D01*
X66186248Y-91767880D01*
X66186251Y-91767881D01*
X66192845Y-91770333D01*
X66199822Y-91771264D01*
X66347866Y-91791018D01*
X66347870Y-91791018D01*
X66354847Y-91791949D01*
X66361858Y-91791311D01*
X66361862Y-91791311D01*
X66510591Y-91777775D01*
X66517612Y-91777136D01*
X66524314Y-91774958D01*
X66524316Y-91774958D01*
X66666352Y-91728808D01*
X66666355Y-91728807D01*
X66673051Y-91726631D01*
X66679102Y-91723024D01*
X66807386Y-91646552D01*
X66807388Y-91646551D01*
X66813438Y-91642944D01*
X66931795Y-91530234D01*
X67022240Y-91394103D01*
X67043338Y-91338563D01*
X67077778Y-91247900D01*
X67077779Y-91247895D01*
X67080278Y-91241317D01*
X67083584Y-91217797D01*
X67102473Y-91083393D01*
X67102473Y-91083388D01*
X67103024Y-91079470D01*
X67103171Y-91068958D01*
X67103255Y-91062962D01*
X67103255Y-91062956D01*
X67103310Y-91059000D01*
X67085092Y-90896581D01*
X67031342Y-90742234D01*
X66944734Y-90603630D01*
X66939772Y-90598633D01*
X66834533Y-90492657D01*
X66834529Y-90492654D01*
X66829570Y-90487660D01*
X66813736Y-90477611D01*
X66699580Y-90405166D01*
X66691574Y-90400085D01*
X66667035Y-90391347D01*
X66544241Y-90347622D01*
X66544236Y-90347621D01*
X66537606Y-90345260D01*
X66530618Y-90344427D01*
X66530615Y-90344426D01*
X66419676Y-90331197D01*
X66375318Y-90325908D01*
X66368315Y-90326644D01*
X66368314Y-90326644D01*
X66219775Y-90342256D01*
X66219773Y-90342257D01*
X66212775Y-90342992D01*
X66131473Y-90370669D01*
X66064727Y-90393391D01*
X66064724Y-90393392D01*
X66058057Y-90395662D01*
X66052058Y-90399352D01*
X66052057Y-90399353D01*
X66044725Y-90403864D01*
X65918852Y-90481301D01*
X65802080Y-90595653D01*
X65713545Y-90733034D01*
X65711136Y-90739654D01*
X65711135Y-90739655D01*
X65689741Y-90798435D01*
X65657646Y-90886615D01*
X65637161Y-91048764D01*
X64308162Y-91048764D01*
X64291092Y-90896581D01*
X64237342Y-90742234D01*
X64150734Y-90603630D01*
X64145772Y-90598633D01*
X64040533Y-90492657D01*
X64040529Y-90492654D01*
X64035570Y-90487660D01*
X64019736Y-90477611D01*
X63905580Y-90405166D01*
X63897574Y-90400085D01*
X63873035Y-90391347D01*
X63750241Y-90347622D01*
X63750236Y-90347621D01*
X63743606Y-90345260D01*
X63736618Y-90344427D01*
X63736615Y-90344426D01*
X63625676Y-90331197D01*
X63581318Y-90325908D01*
X63574315Y-90326644D01*
X63574314Y-90326644D01*
X63425775Y-90342256D01*
X63425773Y-90342257D01*
X63418775Y-90342992D01*
X63337473Y-90370669D01*
X63270727Y-90393391D01*
X63270724Y-90393392D01*
X63264057Y-90395662D01*
X63258058Y-90399352D01*
X63258057Y-90399353D01*
X63250725Y-90403864D01*
X63124852Y-90481301D01*
X63008080Y-90595653D01*
X62919545Y-90733034D01*
X62917136Y-90739654D01*
X62917135Y-90739655D01*
X62895741Y-90798435D01*
X62863646Y-90886615D01*
X62843161Y-91048764D01*
X61595000Y-91048764D01*
X61595000Y-85714764D01*
X62766961Y-85714764D01*
X62782910Y-85877422D01*
X62785134Y-85884107D01*
X62785134Y-85884108D01*
X62803803Y-85940230D01*
X62834499Y-86032505D01*
X62838148Y-86038530D01*
X62902364Y-86144562D01*
X62919165Y-86172304D01*
X62924056Y-86177369D01*
X62924057Y-86177370D01*
X62936604Y-86190363D01*
X63032698Y-86289871D01*
X63038590Y-86293726D01*
X63038594Y-86293730D01*
X63113135Y-86342508D01*
X63169457Y-86379364D01*
X63197721Y-86389875D01*
X63316048Y-86433880D01*
X63316051Y-86433881D01*
X63322645Y-86436333D01*
X63329622Y-86437264D01*
X63477666Y-86457018D01*
X63477670Y-86457018D01*
X63484647Y-86457949D01*
X63491658Y-86457311D01*
X63491662Y-86457311D01*
X63640391Y-86443775D01*
X63647412Y-86443136D01*
X63654114Y-86440958D01*
X63654116Y-86440958D01*
X63796152Y-86394808D01*
X63796155Y-86394807D01*
X63802851Y-86392631D01*
X63831575Y-86375508D01*
X63891237Y-86339943D01*
X82673780Y-86339943D01*
X82674526Y-86347835D01*
X82677941Y-86383961D01*
X82678500Y-86395819D01*
X82678500Y-90980233D01*
X82677973Y-90991416D01*
X82676298Y-90998909D01*
X82676547Y-91006835D01*
X82676547Y-91006836D01*
X82678438Y-91066986D01*
X82678500Y-91070945D01*
X82678500Y-91098856D01*
X82678997Y-91102790D01*
X82678997Y-91102791D01*
X82679005Y-91102856D01*
X82679938Y-91114693D01*
X82681327Y-91158889D01*
X82684634Y-91170271D01*
X82686978Y-91178339D01*
X82690987Y-91197700D01*
X82693526Y-91217797D01*
X82696445Y-91225168D01*
X82696445Y-91225170D01*
X82709804Y-91258912D01*
X82713649Y-91270142D01*
X82723771Y-91304983D01*
X82725982Y-91312593D01*
X82730015Y-91319412D01*
X82730017Y-91319417D01*
X82736293Y-91330028D01*
X82744988Y-91347776D01*
X82752448Y-91366617D01*
X82757110Y-91373033D01*
X82757110Y-91373034D01*
X82778436Y-91402387D01*
X82784952Y-91412307D01*
X82807458Y-91450362D01*
X82821779Y-91464683D01*
X82834619Y-91479716D01*
X82846528Y-91496107D01*
X82852634Y-91501158D01*
X82880605Y-91524298D01*
X82889384Y-91532288D01*
X84904878Y-93547782D01*
X84938904Y-93610094D01*
X84941092Y-93623703D01*
X84942782Y-93639781D01*
X84956793Y-93773082D01*
X84958458Y-93788928D01*
X85017473Y-93970556D01*
X85112960Y-94135944D01*
X85117378Y-94140851D01*
X85117379Y-94140852D01*
X85132435Y-94157573D01*
X85240747Y-94277866D01*
X85395248Y-94390118D01*
X85401276Y-94392802D01*
X85401278Y-94392803D01*
X85551256Y-94459577D01*
X85569712Y-94467794D01*
X85663113Y-94487647D01*
X85750056Y-94506128D01*
X85750061Y-94506128D01*
X85756513Y-94507500D01*
X85947487Y-94507500D01*
X85953939Y-94506128D01*
X85953944Y-94506128D01*
X86040887Y-94487647D01*
X86134288Y-94467794D01*
X86152744Y-94459577D01*
X86302722Y-94392803D01*
X86302724Y-94392802D01*
X86308752Y-94390118D01*
X86463253Y-94277866D01*
X86571565Y-94157573D01*
X86586621Y-94140852D01*
X86586622Y-94140851D01*
X86591040Y-94135944D01*
X86686527Y-93970556D01*
X86745542Y-93788928D01*
X86747208Y-93773082D01*
X86764814Y-93605565D01*
X86765504Y-93599000D01*
X86745542Y-93409072D01*
X86686527Y-93227444D01*
X86682698Y-93220811D01*
X86624508Y-93120024D01*
X86591040Y-93062056D01*
X86463253Y-92920134D01*
X86308752Y-92807882D01*
X86302724Y-92805198D01*
X86302722Y-92805197D01*
X86140319Y-92732891D01*
X86140318Y-92732891D01*
X86134288Y-92730206D01*
X86040888Y-92710353D01*
X85953944Y-92691872D01*
X85953939Y-92691872D01*
X85947487Y-92690500D01*
X85891595Y-92690500D01*
X85823474Y-92670498D01*
X85802500Y-92653595D01*
X85013169Y-91864264D01*
X98453961Y-91864264D01*
X98469910Y-92026922D01*
X98472134Y-92033607D01*
X98472134Y-92033608D01*
X98495705Y-92104464D01*
X98521499Y-92182005D01*
X98606165Y-92321804D01*
X98719698Y-92439371D01*
X98725590Y-92443226D01*
X98725594Y-92443230D01*
X98782386Y-92480393D01*
X98856457Y-92528864D01*
X98892132Y-92542131D01*
X99003048Y-92583380D01*
X99003051Y-92583381D01*
X99009645Y-92585833D01*
X99016622Y-92586764D01*
X99164666Y-92606518D01*
X99164670Y-92606518D01*
X99171647Y-92607449D01*
X99178658Y-92606811D01*
X99178662Y-92606811D01*
X99327391Y-92593275D01*
X99334412Y-92592636D01*
X99341114Y-92590458D01*
X99341116Y-92590458D01*
X99483152Y-92544308D01*
X99483155Y-92544307D01*
X99489851Y-92542131D01*
X99606644Y-92472509D01*
X99624186Y-92462052D01*
X99624188Y-92462051D01*
X99630238Y-92458444D01*
X99748595Y-92345734D01*
X99839040Y-92209603D01*
X99865771Y-92139234D01*
X99894578Y-92063400D01*
X99894579Y-92063395D01*
X99897078Y-92056817D01*
X99900340Y-92033608D01*
X99919273Y-91898893D01*
X99919273Y-91898888D01*
X99919824Y-91894970D01*
X99920110Y-91874500D01*
X99908530Y-91771264D01*
X99902677Y-91719077D01*
X99902676Y-91719075D01*
X99901892Y-91712081D01*
X99848142Y-91557734D01*
X99761534Y-91419130D01*
X99756572Y-91414133D01*
X99651333Y-91308157D01*
X99651329Y-91308154D01*
X99646370Y-91303160D01*
X99630536Y-91293111D01*
X99548921Y-91241317D01*
X99508374Y-91215585D01*
X99458147Y-91197700D01*
X99361041Y-91163122D01*
X99361036Y-91163121D01*
X99354406Y-91160760D01*
X99347418Y-91159927D01*
X99347415Y-91159926D01*
X99236476Y-91146697D01*
X99192118Y-91141408D01*
X99185115Y-91142144D01*
X99185114Y-91142144D01*
X99036575Y-91157756D01*
X99036573Y-91157757D01*
X99029575Y-91158492D01*
X98959701Y-91182279D01*
X98881527Y-91208891D01*
X98881524Y-91208892D01*
X98874857Y-91211162D01*
X98735652Y-91296801D01*
X98701722Y-91330028D01*
X98627832Y-91402387D01*
X98618880Y-91411153D01*
X98530345Y-91548534D01*
X98527936Y-91555154D01*
X98527935Y-91555155D01*
X98504769Y-91618803D01*
X98474446Y-91702115D01*
X98453961Y-91864264D01*
X85013169Y-91864264D01*
X84919501Y-91770596D01*
X84885475Y-91708284D01*
X84890540Y-91637469D01*
X84934535Y-91579565D01*
X84964583Y-91557734D01*
X85015940Y-91520421D01*
X85082806Y-91496563D01*
X85151958Y-91512643D01*
X85164056Y-91520418D01*
X85268248Y-91596118D01*
X85274276Y-91598802D01*
X85274278Y-91598803D01*
X85339250Y-91627730D01*
X85442712Y-91673794D01*
X85536113Y-91693647D01*
X85623056Y-91712128D01*
X85623061Y-91712128D01*
X85629513Y-91713500D01*
X85820487Y-91713500D01*
X85826939Y-91712128D01*
X85826944Y-91712128D01*
X85913887Y-91693647D01*
X86007288Y-91673794D01*
X86110750Y-91627730D01*
X86175722Y-91598803D01*
X86175724Y-91598802D01*
X86181752Y-91596118D01*
X86285940Y-91520421D01*
X86352806Y-91496563D01*
X86421958Y-91512643D01*
X86434056Y-91520418D01*
X86538248Y-91596118D01*
X86544276Y-91598802D01*
X86544278Y-91598803D01*
X86609250Y-91627730D01*
X86712712Y-91673794D01*
X86806113Y-91693647D01*
X86893056Y-91712128D01*
X86893061Y-91712128D01*
X86899513Y-91713500D01*
X87090487Y-91713500D01*
X87096939Y-91712128D01*
X87096944Y-91712128D01*
X87183887Y-91693647D01*
X87277288Y-91673794D01*
X87380750Y-91627730D01*
X87445722Y-91598803D01*
X87445724Y-91598802D01*
X87451752Y-91596118D01*
X87555940Y-91520421D01*
X87622806Y-91496563D01*
X87691958Y-91512643D01*
X87704056Y-91520418D01*
X87808248Y-91596118D01*
X87814276Y-91598802D01*
X87814278Y-91598803D01*
X87879250Y-91627730D01*
X87982712Y-91673794D01*
X88076113Y-91693647D01*
X88163056Y-91712128D01*
X88163061Y-91712128D01*
X88169513Y-91713500D01*
X88360487Y-91713500D01*
X88366939Y-91712128D01*
X88366944Y-91712128D01*
X88453887Y-91693647D01*
X88547288Y-91673794D01*
X88650750Y-91627730D01*
X88715722Y-91598803D01*
X88715724Y-91598802D01*
X88721752Y-91596118D01*
X88876253Y-91483866D01*
X88887210Y-91471697D01*
X88999621Y-91346852D01*
X88999622Y-91346851D01*
X89004040Y-91341944D01*
X89075537Y-91218108D01*
X89096223Y-91182279D01*
X89096224Y-91182278D01*
X89099527Y-91176556D01*
X89158542Y-90994928D01*
X89160087Y-90980233D01*
X89177814Y-90811565D01*
X89178504Y-90805000D01*
X89177814Y-90798435D01*
X89159232Y-90621635D01*
X89159232Y-90621633D01*
X89158542Y-90615072D01*
X89099527Y-90433444D01*
X89004040Y-90268056D01*
X88991662Y-90254309D01*
X88960946Y-90190303D01*
X88969710Y-90119850D01*
X88991661Y-90085693D01*
X89004040Y-90071944D01*
X89099527Y-89906556D01*
X89158542Y-89724928D01*
X89178504Y-89535000D01*
X105766496Y-89535000D01*
X105786458Y-89724928D01*
X105845473Y-89906556D01*
X105940960Y-90071944D01*
X106068747Y-90213866D01*
X106223248Y-90326118D01*
X106229276Y-90328802D01*
X106229278Y-90328803D01*
X106387737Y-90399353D01*
X106397712Y-90403794D01*
X106491113Y-90423647D01*
X106578056Y-90442128D01*
X106578061Y-90442128D01*
X106584513Y-90443500D01*
X106775487Y-90443500D01*
X106781939Y-90442128D01*
X106781944Y-90442128D01*
X106868887Y-90423647D01*
X106962288Y-90403794D01*
X106972263Y-90399353D01*
X107130722Y-90328803D01*
X107130724Y-90328802D01*
X107136752Y-90326118D01*
X107291253Y-90213866D01*
X107419040Y-90071944D01*
X107514527Y-89906556D01*
X107516567Y-89900277D01*
X107517394Y-89898420D01*
X107563374Y-89844325D01*
X107631301Y-89823676D01*
X107699609Y-89843029D01*
X107747606Y-89898420D01*
X107748433Y-89900277D01*
X107750473Y-89906556D01*
X107845960Y-90071944D01*
X107973747Y-90213866D01*
X108128248Y-90326118D01*
X108134276Y-90328802D01*
X108134278Y-90328803D01*
X108292737Y-90399353D01*
X108302712Y-90403794D01*
X108396113Y-90423647D01*
X108483056Y-90442128D01*
X108483061Y-90442128D01*
X108489513Y-90443500D01*
X108680487Y-90443500D01*
X108686939Y-90442128D01*
X108686944Y-90442128D01*
X108773887Y-90423647D01*
X108867288Y-90403794D01*
X108877263Y-90399353D01*
X109035722Y-90328803D01*
X109035724Y-90328802D01*
X109041752Y-90326118D01*
X109196253Y-90213866D01*
X109324040Y-90071944D01*
X109419527Y-89906556D01*
X109478542Y-89724928D01*
X109498504Y-89535000D01*
X109478542Y-89345072D01*
X109419527Y-89163444D01*
X109324040Y-88998056D01*
X109196253Y-88856134D01*
X109041752Y-88743882D01*
X109035724Y-88741198D01*
X109035722Y-88741197D01*
X108873319Y-88668891D01*
X108873318Y-88668891D01*
X108867288Y-88666206D01*
X108754721Y-88642279D01*
X108686944Y-88627872D01*
X108686939Y-88627872D01*
X108680487Y-88626500D01*
X108489513Y-88626500D01*
X108483061Y-88627872D01*
X108483056Y-88627872D01*
X108415279Y-88642279D01*
X108302712Y-88666206D01*
X108296682Y-88668891D01*
X108296681Y-88668891D01*
X108134278Y-88741197D01*
X108134276Y-88741198D01*
X108128248Y-88743882D01*
X107973747Y-88856134D01*
X107845960Y-88998056D01*
X107750473Y-89163444D01*
X107748433Y-89169723D01*
X107747606Y-89171580D01*
X107701626Y-89225675D01*
X107633699Y-89246324D01*
X107565391Y-89226971D01*
X107517394Y-89171580D01*
X107516567Y-89169723D01*
X107514527Y-89163444D01*
X107419040Y-88998056D01*
X107291253Y-88856134D01*
X107136752Y-88743882D01*
X107130724Y-88741198D01*
X107130722Y-88741197D01*
X106968319Y-88668891D01*
X106968318Y-88668891D01*
X106962288Y-88666206D01*
X106849721Y-88642279D01*
X106781944Y-88627872D01*
X106781939Y-88627872D01*
X106775487Y-88626500D01*
X106584513Y-88626500D01*
X106578061Y-88627872D01*
X106578056Y-88627872D01*
X106510279Y-88642279D01*
X106397712Y-88666206D01*
X106391682Y-88668891D01*
X106391681Y-88668891D01*
X106229278Y-88741197D01*
X106229276Y-88741198D01*
X106223248Y-88743882D01*
X106068747Y-88856134D01*
X105940960Y-88998056D01*
X105845473Y-89163444D01*
X105786458Y-89345072D01*
X105766496Y-89535000D01*
X89178504Y-89535000D01*
X89158542Y-89345072D01*
X89099527Y-89163444D01*
X89004040Y-88998056D01*
X88991662Y-88984309D01*
X88960946Y-88920303D01*
X88969710Y-88849850D01*
X88991661Y-88815693D01*
X89004040Y-88801944D01*
X89099527Y-88636556D01*
X89158542Y-88454928D01*
X89178504Y-88265000D01*
X89158542Y-88075072D01*
X89099527Y-87893444D01*
X89004040Y-87728056D01*
X88991662Y-87714309D01*
X88960946Y-87650303D01*
X88969710Y-87579850D01*
X88991661Y-87545693D01*
X89004040Y-87531944D01*
X89099527Y-87366556D01*
X89158542Y-87184928D01*
X89178504Y-86995000D01*
X89177428Y-86984764D01*
X108740961Y-86984764D01*
X108756910Y-87147422D01*
X108759134Y-87154107D01*
X108759134Y-87154108D01*
X108771475Y-87191206D01*
X108808499Y-87302505D01*
X108893165Y-87442304D01*
X109006698Y-87559871D01*
X109012590Y-87563726D01*
X109012594Y-87563730D01*
X109096553Y-87618671D01*
X109143457Y-87649364D01*
X109179132Y-87662631D01*
X109290048Y-87703880D01*
X109290051Y-87703881D01*
X109296645Y-87706333D01*
X109303622Y-87707264D01*
X109451666Y-87727018D01*
X109451670Y-87727018D01*
X109458647Y-87727949D01*
X109465658Y-87727311D01*
X109465662Y-87727311D01*
X109614391Y-87713775D01*
X109621412Y-87713136D01*
X109628114Y-87710958D01*
X109628116Y-87710958D01*
X109770152Y-87664808D01*
X109770155Y-87664807D01*
X109776851Y-87662631D01*
X109805575Y-87645508D01*
X109911186Y-87582552D01*
X109911188Y-87582551D01*
X109917238Y-87578944D01*
X110035595Y-87466234D01*
X110126040Y-87330103D01*
X110139470Y-87294747D01*
X110181578Y-87183900D01*
X110181579Y-87183895D01*
X110184078Y-87177317D01*
X110187340Y-87154108D01*
X110206273Y-87019393D01*
X110206273Y-87019388D01*
X110206824Y-87015470D01*
X110207110Y-86995000D01*
X110188892Y-86832581D01*
X110135142Y-86678234D01*
X110048534Y-86539630D01*
X110043572Y-86534633D01*
X109938333Y-86428657D01*
X109938329Y-86428654D01*
X109933370Y-86423660D01*
X109917536Y-86413611D01*
X109870814Y-86383961D01*
X109795374Y-86336085D01*
X109770835Y-86327347D01*
X109648041Y-86283622D01*
X109648036Y-86283621D01*
X109641406Y-86281260D01*
X109634418Y-86280427D01*
X109634415Y-86280426D01*
X109510339Y-86265631D01*
X109479118Y-86261908D01*
X109472115Y-86262644D01*
X109472114Y-86262644D01*
X109323575Y-86278256D01*
X109323573Y-86278257D01*
X109316575Y-86278992D01*
X109235273Y-86306669D01*
X109168527Y-86329391D01*
X109168524Y-86329392D01*
X109161857Y-86331662D01*
X109022652Y-86417301D01*
X108905880Y-86531653D01*
X108817345Y-86669034D01*
X108814936Y-86675654D01*
X108814935Y-86675655D01*
X108789396Y-86745824D01*
X108761446Y-86822615D01*
X108740961Y-86984764D01*
X89177428Y-86984764D01*
X89161433Y-86832581D01*
X89159232Y-86811635D01*
X89159232Y-86811633D01*
X89158542Y-86805072D01*
X89099527Y-86623444D01*
X89004040Y-86458056D01*
X88991182Y-86443775D01*
X88880675Y-86321045D01*
X88880674Y-86321044D01*
X88876253Y-86316134D01*
X88721752Y-86203882D01*
X88715724Y-86201198D01*
X88715722Y-86201197D01*
X88553319Y-86128891D01*
X88553318Y-86128891D01*
X88547288Y-86126206D01*
X88453888Y-86106353D01*
X88366944Y-86087872D01*
X88366939Y-86087872D01*
X88360487Y-86086500D01*
X88169513Y-86086500D01*
X88163061Y-86087872D01*
X88163056Y-86087872D01*
X88076112Y-86106353D01*
X87982712Y-86126206D01*
X87976682Y-86128891D01*
X87976681Y-86128891D01*
X87814278Y-86201197D01*
X87814276Y-86201198D01*
X87808248Y-86203882D01*
X87704060Y-86279579D01*
X87637194Y-86303437D01*
X87568042Y-86287357D01*
X87555944Y-86279582D01*
X87451752Y-86203882D01*
X87445724Y-86201198D01*
X87445722Y-86201197D01*
X87283319Y-86128891D01*
X87283318Y-86128891D01*
X87277288Y-86126206D01*
X87183888Y-86106353D01*
X87096944Y-86087872D01*
X87096939Y-86087872D01*
X87090487Y-86086500D01*
X86899513Y-86086500D01*
X86893061Y-86087872D01*
X86893056Y-86087872D01*
X86806112Y-86106353D01*
X86712712Y-86126206D01*
X86706682Y-86128891D01*
X86706681Y-86128891D01*
X86544278Y-86201197D01*
X86544276Y-86201198D01*
X86538248Y-86203882D01*
X86434060Y-86279579D01*
X86367194Y-86303437D01*
X86298042Y-86287357D01*
X86285944Y-86279582D01*
X86181752Y-86203882D01*
X86175724Y-86201198D01*
X86175722Y-86201197D01*
X86013319Y-86128891D01*
X86013318Y-86128891D01*
X86007288Y-86126206D01*
X85913888Y-86106353D01*
X85826944Y-86087872D01*
X85826939Y-86087872D01*
X85820487Y-86086500D01*
X85629513Y-86086500D01*
X85623061Y-86087872D01*
X85623056Y-86087872D01*
X85536112Y-86106353D01*
X85442712Y-86126206D01*
X85436682Y-86128891D01*
X85436681Y-86128891D01*
X85274278Y-86201197D01*
X85274276Y-86201198D01*
X85268248Y-86203882D01*
X85164060Y-86279579D01*
X85097194Y-86303437D01*
X85028042Y-86287357D01*
X85015944Y-86279582D01*
X84911752Y-86203882D01*
X84905724Y-86201198D01*
X84905722Y-86201197D01*
X84743319Y-86128891D01*
X84743318Y-86128891D01*
X84737288Y-86126206D01*
X84720507Y-86122639D01*
X84658033Y-86088912D01*
X84623711Y-86026763D01*
X84628437Y-85955924D01*
X84657607Y-85910297D01*
X86463515Y-84104389D01*
X86525827Y-84070363D01*
X86552610Y-84067484D01*
X86916784Y-84067484D01*
X86984905Y-84087486D01*
X87004131Y-84103827D01*
X87004404Y-84103524D01*
X87009316Y-84107947D01*
X87013731Y-84112850D01*
X87030696Y-84125176D01*
X87091143Y-84169093D01*
X87168232Y-84225102D01*
X87174260Y-84227786D01*
X87174262Y-84227787D01*
X87292775Y-84280552D01*
X87342696Y-84302778D01*
X87436096Y-84322631D01*
X87523040Y-84341112D01*
X87523045Y-84341112D01*
X87529497Y-84342484D01*
X87720471Y-84342484D01*
X87726923Y-84341112D01*
X87726928Y-84341112D01*
X87813872Y-84322631D01*
X87907272Y-84302778D01*
X87957193Y-84280552D01*
X88075706Y-84227787D01*
X88075708Y-84227786D01*
X88081736Y-84225102D01*
X88236237Y-84112850D01*
X88272304Y-84072794D01*
X88359605Y-83975836D01*
X88359606Y-83975835D01*
X88364024Y-83970928D01*
X88450555Y-83821053D01*
X88456207Y-83811263D01*
X88456208Y-83811262D01*
X88459511Y-83805540D01*
X88518526Y-83623912D01*
X88538488Y-83433984D01*
X88518526Y-83244056D01*
X88467188Y-83086055D01*
X88465160Y-83015088D01*
X88501823Y-82954290D01*
X88565535Y-82922964D01*
X88628356Y-82928092D01*
X88661671Y-82939661D01*
X88667606Y-82940522D01*
X88667608Y-82940522D01*
X88865064Y-82969152D01*
X88865067Y-82969152D01*
X88871004Y-82970013D01*
X89082299Y-82960233D01*
X89215664Y-82928092D01*
X89282101Y-82912081D01*
X89282103Y-82912080D01*
X89287934Y-82910675D01*
X89293392Y-82908193D01*
X89293396Y-82908192D01*
X89428335Y-82846838D01*
X89480487Y-82823126D01*
X89653011Y-82700746D01*
X89799281Y-82547950D01*
X89914020Y-82370252D01*
X89993086Y-82174063D01*
X90033628Y-81966463D01*
X90033900Y-81960901D01*
X90033900Y-81910646D01*
X90356900Y-81910646D01*
X90371948Y-82068366D01*
X90431492Y-82271334D01*
X90434236Y-82276661D01*
X90434236Y-82276662D01*
X90513774Y-82431094D01*
X90528342Y-82459380D01*
X90659004Y-82625720D01*
X90663535Y-82629652D01*
X90663538Y-82629655D01*
X90749458Y-82704212D01*
X90818763Y-82764352D01*
X90823949Y-82767352D01*
X90823953Y-82767355D01*
X90920357Y-82823126D01*
X91001854Y-82870273D01*
X91201671Y-82939661D01*
X91207609Y-82940522D01*
X91217127Y-82941902D01*
X91281673Y-82971470D01*
X91319987Y-83031241D01*
X91319903Y-83102238D01*
X91281450Y-83161919D01*
X91265072Y-83173915D01*
X91197853Y-83215268D01*
X91197846Y-83215274D01*
X91191852Y-83218961D01*
X91075080Y-83333313D01*
X90986545Y-83470694D01*
X90984136Y-83477314D01*
X90984135Y-83477315D01*
X90970785Y-83513994D01*
X90930646Y-83624275D01*
X90910161Y-83786424D01*
X90926110Y-83949082D01*
X90928334Y-83955767D01*
X90928334Y-83955768D01*
X90940992Y-83993819D01*
X90977699Y-84104165D01*
X90981348Y-84110190D01*
X91056676Y-84234570D01*
X91062365Y-84243964D01*
X91067256Y-84249029D01*
X91067257Y-84249030D01*
X91116568Y-84300093D01*
X91175898Y-84361531D01*
X91181790Y-84365386D01*
X91181794Y-84365390D01*
X91265753Y-84420331D01*
X91312657Y-84451024D01*
X91348332Y-84464291D01*
X91459248Y-84505540D01*
X91459251Y-84505541D01*
X91465845Y-84507993D01*
X91472822Y-84508924D01*
X91620866Y-84528678D01*
X91620870Y-84528678D01*
X91627847Y-84529609D01*
X91634858Y-84528971D01*
X91634862Y-84528971D01*
X91783591Y-84515435D01*
X91790612Y-84514796D01*
X91797314Y-84512618D01*
X91797316Y-84512618D01*
X91939352Y-84466468D01*
X91939355Y-84466467D01*
X91946051Y-84464291D01*
X91974775Y-84447168D01*
X92080386Y-84384212D01*
X92080388Y-84384211D01*
X92086438Y-84380604D01*
X92204795Y-84267894D01*
X92222289Y-84241564D01*
X97463361Y-84241564D01*
X97479310Y-84404222D01*
X97481534Y-84410907D01*
X97481534Y-84410908D01*
X97493596Y-84447168D01*
X97530899Y-84559305D01*
X97615565Y-84699104D01*
X97729098Y-84816671D01*
X97734990Y-84820526D01*
X97734994Y-84820530D01*
X97803936Y-84865644D01*
X97865857Y-84906164D01*
X97901532Y-84919431D01*
X98012448Y-84960680D01*
X98012451Y-84960681D01*
X98019045Y-84963133D01*
X98026022Y-84964064D01*
X98174066Y-84983818D01*
X98174070Y-84983818D01*
X98181047Y-84984749D01*
X98188058Y-84984111D01*
X98188062Y-84984111D01*
X98336791Y-84970575D01*
X98343812Y-84969936D01*
X98350514Y-84967758D01*
X98350516Y-84967758D01*
X98492552Y-84921608D01*
X98492555Y-84921607D01*
X98499251Y-84919431D01*
X98558250Y-84884261D01*
X98633586Y-84839352D01*
X98633588Y-84839351D01*
X98639638Y-84835744D01*
X98757995Y-84723034D01*
X98848440Y-84586903D01*
X98876658Y-84512618D01*
X98903978Y-84440700D01*
X98903979Y-84440695D01*
X98906478Y-84434117D01*
X98910664Y-84404333D01*
X98928673Y-84276193D01*
X98928673Y-84276188D01*
X98929224Y-84272270D01*
X98929510Y-84251800D01*
X98919688Y-84164234D01*
X98912077Y-84096377D01*
X98912076Y-84096375D01*
X98911292Y-84089381D01*
X98857542Y-83935034D01*
X98800174Y-83843224D01*
X98774666Y-83802402D01*
X98774664Y-83802400D01*
X98770934Y-83796430D01*
X98765972Y-83791433D01*
X98660733Y-83685457D01*
X98660729Y-83685454D01*
X98655770Y-83680460D01*
X98639936Y-83670411D01*
X98593964Y-83641237D01*
X98517774Y-83592885D01*
X98493235Y-83584147D01*
X98370441Y-83540422D01*
X98370436Y-83540421D01*
X98363806Y-83538060D01*
X98356818Y-83537227D01*
X98356815Y-83537226D01*
X98217510Y-83520615D01*
X98201518Y-83518708D01*
X98194515Y-83519444D01*
X98194514Y-83519444D01*
X98045975Y-83535056D01*
X98045973Y-83535057D01*
X98038975Y-83535792D01*
X97957673Y-83563469D01*
X97890927Y-83586191D01*
X97890924Y-83586192D01*
X97884257Y-83588462D01*
X97745052Y-83674101D01*
X97628280Y-83788453D01*
X97539745Y-83925834D01*
X97537336Y-83932454D01*
X97537335Y-83932455D01*
X97533834Y-83942073D01*
X97483846Y-84079415D01*
X97463361Y-84241564D01*
X92222289Y-84241564D01*
X92295240Y-84131763D01*
X92342812Y-84006530D01*
X92350778Y-83985560D01*
X92350779Y-83985555D01*
X92353278Y-83978977D01*
X92356540Y-83955768D01*
X92375473Y-83821053D01*
X92375473Y-83821048D01*
X92376024Y-83817130D01*
X92376310Y-83796660D01*
X92358092Y-83634241D01*
X92304342Y-83479894D01*
X92235837Y-83370261D01*
X92221466Y-83347262D01*
X92221464Y-83347260D01*
X92217734Y-83341290D01*
X92212772Y-83336293D01*
X92107533Y-83230317D01*
X92107529Y-83230314D01*
X92102570Y-83225320D01*
X91964574Y-83137745D01*
X91917748Y-83121071D01*
X91901297Y-83115213D01*
X91843832Y-83073519D01*
X91818032Y-83007377D01*
X91832087Y-82937785D01*
X91881535Y-82886840D01*
X91891412Y-82881813D01*
X91907646Y-82874432D01*
X92020487Y-82823126D01*
X92193011Y-82700746D01*
X92339281Y-82547950D01*
X92454020Y-82370252D01*
X92533086Y-82174063D01*
X92573628Y-81966463D01*
X92573900Y-81960901D01*
X92573900Y-81910646D01*
X92896900Y-81910646D01*
X92911948Y-82068366D01*
X92971492Y-82271334D01*
X92974236Y-82276661D01*
X92974236Y-82276662D01*
X93053774Y-82431094D01*
X93068342Y-82459380D01*
X93199004Y-82625720D01*
X93203535Y-82629652D01*
X93203538Y-82629655D01*
X93289458Y-82704212D01*
X93358763Y-82764352D01*
X93363949Y-82767352D01*
X93363953Y-82767355D01*
X93460357Y-82823126D01*
X93541854Y-82870273D01*
X93741671Y-82939661D01*
X93747606Y-82940522D01*
X93747608Y-82940522D01*
X93945064Y-82969152D01*
X93945067Y-82969152D01*
X93951004Y-82970013D01*
X94162299Y-82960233D01*
X94295664Y-82928092D01*
X94362101Y-82912081D01*
X94362103Y-82912080D01*
X94367934Y-82910675D01*
X94373392Y-82908193D01*
X94373396Y-82908192D01*
X94508335Y-82846838D01*
X94560487Y-82823126D01*
X94733011Y-82700746D01*
X94879281Y-82547950D01*
X94994020Y-82370252D01*
X95073086Y-82174063D01*
X95113628Y-81966463D01*
X95113900Y-81960901D01*
X95113900Y-81910646D01*
X95436900Y-81910646D01*
X95451948Y-82068366D01*
X95511492Y-82271334D01*
X95514236Y-82276661D01*
X95514236Y-82276662D01*
X95593774Y-82431094D01*
X95608342Y-82459380D01*
X95739004Y-82625720D01*
X95743535Y-82629652D01*
X95743538Y-82629655D01*
X95829458Y-82704212D01*
X95898763Y-82764352D01*
X95903949Y-82767352D01*
X95903953Y-82767355D01*
X96000357Y-82823126D01*
X96081854Y-82870273D01*
X96281671Y-82939661D01*
X96287606Y-82940522D01*
X96287608Y-82940522D01*
X96485064Y-82969152D01*
X96485067Y-82969152D01*
X96491004Y-82970013D01*
X96702299Y-82960233D01*
X96835664Y-82928092D01*
X96902101Y-82912081D01*
X96902103Y-82912080D01*
X96907934Y-82910675D01*
X96913392Y-82908193D01*
X96913396Y-82908192D01*
X97048335Y-82846838D01*
X97100487Y-82823126D01*
X97273011Y-82700746D01*
X97419281Y-82547950D01*
X97534020Y-82370252D01*
X97613086Y-82174063D01*
X97653628Y-81966463D01*
X97653900Y-81960901D01*
X97653900Y-81910646D01*
X97976900Y-81910646D01*
X97991948Y-82068366D01*
X98051492Y-82271334D01*
X98054236Y-82276661D01*
X98054236Y-82276662D01*
X98133774Y-82431094D01*
X98148342Y-82459380D01*
X98279004Y-82625720D01*
X98283535Y-82629652D01*
X98283538Y-82629655D01*
X98369458Y-82704212D01*
X98438763Y-82764352D01*
X98443949Y-82767352D01*
X98443953Y-82767355D01*
X98540357Y-82823126D01*
X98621854Y-82870273D01*
X98821671Y-82939661D01*
X98827606Y-82940522D01*
X98827608Y-82940522D01*
X99025064Y-82969152D01*
X99025067Y-82969152D01*
X99031004Y-82970013D01*
X99242299Y-82960233D01*
X99375664Y-82928092D01*
X99442101Y-82912081D01*
X99442103Y-82912080D01*
X99447934Y-82910675D01*
X99453392Y-82908193D01*
X99453396Y-82908192D01*
X99588335Y-82846838D01*
X99640487Y-82823126D01*
X99813011Y-82700746D01*
X99959281Y-82547950D01*
X100074020Y-82370252D01*
X100153086Y-82174063D01*
X100193628Y-81966463D01*
X100193900Y-81960901D01*
X100193900Y-81910646D01*
X100516900Y-81910646D01*
X100531948Y-82068366D01*
X100591492Y-82271334D01*
X100594236Y-82276661D01*
X100594236Y-82276662D01*
X100673774Y-82431094D01*
X100688342Y-82459380D01*
X100819004Y-82625720D01*
X100823535Y-82629652D01*
X100823538Y-82629655D01*
X100909458Y-82704212D01*
X100978763Y-82764352D01*
X100983949Y-82767352D01*
X100983953Y-82767355D01*
X101080357Y-82823126D01*
X101161854Y-82870273D01*
X101361671Y-82939661D01*
X101367606Y-82940522D01*
X101367608Y-82940522D01*
X101565064Y-82969152D01*
X101565067Y-82969152D01*
X101571004Y-82970013D01*
X101782299Y-82960233D01*
X101915664Y-82928092D01*
X101982101Y-82912081D01*
X101982103Y-82912080D01*
X101987934Y-82910675D01*
X101993392Y-82908193D01*
X101993396Y-82908192D01*
X102128335Y-82846838D01*
X102180487Y-82823126D01*
X102353011Y-82700746D01*
X102499281Y-82547950D01*
X102614020Y-82370252D01*
X102693086Y-82174063D01*
X102733628Y-81966463D01*
X102733900Y-81960901D01*
X102733900Y-81910646D01*
X103056900Y-81910646D01*
X103071948Y-82068366D01*
X103131492Y-82271334D01*
X103134236Y-82276661D01*
X103134236Y-82276662D01*
X103213774Y-82431094D01*
X103228342Y-82459380D01*
X103359004Y-82625720D01*
X103363535Y-82629652D01*
X103363538Y-82629655D01*
X103449458Y-82704212D01*
X103518763Y-82764352D01*
X103523949Y-82767352D01*
X103523953Y-82767355D01*
X103620357Y-82823126D01*
X103701854Y-82870273D01*
X103901671Y-82939661D01*
X103907606Y-82940522D01*
X103907608Y-82940522D01*
X104105064Y-82969152D01*
X104105067Y-82969152D01*
X104111004Y-82970013D01*
X104322299Y-82960233D01*
X104455664Y-82928092D01*
X104522101Y-82912081D01*
X104522103Y-82912080D01*
X104527934Y-82910675D01*
X104533392Y-82908193D01*
X104533396Y-82908192D01*
X104668335Y-82846838D01*
X104720487Y-82823126D01*
X104893011Y-82700746D01*
X105039281Y-82547950D01*
X105154020Y-82370252D01*
X105233086Y-82174063D01*
X105273628Y-81966463D01*
X105273900Y-81960901D01*
X105273900Y-81910646D01*
X105596900Y-81910646D01*
X105611948Y-82068366D01*
X105671492Y-82271334D01*
X105674236Y-82276661D01*
X105674236Y-82276662D01*
X105753774Y-82431094D01*
X105768342Y-82459380D01*
X105899004Y-82625720D01*
X105903535Y-82629652D01*
X105903538Y-82629655D01*
X105989458Y-82704212D01*
X106058763Y-82764352D01*
X106063949Y-82767352D01*
X106063953Y-82767355D01*
X106160357Y-82823126D01*
X106241854Y-82870273D01*
X106441671Y-82939661D01*
X106447606Y-82940522D01*
X106447608Y-82940522D01*
X106645064Y-82969152D01*
X106645067Y-82969152D01*
X106651004Y-82970013D01*
X106862299Y-82960233D01*
X106995664Y-82928092D01*
X107062101Y-82912081D01*
X107062103Y-82912080D01*
X107067934Y-82910675D01*
X107073392Y-82908193D01*
X107073396Y-82908192D01*
X107208335Y-82846838D01*
X107260487Y-82823126D01*
X107433011Y-82700746D01*
X107579281Y-82547950D01*
X107694020Y-82370252D01*
X107773086Y-82174063D01*
X107813628Y-81966463D01*
X107813900Y-81960901D01*
X107813900Y-81910646D01*
X108136900Y-81910646D01*
X108151948Y-82068366D01*
X108211492Y-82271334D01*
X108214236Y-82276661D01*
X108214236Y-82276662D01*
X108293774Y-82431094D01*
X108308342Y-82459380D01*
X108439004Y-82625720D01*
X108443535Y-82629652D01*
X108443538Y-82629655D01*
X108529458Y-82704212D01*
X108598763Y-82764352D01*
X108603949Y-82767352D01*
X108603953Y-82767355D01*
X108700357Y-82823126D01*
X108781854Y-82870273D01*
X108981671Y-82939661D01*
X108987606Y-82940522D01*
X108987608Y-82940522D01*
X109185064Y-82969152D01*
X109185067Y-82969152D01*
X109191004Y-82970013D01*
X109402299Y-82960233D01*
X109535664Y-82928092D01*
X109602101Y-82912081D01*
X109602103Y-82912080D01*
X109607934Y-82910675D01*
X109613392Y-82908193D01*
X109613396Y-82908192D01*
X109748335Y-82846838D01*
X109800487Y-82823126D01*
X109973011Y-82700746D01*
X110119281Y-82547950D01*
X110234020Y-82370252D01*
X110278662Y-82259481D01*
X110676899Y-82259481D01*
X110677398Y-82263414D01*
X110677398Y-82263421D01*
X110679077Y-82276662D01*
X110687811Y-82345559D01*
X110743669Y-82480081D01*
X110748836Y-82486730D01*
X110748837Y-82486732D01*
X110770877Y-82515094D01*
X110796363Y-82547891D01*
X111095311Y-82846838D01*
X111163891Y-82899988D01*
X111261748Y-82940422D01*
X111317067Y-82984921D01*
X111339547Y-83052265D01*
X111322049Y-83121071D01*
X111301789Y-83146895D01*
X111223165Y-83223890D01*
X111217280Y-83229653D01*
X111128745Y-83367034D01*
X111126336Y-83373654D01*
X111126335Y-83373655D01*
X111106767Y-83427419D01*
X111072846Y-83520615D01*
X111052361Y-83682764D01*
X111068310Y-83845422D01*
X111070534Y-83852107D01*
X111070534Y-83852108D01*
X111093090Y-83919913D01*
X111119899Y-84000505D01*
X111123548Y-84006530D01*
X111182474Y-84103827D01*
X111204565Y-84140304D01*
X111318098Y-84257871D01*
X111323990Y-84261726D01*
X111323994Y-84261730D01*
X111388819Y-84304150D01*
X111454857Y-84347364D01*
X111490532Y-84360631D01*
X111601448Y-84401880D01*
X111601451Y-84401881D01*
X111608045Y-84404333D01*
X111615022Y-84405264D01*
X111763066Y-84425018D01*
X111763070Y-84425018D01*
X111770047Y-84425949D01*
X111777058Y-84425311D01*
X111777062Y-84425311D01*
X111925791Y-84411775D01*
X111932812Y-84411136D01*
X111939514Y-84408958D01*
X111939516Y-84408958D01*
X112081552Y-84362808D01*
X112081555Y-84362807D01*
X112088251Y-84360631D01*
X112120995Y-84341112D01*
X112222586Y-84280552D01*
X112222588Y-84280551D01*
X112228638Y-84276944D01*
X112346995Y-84164234D01*
X112437440Y-84028103D01*
X112464918Y-83955768D01*
X112492978Y-83881900D01*
X112492979Y-83881895D01*
X112495478Y-83875317D01*
X112498740Y-83852108D01*
X112517673Y-83717393D01*
X112517673Y-83717388D01*
X112518224Y-83713470D01*
X112518510Y-83693000D01*
X112507704Y-83596664D01*
X112501077Y-83537577D01*
X112501076Y-83537575D01*
X112500292Y-83530581D01*
X112446542Y-83376234D01*
X112389174Y-83284424D01*
X112363666Y-83243602D01*
X112363664Y-83243600D01*
X112359934Y-83237630D01*
X112352672Y-83230317D01*
X112268400Y-83145455D01*
X112234593Y-83083024D01*
X112239905Y-83012227D01*
X112282649Y-82955540D01*
X112309484Y-82940306D01*
X112386823Y-82908192D01*
X112399903Y-82902761D01*
X112399905Y-82902760D01*
X112407681Y-82899531D01*
X112475491Y-82846837D01*
X112774438Y-82547889D01*
X112827588Y-82479309D01*
X112883211Y-82344691D01*
X112891745Y-82276661D01*
X112893410Y-82263391D01*
X112893410Y-82263387D01*
X112893900Y-82259483D01*
X112893901Y-80656119D01*
X112893128Y-80650014D01*
X112884050Y-80578408D01*
X112884049Y-80578406D01*
X112882989Y-80570041D01*
X112827131Y-80435519D01*
X112774437Y-80367709D01*
X112475489Y-80068762D01*
X112406909Y-80015612D01*
X112272291Y-79959989D01*
X112263931Y-79958940D01*
X112263930Y-79958940D01*
X112190991Y-79949790D01*
X112190987Y-79949790D01*
X112187083Y-79949300D01*
X111787280Y-79949300D01*
X111387693Y-79949299D01*
X111383719Y-79949299D01*
X111379786Y-79949798D01*
X111379779Y-79949798D01*
X111306008Y-79959150D01*
X111306006Y-79959151D01*
X111297641Y-79960211D01*
X111163119Y-80016069D01*
X111095309Y-80068763D01*
X110796362Y-80367711D01*
X110743212Y-80436291D01*
X110687589Y-80570909D01*
X110686540Y-80579269D01*
X110686540Y-80579270D01*
X110677666Y-80650014D01*
X110676900Y-80656117D01*
X110676899Y-82259481D01*
X110278662Y-82259481D01*
X110313086Y-82174063D01*
X110353628Y-81966463D01*
X110353900Y-81960901D01*
X110353900Y-81004954D01*
X110338852Y-80847234D01*
X110279308Y-80644266D01*
X110182458Y-80456220D01*
X110051796Y-80289880D01*
X110047265Y-80285948D01*
X110047262Y-80285945D01*
X109896567Y-80155179D01*
X109892037Y-80151248D01*
X109886851Y-80148248D01*
X109886847Y-80148245D01*
X109714142Y-80048333D01*
X109708946Y-80045327D01*
X109509129Y-79975939D01*
X109503194Y-79975078D01*
X109503192Y-79975078D01*
X109305736Y-79946448D01*
X109305733Y-79946448D01*
X109299796Y-79945587D01*
X109088501Y-79955367D01*
X108957323Y-79986981D01*
X108888699Y-80003519D01*
X108888697Y-80003520D01*
X108882866Y-80004925D01*
X108877408Y-80007407D01*
X108877404Y-80007408D01*
X108762359Y-80059716D01*
X108690313Y-80092474D01*
X108517789Y-80214854D01*
X108371519Y-80367650D01*
X108256780Y-80545348D01*
X108177714Y-80741537D01*
X108137172Y-80949137D01*
X108136900Y-80954699D01*
X108136900Y-81910646D01*
X107813900Y-81910646D01*
X107813900Y-81004954D01*
X107798852Y-80847234D01*
X107739308Y-80644266D01*
X107642458Y-80456220D01*
X107511796Y-80289880D01*
X107507265Y-80285948D01*
X107507262Y-80285945D01*
X107356567Y-80155179D01*
X107352037Y-80151248D01*
X107346851Y-80148248D01*
X107346847Y-80148245D01*
X107174142Y-80048333D01*
X107168946Y-80045327D01*
X106969129Y-79975939D01*
X106963194Y-79975078D01*
X106963192Y-79975078D01*
X106765736Y-79946448D01*
X106765733Y-79946448D01*
X106759796Y-79945587D01*
X106548501Y-79955367D01*
X106417323Y-79986981D01*
X106348699Y-80003519D01*
X106348697Y-80003520D01*
X106342866Y-80004925D01*
X106337408Y-80007407D01*
X106337404Y-80007408D01*
X106222359Y-80059716D01*
X106150313Y-80092474D01*
X105977789Y-80214854D01*
X105831519Y-80367650D01*
X105716780Y-80545348D01*
X105637714Y-80741537D01*
X105597172Y-80949137D01*
X105596900Y-80954699D01*
X105596900Y-81910646D01*
X105273900Y-81910646D01*
X105273900Y-81004954D01*
X105258852Y-80847234D01*
X105199308Y-80644266D01*
X105102458Y-80456220D01*
X104971796Y-80289880D01*
X104967265Y-80285948D01*
X104967262Y-80285945D01*
X104816567Y-80155179D01*
X104812037Y-80151248D01*
X104806851Y-80148248D01*
X104806847Y-80148245D01*
X104634142Y-80048333D01*
X104628946Y-80045327D01*
X104429129Y-79975939D01*
X104423194Y-79975078D01*
X104423192Y-79975078D01*
X104225736Y-79946448D01*
X104225733Y-79946448D01*
X104219796Y-79945587D01*
X104008501Y-79955367D01*
X103877323Y-79986981D01*
X103808699Y-80003519D01*
X103808697Y-80003520D01*
X103802866Y-80004925D01*
X103797408Y-80007407D01*
X103797404Y-80007408D01*
X103682359Y-80059716D01*
X103610313Y-80092474D01*
X103437789Y-80214854D01*
X103291519Y-80367650D01*
X103176780Y-80545348D01*
X103097714Y-80741537D01*
X103057172Y-80949137D01*
X103056900Y-80954699D01*
X103056900Y-81910646D01*
X102733900Y-81910646D01*
X102733900Y-81004954D01*
X102718852Y-80847234D01*
X102659308Y-80644266D01*
X102562458Y-80456220D01*
X102431796Y-80289880D01*
X102427265Y-80285948D01*
X102427262Y-80285945D01*
X102276567Y-80155179D01*
X102272037Y-80151248D01*
X102266851Y-80148248D01*
X102266847Y-80148245D01*
X102094142Y-80048333D01*
X102088946Y-80045327D01*
X101889129Y-79975939D01*
X101883194Y-79975078D01*
X101883192Y-79975078D01*
X101685736Y-79946448D01*
X101685733Y-79946448D01*
X101679796Y-79945587D01*
X101468501Y-79955367D01*
X101337323Y-79986981D01*
X101268699Y-80003519D01*
X101268697Y-80003520D01*
X101262866Y-80004925D01*
X101257408Y-80007407D01*
X101257404Y-80007408D01*
X101142359Y-80059716D01*
X101070313Y-80092474D01*
X100897789Y-80214854D01*
X100751519Y-80367650D01*
X100636780Y-80545348D01*
X100557714Y-80741537D01*
X100517172Y-80949137D01*
X100516900Y-80954699D01*
X100516900Y-81910646D01*
X100193900Y-81910646D01*
X100193900Y-81004954D01*
X100178852Y-80847234D01*
X100119308Y-80644266D01*
X100022458Y-80456220D01*
X99891796Y-80289880D01*
X99887265Y-80285948D01*
X99887262Y-80285945D01*
X99736567Y-80155179D01*
X99732037Y-80151248D01*
X99726851Y-80148248D01*
X99726847Y-80148245D01*
X99554142Y-80048333D01*
X99548946Y-80045327D01*
X99349129Y-79975939D01*
X99343194Y-79975078D01*
X99343192Y-79975078D01*
X99145736Y-79946448D01*
X99145733Y-79946448D01*
X99139796Y-79945587D01*
X98928501Y-79955367D01*
X98797323Y-79986981D01*
X98728699Y-80003519D01*
X98728697Y-80003520D01*
X98722866Y-80004925D01*
X98717408Y-80007407D01*
X98717404Y-80007408D01*
X98602359Y-80059716D01*
X98530313Y-80092474D01*
X98357789Y-80214854D01*
X98211519Y-80367650D01*
X98096780Y-80545348D01*
X98017714Y-80741537D01*
X97977172Y-80949137D01*
X97976900Y-80954699D01*
X97976900Y-81910646D01*
X97653900Y-81910646D01*
X97653900Y-81004954D01*
X97638852Y-80847234D01*
X97579308Y-80644266D01*
X97482458Y-80456220D01*
X97351796Y-80289880D01*
X97347265Y-80285948D01*
X97347262Y-80285945D01*
X97196567Y-80155179D01*
X97192037Y-80151248D01*
X97186851Y-80148248D01*
X97186847Y-80148245D01*
X97014142Y-80048333D01*
X97008946Y-80045327D01*
X96809129Y-79975939D01*
X96803194Y-79975078D01*
X96803192Y-79975078D01*
X96605736Y-79946448D01*
X96605733Y-79946448D01*
X96599796Y-79945587D01*
X96388501Y-79955367D01*
X96257323Y-79986981D01*
X96188699Y-80003519D01*
X96188697Y-80003520D01*
X96182866Y-80004925D01*
X96177408Y-80007407D01*
X96177404Y-80007408D01*
X96062359Y-80059716D01*
X95990313Y-80092474D01*
X95817789Y-80214854D01*
X95671519Y-80367650D01*
X95556780Y-80545348D01*
X95477714Y-80741537D01*
X95437172Y-80949137D01*
X95436900Y-80954699D01*
X95436900Y-81910646D01*
X95113900Y-81910646D01*
X95113900Y-81004954D01*
X95098852Y-80847234D01*
X95039308Y-80644266D01*
X94942458Y-80456220D01*
X94811796Y-80289880D01*
X94807265Y-80285948D01*
X94807262Y-80285945D01*
X94656567Y-80155179D01*
X94652037Y-80151248D01*
X94646851Y-80148248D01*
X94646847Y-80148245D01*
X94474142Y-80048333D01*
X94468946Y-80045327D01*
X94269129Y-79975939D01*
X94263194Y-79975078D01*
X94263192Y-79975078D01*
X94065736Y-79946448D01*
X94065733Y-79946448D01*
X94059796Y-79945587D01*
X93848501Y-79955367D01*
X93717323Y-79986981D01*
X93648699Y-80003519D01*
X93648697Y-80003520D01*
X93642866Y-80004925D01*
X93637408Y-80007407D01*
X93637404Y-80007408D01*
X93522359Y-80059716D01*
X93450313Y-80092474D01*
X93277789Y-80214854D01*
X93131519Y-80367650D01*
X93016780Y-80545348D01*
X92937714Y-80741537D01*
X92897172Y-80949137D01*
X92896900Y-80954699D01*
X92896900Y-81910646D01*
X92573900Y-81910646D01*
X92573900Y-81004954D01*
X92558852Y-80847234D01*
X92499308Y-80644266D01*
X92402458Y-80456220D01*
X92271796Y-80289880D01*
X92267265Y-80285948D01*
X92267262Y-80285945D01*
X92116567Y-80155179D01*
X92112037Y-80151248D01*
X92106851Y-80148248D01*
X92106847Y-80148245D01*
X91934142Y-80048333D01*
X91928946Y-80045327D01*
X91729129Y-79975939D01*
X91723194Y-79975078D01*
X91723192Y-79975078D01*
X91525736Y-79946448D01*
X91525733Y-79946448D01*
X91519796Y-79945587D01*
X91308501Y-79955367D01*
X91177323Y-79986981D01*
X91108699Y-80003519D01*
X91108697Y-80003520D01*
X91102866Y-80004925D01*
X91097408Y-80007407D01*
X91097404Y-80007408D01*
X90982359Y-80059716D01*
X90910313Y-80092474D01*
X90737789Y-80214854D01*
X90591519Y-80367650D01*
X90476780Y-80545348D01*
X90397714Y-80741537D01*
X90357172Y-80949137D01*
X90356900Y-80954699D01*
X90356900Y-81910646D01*
X90033900Y-81910646D01*
X90033900Y-81004954D01*
X90018852Y-80847234D01*
X89959308Y-80644266D01*
X89862458Y-80456220D01*
X89731796Y-80289880D01*
X89727265Y-80285948D01*
X89727262Y-80285945D01*
X89576567Y-80155179D01*
X89572037Y-80151248D01*
X89566851Y-80148248D01*
X89566847Y-80148245D01*
X89394142Y-80048333D01*
X89388946Y-80045327D01*
X89189129Y-79975939D01*
X89183194Y-79975078D01*
X89183192Y-79975078D01*
X88985736Y-79946448D01*
X88985733Y-79946448D01*
X88979796Y-79945587D01*
X88768501Y-79955367D01*
X88637323Y-79986981D01*
X88568699Y-80003519D01*
X88568697Y-80003520D01*
X88562866Y-80004925D01*
X88557408Y-80007407D01*
X88557404Y-80007408D01*
X88442359Y-80059716D01*
X88370313Y-80092474D01*
X88197789Y-80214854D01*
X88051519Y-80367650D01*
X87936780Y-80545348D01*
X87857714Y-80741537D01*
X87817172Y-80949137D01*
X87816900Y-80954699D01*
X87816900Y-81910646D01*
X87831948Y-82068366D01*
X87891492Y-82271334D01*
X87937867Y-82361376D01*
X87951276Y-82431094D01*
X87924863Y-82496995D01*
X87867015Y-82538154D01*
X87799654Y-82542315D01*
X87726928Y-82526856D01*
X87726923Y-82526856D01*
X87720471Y-82525484D01*
X87529497Y-82525484D01*
X87523037Y-82526857D01*
X87523038Y-82526857D01*
X87522580Y-82526954D01*
X87522309Y-82526933D01*
X87516469Y-82527547D01*
X87516357Y-82526479D01*
X87451789Y-82521551D01*
X87395157Y-82478734D01*
X87370664Y-82412097D01*
X87379518Y-82356609D01*
X87383972Y-82345559D01*
X87453086Y-82174063D01*
X87493628Y-81966463D01*
X87493900Y-81960901D01*
X87493900Y-81004954D01*
X87478852Y-80847234D01*
X87419308Y-80644266D01*
X87322458Y-80456220D01*
X87191796Y-80289880D01*
X87187265Y-80285948D01*
X87187262Y-80285945D01*
X87036567Y-80155179D01*
X87032037Y-80151248D01*
X87026851Y-80148248D01*
X87026847Y-80148245D01*
X86854142Y-80048333D01*
X86848946Y-80045327D01*
X86649129Y-79975939D01*
X86643194Y-79975078D01*
X86643192Y-79975078D01*
X86445736Y-79946448D01*
X86445733Y-79946448D01*
X86439796Y-79945587D01*
X86228501Y-79955367D01*
X86097323Y-79986981D01*
X86028699Y-80003519D01*
X86028697Y-80003520D01*
X86022866Y-80004925D01*
X86017408Y-80007407D01*
X86017404Y-80007408D01*
X85902359Y-80059716D01*
X85830313Y-80092474D01*
X85657789Y-80214854D01*
X85511519Y-80367650D01*
X85396780Y-80545348D01*
X85317714Y-80741537D01*
X85277172Y-80949137D01*
X85276900Y-80954699D01*
X85276900Y-81910646D01*
X85291948Y-82068366D01*
X85351492Y-82271334D01*
X85354236Y-82276661D01*
X85354236Y-82276662D01*
X85433774Y-82431094D01*
X85448342Y-82459380D01*
X85579004Y-82625720D01*
X85583535Y-82629652D01*
X85583538Y-82629655D01*
X85669458Y-82704212D01*
X85738763Y-82764352D01*
X85766076Y-82780153D01*
X85815023Y-82831576D01*
X85828399Y-82901301D01*
X85800065Y-82969531D01*
X85772718Y-83002588D01*
X85764728Y-83011368D01*
X82919747Y-85856348D01*
X82911461Y-85863888D01*
X82904982Y-85868000D01*
X82899557Y-85873777D01*
X82858357Y-85917651D01*
X82855602Y-85920493D01*
X82835865Y-85940230D01*
X82833385Y-85943427D01*
X82825682Y-85952447D01*
X82795414Y-85984679D01*
X82791595Y-85991625D01*
X82791593Y-85991628D01*
X82785652Y-86002434D01*
X82774801Y-86018953D01*
X82762386Y-86034959D01*
X82759241Y-86042228D01*
X82759238Y-86042232D01*
X82744826Y-86075537D01*
X82739609Y-86086187D01*
X82718305Y-86124940D01*
X82716334Y-86132615D01*
X82716334Y-86132616D01*
X82713267Y-86144562D01*
X82706863Y-86163266D01*
X82698819Y-86181855D01*
X82697580Y-86189678D01*
X82697577Y-86189688D01*
X82691901Y-86225524D01*
X82689495Y-86237144D01*
X82680472Y-86272289D01*
X82678500Y-86279970D01*
X82678500Y-86300224D01*
X82676949Y-86319934D01*
X82673780Y-86339943D01*
X63891237Y-86339943D01*
X63937186Y-86312552D01*
X63937188Y-86312551D01*
X63943238Y-86308944D01*
X64061595Y-86196234D01*
X64152040Y-86060103D01*
X64170648Y-86011117D01*
X64207578Y-85913900D01*
X64207579Y-85913895D01*
X64210078Y-85907317D01*
X64213340Y-85884108D01*
X64232273Y-85749393D01*
X64232273Y-85749388D01*
X64232824Y-85745470D01*
X64233110Y-85725000D01*
X64217717Y-85587764D01*
X65611761Y-85587764D01*
X65627710Y-85750422D01*
X65629934Y-85757107D01*
X65629934Y-85757108D01*
X65653505Y-85827964D01*
X65679299Y-85905505D01*
X65682948Y-85911530D01*
X65757700Y-86034959D01*
X65763965Y-86045304D01*
X65768856Y-86050369D01*
X65768857Y-86050370D01*
X65803456Y-86086198D01*
X65877498Y-86162871D01*
X65883390Y-86166726D01*
X65883394Y-86166730D01*
X65935907Y-86201093D01*
X66014257Y-86252364D01*
X66041900Y-86262644D01*
X66160848Y-86306880D01*
X66160851Y-86306881D01*
X66167445Y-86309333D01*
X66174422Y-86310264D01*
X66322466Y-86330018D01*
X66322470Y-86330018D01*
X66329447Y-86330949D01*
X66336458Y-86330311D01*
X66336462Y-86330311D01*
X66485191Y-86316775D01*
X66492212Y-86316136D01*
X66498914Y-86313958D01*
X66498916Y-86313958D01*
X66640952Y-86267808D01*
X66640955Y-86267807D01*
X66647651Y-86265631D01*
X66653702Y-86262024D01*
X66781986Y-86185552D01*
X66781988Y-86185551D01*
X66788038Y-86181944D01*
X66906395Y-86069234D01*
X66996840Y-85933103D01*
X67010270Y-85897747D01*
X67052378Y-85786900D01*
X67052379Y-85786895D01*
X67054878Y-85780317D01*
X67058140Y-85757108D01*
X67077073Y-85622393D01*
X67077073Y-85622388D01*
X67077624Y-85618470D01*
X67077910Y-85598000D01*
X67059692Y-85435581D01*
X67005942Y-85281234D01*
X66925333Y-85152230D01*
X66923066Y-85148602D01*
X66923064Y-85148600D01*
X66919334Y-85142630D01*
X66914372Y-85137633D01*
X66809133Y-85031657D01*
X66809129Y-85031654D01*
X66804170Y-85026660D01*
X66788336Y-85016611D01*
X66738129Y-84984749D01*
X66666174Y-84939085D01*
X66641635Y-84930347D01*
X66518841Y-84886622D01*
X66518836Y-84886621D01*
X66512206Y-84884260D01*
X66505218Y-84883427D01*
X66505215Y-84883426D01*
X66394276Y-84870197D01*
X66349918Y-84864908D01*
X66342915Y-84865644D01*
X66342914Y-84865644D01*
X66194375Y-84881256D01*
X66194373Y-84881257D01*
X66187375Y-84881992D01*
X66127697Y-84902308D01*
X66039327Y-84932391D01*
X66039324Y-84932392D01*
X66032657Y-84934662D01*
X65893452Y-85020301D01*
X65776680Y-85134653D01*
X65688145Y-85272034D01*
X65685736Y-85278654D01*
X65685735Y-85278655D01*
X65660195Y-85348825D01*
X65632246Y-85425615D01*
X65611761Y-85587764D01*
X64217717Y-85587764D01*
X64214892Y-85562581D01*
X64161142Y-85408234D01*
X64081785Y-85281234D01*
X64078266Y-85275602D01*
X64078264Y-85275600D01*
X64074534Y-85269630D01*
X64069572Y-85264633D01*
X63964333Y-85158657D01*
X63964329Y-85158654D01*
X63959370Y-85153660D01*
X63943536Y-85143611D01*
X63906440Y-85120069D01*
X63821374Y-85066085D01*
X63796835Y-85057347D01*
X63674041Y-85013622D01*
X63674036Y-85013621D01*
X63667406Y-85011260D01*
X63660418Y-85010427D01*
X63660415Y-85010426D01*
X63549476Y-84997197D01*
X63505118Y-84991908D01*
X63498115Y-84992644D01*
X63498114Y-84992644D01*
X63349575Y-85008256D01*
X63349573Y-85008257D01*
X63342575Y-85008992D01*
X63275997Y-85031657D01*
X63194527Y-85059391D01*
X63194524Y-85059392D01*
X63187857Y-85061662D01*
X63048652Y-85147301D01*
X62931880Y-85261653D01*
X62843345Y-85399034D01*
X62840936Y-85405654D01*
X62840935Y-85405655D01*
X62836080Y-85418994D01*
X62787446Y-85552615D01*
X62766961Y-85714764D01*
X61595000Y-85714764D01*
X61595000Y-81910646D01*
X62416900Y-81910646D01*
X62431948Y-82068366D01*
X62491492Y-82271334D01*
X62494236Y-82276661D01*
X62494236Y-82276662D01*
X62573774Y-82431094D01*
X62588342Y-82459380D01*
X62719004Y-82625720D01*
X62723535Y-82629652D01*
X62723538Y-82629655D01*
X62809458Y-82704212D01*
X62878763Y-82764352D01*
X62883949Y-82767352D01*
X62883953Y-82767355D01*
X62980357Y-82823126D01*
X63061854Y-82870273D01*
X63261671Y-82939661D01*
X63267606Y-82940522D01*
X63267608Y-82940522D01*
X63465064Y-82969152D01*
X63465067Y-82969152D01*
X63471004Y-82970013D01*
X63682299Y-82960233D01*
X63815664Y-82928092D01*
X63882101Y-82912081D01*
X63882103Y-82912080D01*
X63887934Y-82910675D01*
X63893392Y-82908193D01*
X63893396Y-82908192D01*
X64028335Y-82846838D01*
X64080487Y-82823126D01*
X64253011Y-82700746D01*
X64399281Y-82547950D01*
X64514020Y-82370252D01*
X64593086Y-82174063D01*
X64633628Y-81966463D01*
X64633900Y-81960901D01*
X64633900Y-81910646D01*
X64956900Y-81910646D01*
X64971948Y-82068366D01*
X65031492Y-82271334D01*
X65034236Y-82276661D01*
X65034236Y-82276662D01*
X65113774Y-82431094D01*
X65128342Y-82459380D01*
X65259004Y-82625720D01*
X65263535Y-82629652D01*
X65263538Y-82629655D01*
X65349458Y-82704212D01*
X65418763Y-82764352D01*
X65423949Y-82767352D01*
X65423953Y-82767355D01*
X65520357Y-82823126D01*
X65601854Y-82870273D01*
X65801671Y-82939661D01*
X65807606Y-82940522D01*
X65807608Y-82940522D01*
X66005064Y-82969152D01*
X66005067Y-82969152D01*
X66011004Y-82970013D01*
X66222299Y-82960233D01*
X66355664Y-82928092D01*
X66422101Y-82912081D01*
X66422103Y-82912080D01*
X66427934Y-82910675D01*
X66433392Y-82908193D01*
X66433396Y-82908192D01*
X66568335Y-82846838D01*
X66620487Y-82823126D01*
X66793011Y-82700746D01*
X66939281Y-82547950D01*
X67054020Y-82370252D01*
X67133086Y-82174063D01*
X67173628Y-81966463D01*
X67173900Y-81960901D01*
X67173900Y-81910646D01*
X67496900Y-81910646D01*
X67511948Y-82068366D01*
X67571492Y-82271334D01*
X67574236Y-82276661D01*
X67574236Y-82276662D01*
X67653774Y-82431094D01*
X67668342Y-82459380D01*
X67799004Y-82625720D01*
X67803535Y-82629652D01*
X67803538Y-82629655D01*
X67889458Y-82704212D01*
X67958763Y-82764352D01*
X67963949Y-82767352D01*
X67963953Y-82767355D01*
X68060357Y-82823126D01*
X68141854Y-82870273D01*
X68341671Y-82939661D01*
X68347606Y-82940522D01*
X68347608Y-82940522D01*
X68545064Y-82969152D01*
X68545067Y-82969152D01*
X68551004Y-82970013D01*
X68762299Y-82960233D01*
X68895664Y-82928092D01*
X68962101Y-82912081D01*
X68962103Y-82912080D01*
X68967934Y-82910675D01*
X68973392Y-82908193D01*
X68973396Y-82908192D01*
X69108335Y-82846838D01*
X69160487Y-82823126D01*
X69333011Y-82700746D01*
X69479281Y-82547950D01*
X69594020Y-82370252D01*
X69673086Y-82174063D01*
X69713628Y-81966463D01*
X69713900Y-81960901D01*
X69713900Y-81910646D01*
X70036900Y-81910646D01*
X70051948Y-82068366D01*
X70111492Y-82271334D01*
X70114236Y-82276661D01*
X70114236Y-82276662D01*
X70193774Y-82431094D01*
X70208342Y-82459380D01*
X70339004Y-82625720D01*
X70343535Y-82629652D01*
X70343538Y-82629655D01*
X70429458Y-82704212D01*
X70498763Y-82764352D01*
X70503949Y-82767352D01*
X70503953Y-82767355D01*
X70600357Y-82823126D01*
X70681854Y-82870273D01*
X70881671Y-82939661D01*
X70887606Y-82940522D01*
X70887608Y-82940522D01*
X71085064Y-82969152D01*
X71085067Y-82969152D01*
X71091004Y-82970013D01*
X71302299Y-82960233D01*
X71435664Y-82928092D01*
X71502101Y-82912081D01*
X71502103Y-82912080D01*
X71507934Y-82910675D01*
X71513392Y-82908193D01*
X71513396Y-82908192D01*
X71648335Y-82846838D01*
X71700487Y-82823126D01*
X71873011Y-82700746D01*
X72019281Y-82547950D01*
X72134020Y-82370252D01*
X72213086Y-82174063D01*
X72253628Y-81966463D01*
X72253900Y-81960901D01*
X72253900Y-81910646D01*
X72576900Y-81910646D01*
X72591948Y-82068366D01*
X72651492Y-82271334D01*
X72654236Y-82276661D01*
X72654236Y-82276662D01*
X72733774Y-82431094D01*
X72748342Y-82459380D01*
X72879004Y-82625720D01*
X72883535Y-82629652D01*
X72883538Y-82629655D01*
X72969458Y-82704212D01*
X73038763Y-82764352D01*
X73043949Y-82767352D01*
X73043953Y-82767355D01*
X73140357Y-82823126D01*
X73221854Y-82870273D01*
X73421671Y-82939661D01*
X73427606Y-82940522D01*
X73427608Y-82940522D01*
X73625064Y-82969152D01*
X73625067Y-82969152D01*
X73631004Y-82970013D01*
X73842299Y-82960233D01*
X73975664Y-82928092D01*
X74042101Y-82912081D01*
X74042103Y-82912080D01*
X74047934Y-82910675D01*
X74053392Y-82908193D01*
X74053396Y-82908192D01*
X74188335Y-82846838D01*
X74240487Y-82823126D01*
X74413011Y-82700746D01*
X74559281Y-82547950D01*
X74674020Y-82370252D01*
X74753086Y-82174063D01*
X74793628Y-81966463D01*
X74793900Y-81960901D01*
X74793900Y-81910646D01*
X75116900Y-81910646D01*
X75131948Y-82068366D01*
X75191492Y-82271334D01*
X75194236Y-82276661D01*
X75194236Y-82276662D01*
X75273774Y-82431094D01*
X75288342Y-82459380D01*
X75419004Y-82625720D01*
X75423535Y-82629652D01*
X75423538Y-82629655D01*
X75509458Y-82704212D01*
X75578763Y-82764352D01*
X75583949Y-82767352D01*
X75583953Y-82767355D01*
X75680357Y-82823126D01*
X75761854Y-82870273D01*
X75961671Y-82939661D01*
X75967606Y-82940522D01*
X75967608Y-82940522D01*
X76165064Y-82969152D01*
X76165067Y-82969152D01*
X76171004Y-82970013D01*
X76382299Y-82960233D01*
X76515664Y-82928092D01*
X76582101Y-82912081D01*
X76582103Y-82912080D01*
X76587934Y-82910675D01*
X76593392Y-82908193D01*
X76593396Y-82908192D01*
X76728335Y-82846838D01*
X76780487Y-82823126D01*
X76953011Y-82700746D01*
X77099281Y-82547950D01*
X77214020Y-82370252D01*
X77293086Y-82174063D01*
X77333628Y-81966463D01*
X77333900Y-81960901D01*
X77333900Y-81910646D01*
X77656900Y-81910646D01*
X77671948Y-82068366D01*
X77731492Y-82271334D01*
X77734236Y-82276661D01*
X77734236Y-82276662D01*
X77813774Y-82431094D01*
X77828342Y-82459380D01*
X77959004Y-82625720D01*
X77963535Y-82629652D01*
X77963538Y-82629655D01*
X78049458Y-82704212D01*
X78118763Y-82764352D01*
X78123949Y-82767352D01*
X78123953Y-82767355D01*
X78220357Y-82823126D01*
X78301854Y-82870273D01*
X78501671Y-82939661D01*
X78507606Y-82940522D01*
X78507608Y-82940522D01*
X78705064Y-82969152D01*
X78705067Y-82969152D01*
X78711004Y-82970013D01*
X78922299Y-82960233D01*
X79055664Y-82928092D01*
X79122101Y-82912081D01*
X79122103Y-82912080D01*
X79127934Y-82910675D01*
X79133392Y-82908193D01*
X79133396Y-82908192D01*
X79268335Y-82846838D01*
X79320487Y-82823126D01*
X79493011Y-82700746D01*
X79639281Y-82547950D01*
X79754020Y-82370252D01*
X79833086Y-82174063D01*
X79873628Y-81966463D01*
X79873900Y-81960901D01*
X79873900Y-81910646D01*
X80196900Y-81910646D01*
X80211948Y-82068366D01*
X80271492Y-82271334D01*
X80274236Y-82276661D01*
X80274236Y-82276662D01*
X80353774Y-82431094D01*
X80368342Y-82459380D01*
X80499004Y-82625720D01*
X80503535Y-82629652D01*
X80503538Y-82629655D01*
X80589458Y-82704212D01*
X80658763Y-82764352D01*
X80663949Y-82767352D01*
X80663953Y-82767355D01*
X80760357Y-82823126D01*
X80841854Y-82870273D01*
X81041671Y-82939661D01*
X81047606Y-82940522D01*
X81047608Y-82940522D01*
X81245064Y-82969152D01*
X81245067Y-82969152D01*
X81251004Y-82970013D01*
X81462299Y-82960233D01*
X81595664Y-82928092D01*
X81662101Y-82912081D01*
X81662103Y-82912080D01*
X81667934Y-82910675D01*
X81673392Y-82908193D01*
X81673396Y-82908192D01*
X81808335Y-82846838D01*
X81860487Y-82823126D01*
X82033011Y-82700746D01*
X82179281Y-82547950D01*
X82294020Y-82370252D01*
X82373086Y-82174063D01*
X82413628Y-81966463D01*
X82413900Y-81960901D01*
X82413900Y-81910646D01*
X82736900Y-81910646D01*
X82751948Y-82068366D01*
X82811492Y-82271334D01*
X82814236Y-82276661D01*
X82814236Y-82276662D01*
X82893774Y-82431094D01*
X82908342Y-82459380D01*
X83039004Y-82625720D01*
X83043535Y-82629652D01*
X83043538Y-82629655D01*
X83129458Y-82704212D01*
X83198763Y-82764352D01*
X83203949Y-82767352D01*
X83203953Y-82767355D01*
X83300357Y-82823126D01*
X83381854Y-82870273D01*
X83581671Y-82939661D01*
X83587606Y-82940522D01*
X83587608Y-82940522D01*
X83785064Y-82969152D01*
X83785067Y-82969152D01*
X83791004Y-82970013D01*
X84002299Y-82960233D01*
X84135664Y-82928092D01*
X84202101Y-82912081D01*
X84202103Y-82912080D01*
X84207934Y-82910675D01*
X84213392Y-82908193D01*
X84213396Y-82908192D01*
X84348335Y-82846838D01*
X84400487Y-82823126D01*
X84573011Y-82700746D01*
X84719281Y-82547950D01*
X84834020Y-82370252D01*
X84913086Y-82174063D01*
X84953628Y-81966463D01*
X84953900Y-81960901D01*
X84953900Y-81004954D01*
X84938852Y-80847234D01*
X84879308Y-80644266D01*
X84782458Y-80456220D01*
X84651796Y-80289880D01*
X84647265Y-80285948D01*
X84647262Y-80285945D01*
X84496567Y-80155179D01*
X84492037Y-80151248D01*
X84486851Y-80148248D01*
X84486847Y-80148245D01*
X84314142Y-80048333D01*
X84308946Y-80045327D01*
X84109129Y-79975939D01*
X84103194Y-79975078D01*
X84103192Y-79975078D01*
X83905736Y-79946448D01*
X83905733Y-79946448D01*
X83899796Y-79945587D01*
X83688501Y-79955367D01*
X83557323Y-79986981D01*
X83488699Y-80003519D01*
X83488697Y-80003520D01*
X83482866Y-80004925D01*
X83477408Y-80007407D01*
X83477404Y-80007408D01*
X83362359Y-80059716D01*
X83290313Y-80092474D01*
X83117789Y-80214854D01*
X82971519Y-80367650D01*
X82856780Y-80545348D01*
X82777714Y-80741537D01*
X82737172Y-80949137D01*
X82736900Y-80954699D01*
X82736900Y-81910646D01*
X82413900Y-81910646D01*
X82413900Y-81004954D01*
X82398852Y-80847234D01*
X82339308Y-80644266D01*
X82242458Y-80456220D01*
X82111796Y-80289880D01*
X82107265Y-80285948D01*
X82107262Y-80285945D01*
X81956567Y-80155179D01*
X81952037Y-80151248D01*
X81946851Y-80148248D01*
X81946847Y-80148245D01*
X81774142Y-80048333D01*
X81768946Y-80045327D01*
X81569129Y-79975939D01*
X81563194Y-79975078D01*
X81563192Y-79975078D01*
X81365736Y-79946448D01*
X81365733Y-79946448D01*
X81359796Y-79945587D01*
X81148501Y-79955367D01*
X81017323Y-79986981D01*
X80948699Y-80003519D01*
X80948697Y-80003520D01*
X80942866Y-80004925D01*
X80937408Y-80007407D01*
X80937404Y-80007408D01*
X80822359Y-80059716D01*
X80750313Y-80092474D01*
X80577789Y-80214854D01*
X80431519Y-80367650D01*
X80316780Y-80545348D01*
X80237714Y-80741537D01*
X80197172Y-80949137D01*
X80196900Y-80954699D01*
X80196900Y-81910646D01*
X79873900Y-81910646D01*
X79873900Y-81004954D01*
X79858852Y-80847234D01*
X79799308Y-80644266D01*
X79702458Y-80456220D01*
X79571796Y-80289880D01*
X79567265Y-80285948D01*
X79567262Y-80285945D01*
X79416567Y-80155179D01*
X79412037Y-80151248D01*
X79406851Y-80148248D01*
X79406847Y-80148245D01*
X79234142Y-80048333D01*
X79228946Y-80045327D01*
X79029129Y-79975939D01*
X79023194Y-79975078D01*
X79023192Y-79975078D01*
X78825736Y-79946448D01*
X78825733Y-79946448D01*
X78819796Y-79945587D01*
X78608501Y-79955367D01*
X78477323Y-79986981D01*
X78408699Y-80003519D01*
X78408697Y-80003520D01*
X78402866Y-80004925D01*
X78397408Y-80007407D01*
X78397404Y-80007408D01*
X78282359Y-80059716D01*
X78210313Y-80092474D01*
X78037789Y-80214854D01*
X77891519Y-80367650D01*
X77776780Y-80545348D01*
X77697714Y-80741537D01*
X77657172Y-80949137D01*
X77656900Y-80954699D01*
X77656900Y-81910646D01*
X77333900Y-81910646D01*
X77333900Y-81004954D01*
X77318852Y-80847234D01*
X77259308Y-80644266D01*
X77162458Y-80456220D01*
X77031796Y-80289880D01*
X77027265Y-80285948D01*
X77027262Y-80285945D01*
X76876567Y-80155179D01*
X76872037Y-80151248D01*
X76866851Y-80148248D01*
X76866847Y-80148245D01*
X76694142Y-80048333D01*
X76688946Y-80045327D01*
X76489129Y-79975939D01*
X76483194Y-79975078D01*
X76483192Y-79975078D01*
X76285736Y-79946448D01*
X76285733Y-79946448D01*
X76279796Y-79945587D01*
X76068501Y-79955367D01*
X75937323Y-79986981D01*
X75868699Y-80003519D01*
X75868697Y-80003520D01*
X75862866Y-80004925D01*
X75857408Y-80007407D01*
X75857404Y-80007408D01*
X75742359Y-80059716D01*
X75670313Y-80092474D01*
X75497789Y-80214854D01*
X75351519Y-80367650D01*
X75236780Y-80545348D01*
X75157714Y-80741537D01*
X75117172Y-80949137D01*
X75116900Y-80954699D01*
X75116900Y-81910646D01*
X74793900Y-81910646D01*
X74793900Y-81004954D01*
X74778852Y-80847234D01*
X74719308Y-80644266D01*
X74622458Y-80456220D01*
X74491796Y-80289880D01*
X74487265Y-80285948D01*
X74487262Y-80285945D01*
X74336567Y-80155179D01*
X74332037Y-80151248D01*
X74326851Y-80148248D01*
X74326847Y-80148245D01*
X74154142Y-80048333D01*
X74148946Y-80045327D01*
X73949129Y-79975939D01*
X73943194Y-79975078D01*
X73943192Y-79975078D01*
X73745736Y-79946448D01*
X73745733Y-79946448D01*
X73739796Y-79945587D01*
X73528501Y-79955367D01*
X73397323Y-79986981D01*
X73328699Y-80003519D01*
X73328697Y-80003520D01*
X73322866Y-80004925D01*
X73317408Y-80007407D01*
X73317404Y-80007408D01*
X73202359Y-80059716D01*
X73130313Y-80092474D01*
X72957789Y-80214854D01*
X72811519Y-80367650D01*
X72696780Y-80545348D01*
X72617714Y-80741537D01*
X72577172Y-80949137D01*
X72576900Y-80954699D01*
X72576900Y-81910646D01*
X72253900Y-81910646D01*
X72253900Y-81004954D01*
X72238852Y-80847234D01*
X72179308Y-80644266D01*
X72082458Y-80456220D01*
X71951796Y-80289880D01*
X71947265Y-80285948D01*
X71947262Y-80285945D01*
X71796567Y-80155179D01*
X71792037Y-80151248D01*
X71786851Y-80148248D01*
X71786847Y-80148245D01*
X71614142Y-80048333D01*
X71608946Y-80045327D01*
X71409129Y-79975939D01*
X71403194Y-79975078D01*
X71403192Y-79975078D01*
X71205736Y-79946448D01*
X71205733Y-79946448D01*
X71199796Y-79945587D01*
X70988501Y-79955367D01*
X70857323Y-79986981D01*
X70788699Y-80003519D01*
X70788697Y-80003520D01*
X70782866Y-80004925D01*
X70777408Y-80007407D01*
X70777404Y-80007408D01*
X70662359Y-80059716D01*
X70590313Y-80092474D01*
X70417789Y-80214854D01*
X70271519Y-80367650D01*
X70156780Y-80545348D01*
X70077714Y-80741537D01*
X70037172Y-80949137D01*
X70036900Y-80954699D01*
X70036900Y-81910646D01*
X69713900Y-81910646D01*
X69713900Y-81004954D01*
X69698852Y-80847234D01*
X69639308Y-80644266D01*
X69542458Y-80456220D01*
X69411796Y-80289880D01*
X69407265Y-80285948D01*
X69407262Y-80285945D01*
X69256567Y-80155179D01*
X69252037Y-80151248D01*
X69246851Y-80148248D01*
X69246847Y-80148245D01*
X69074142Y-80048333D01*
X69068946Y-80045327D01*
X68869129Y-79975939D01*
X68863194Y-79975078D01*
X68863192Y-79975078D01*
X68665736Y-79946448D01*
X68665733Y-79946448D01*
X68659796Y-79945587D01*
X68448501Y-79955367D01*
X68317323Y-79986981D01*
X68248699Y-80003519D01*
X68248697Y-80003520D01*
X68242866Y-80004925D01*
X68237408Y-80007407D01*
X68237404Y-80007408D01*
X68122359Y-80059716D01*
X68050313Y-80092474D01*
X67877789Y-80214854D01*
X67731519Y-80367650D01*
X67616780Y-80545348D01*
X67537714Y-80741537D01*
X67497172Y-80949137D01*
X67496900Y-80954699D01*
X67496900Y-81910646D01*
X67173900Y-81910646D01*
X67173900Y-81004954D01*
X67158852Y-80847234D01*
X67099308Y-80644266D01*
X67002458Y-80456220D01*
X66871796Y-80289880D01*
X66867265Y-80285948D01*
X66867262Y-80285945D01*
X66716567Y-80155179D01*
X66712037Y-80151248D01*
X66706851Y-80148248D01*
X66706847Y-80148245D01*
X66534142Y-80048333D01*
X66528946Y-80045327D01*
X66329129Y-79975939D01*
X66323194Y-79975078D01*
X66323192Y-79975078D01*
X66125736Y-79946448D01*
X66125733Y-79946448D01*
X66119796Y-79945587D01*
X65908501Y-79955367D01*
X65777323Y-79986981D01*
X65708699Y-80003519D01*
X65708697Y-80003520D01*
X65702866Y-80004925D01*
X65697408Y-80007407D01*
X65697404Y-80007408D01*
X65582359Y-80059716D01*
X65510313Y-80092474D01*
X65337789Y-80214854D01*
X65191519Y-80367650D01*
X65076780Y-80545348D01*
X64997714Y-80741537D01*
X64957172Y-80949137D01*
X64956900Y-80954699D01*
X64956900Y-81910646D01*
X64633900Y-81910646D01*
X64633900Y-81004954D01*
X64618852Y-80847234D01*
X64559308Y-80644266D01*
X64462458Y-80456220D01*
X64331796Y-80289880D01*
X64327265Y-80285948D01*
X64327262Y-80285945D01*
X64176567Y-80155179D01*
X64172037Y-80151248D01*
X64166851Y-80148248D01*
X64166847Y-80148245D01*
X63994142Y-80048333D01*
X63988946Y-80045327D01*
X63789129Y-79975939D01*
X63783194Y-79975078D01*
X63783192Y-79975078D01*
X63585736Y-79946448D01*
X63585733Y-79946448D01*
X63579796Y-79945587D01*
X63368501Y-79955367D01*
X63237323Y-79986981D01*
X63168699Y-80003519D01*
X63168697Y-80003520D01*
X63162866Y-80004925D01*
X63157408Y-80007407D01*
X63157404Y-80007408D01*
X63042359Y-80059716D01*
X62970313Y-80092474D01*
X62797789Y-80214854D01*
X62651519Y-80367650D01*
X62536780Y-80545348D01*
X62457714Y-80741537D01*
X62417172Y-80949137D01*
X62416900Y-80954699D01*
X62416900Y-81910646D01*
X61595000Y-81910646D01*
X61595000Y-79501000D01*
X61615002Y-79432879D01*
X61668658Y-79386386D01*
X61721000Y-79375000D01*
X113539000Y-79375000D01*
X113607121Y-79395002D01*
G37*
%TD.AperFunction*%
%TD*%
M02*
