%FSLAX45Y45*%
G04 Gerber Fmt 4.5, Leading zero omitted, Abs format (unit mm)*
G04 Created by KiCad (PCBNEW 6.0.2) date 2022-04-10 11:44:06*
%MOMM*%
%LPD*%
G01*
G04 APERTURE LIST*
%TA.AperFunction,Profile*%
%ADD10C,0.100000*%
%TD*%
%ADD11C,0.200000*%
%ADD12C,0.040000*%
%ADD13C,0.080000*%
G04 APERTURE END LIST*
D10*
X6096000Y-7874000D02*
X11430000Y-7874000D01*
X11430000Y-9906000D02*
X6096000Y-9906000D01*
X6096000Y-7874000D02*
X6096000Y-9906000D01*
X11430000Y-9906000D02*
X11430000Y-7874000D01*
D11*
D12*
X6330000Y-8552500D02*
X6370000Y-8592500D01*
X6370000Y-8552500D02*
X6330000Y-8592500D01*
X6335080Y-9360220D02*
X6375080Y-9400220D01*
X6375080Y-9360220D02*
X6335080Y-9400220D01*
X6337620Y-9085900D02*
X6377620Y-9125900D01*
X6377620Y-9085900D02*
X6337620Y-9125900D01*
X6614480Y-8539800D02*
X6654480Y-8579800D01*
X6654480Y-8539800D02*
X6614480Y-8579800D01*
X6617020Y-9085900D02*
X6657020Y-9125900D01*
X6657020Y-9085900D02*
X6617020Y-9125900D01*
X6878640Y-8831900D02*
X6918640Y-8871900D01*
X6918640Y-8831900D02*
X6878640Y-8871900D01*
X8057200Y-9067450D02*
X8097200Y-9107450D01*
X8097200Y-9067450D02*
X8057200Y-9107450D01*
X8158800Y-9225600D02*
X8198800Y-9265600D01*
X8198800Y-9225600D02*
X8158800Y-9265600D01*
X8425500Y-8679500D02*
X8465500Y-8719500D01*
X8465500Y-8679500D02*
X8425500Y-8719500D01*
X8425500Y-8806500D02*
X8465500Y-8846500D01*
X8465500Y-8806500D02*
X8425500Y-8846500D01*
X8425500Y-8933500D02*
X8465500Y-8973500D01*
X8465500Y-8933500D02*
X8425500Y-8973500D01*
X8425500Y-9060500D02*
X8465500Y-9100500D01*
X8465500Y-9060500D02*
X8425500Y-9100500D01*
X8552500Y-8679500D02*
X8592500Y-8719500D01*
X8592500Y-8679500D02*
X8552500Y-8719500D01*
X8552500Y-8806500D02*
X8592500Y-8846500D01*
X8592500Y-8806500D02*
X8552500Y-8846500D01*
X8552500Y-8933500D02*
X8592500Y-8973500D01*
X8592500Y-8933500D02*
X8552500Y-8973500D01*
X8552500Y-9060500D02*
X8592500Y-9100500D01*
X8592500Y-9060500D02*
X8552500Y-9100500D01*
X8565200Y-9339900D02*
X8605200Y-9379900D01*
X8605200Y-9339900D02*
X8565200Y-9379900D01*
X8679500Y-8679500D02*
X8719500Y-8719500D01*
X8719500Y-8679500D02*
X8679500Y-8719500D01*
X8679500Y-8806500D02*
X8719500Y-8846500D01*
X8719500Y-8806500D02*
X8679500Y-8846500D01*
X8679500Y-8933500D02*
X8719500Y-8973500D01*
X8719500Y-8933500D02*
X8679500Y-8973500D01*
X8679500Y-9060500D02*
X8719500Y-9100500D01*
X8719500Y-9060500D02*
X8679500Y-9100500D01*
X8742498Y-8323398D02*
X8782498Y-8363398D01*
X8782498Y-8323398D02*
X8742498Y-8363398D01*
X8768400Y-9388160D02*
X8808400Y-9428160D01*
X8808400Y-9388160D02*
X8768400Y-9428160D01*
X8806500Y-8679500D02*
X8846500Y-8719500D01*
X8846500Y-8679500D02*
X8806500Y-8719500D01*
X8806500Y-8806500D02*
X8846500Y-8846500D01*
X8846500Y-8806500D02*
X8806500Y-8846500D01*
X8806500Y-8933500D02*
X8846500Y-8973500D01*
X8846500Y-8933500D02*
X8806500Y-8973500D01*
X8806500Y-9060500D02*
X8846500Y-9100500D01*
X8846500Y-9060500D02*
X8806500Y-9100500D01*
X8971600Y-8522550D02*
X9011600Y-8562550D01*
X9011600Y-8522550D02*
X8971600Y-8562550D01*
X9144320Y-8359666D02*
X9184320Y-8399666D01*
X9184320Y-8359666D02*
X9144320Y-8399666D01*
X9530400Y-8514400D02*
X9570400Y-8554400D01*
X9570400Y-8514400D02*
X9530400Y-8554400D01*
X9799640Y-8405180D02*
X9839640Y-8445180D01*
X9839640Y-8405180D02*
X9799640Y-8445180D01*
X9898700Y-9167450D02*
X9938700Y-9207450D01*
X9938700Y-9167450D02*
X9898700Y-9207450D01*
X10264460Y-9436420D02*
X10304460Y-9476420D01*
X10304460Y-9436420D02*
X10264460Y-9476420D01*
X10528620Y-9441500D02*
X10568620Y-9481500D01*
X10568620Y-9441500D02*
X10528620Y-9481500D01*
X10648000Y-8933500D02*
X10688000Y-8973500D01*
X10688000Y-8933500D02*
X10648000Y-8973500D01*
X10838500Y-8933500D02*
X10878500Y-8973500D01*
X10878500Y-8933500D02*
X10838500Y-8973500D01*
X10927400Y-8679500D02*
X10967400Y-8719500D01*
X10967400Y-8679500D02*
X10927400Y-8719500D01*
X11158540Y-8349300D02*
X11198540Y-8389300D01*
X11198540Y-8349300D02*
X11158540Y-8389300D01*
X11244900Y-8679500D02*
X11284900Y-8719500D01*
X11284900Y-8679500D02*
X11244900Y-8719500D01*
X11272840Y-8999540D02*
X11312840Y-9039540D01*
X11312840Y-8999540D02*
X11272840Y-9039540D01*
D13*
X6392540Y-8145780D02*
G75*
G03*
X6392540Y-8145780I-40000J0D01*
G01*
X6392540Y-9669780D02*
G75*
G03*
X6392540Y-9669780I-40000J0D01*
G01*
X6646540Y-8145780D02*
G75*
G03*
X6646540Y-8145780I-40000J0D01*
G01*
X6646540Y-9669780D02*
G75*
G03*
X6646540Y-9669780I-40000J0D01*
G01*
X6900540Y-8145780D02*
G75*
G03*
X6900540Y-8145780I-40000J0D01*
G01*
X6900540Y-9669780D02*
G75*
G03*
X6900540Y-9669780I-40000J0D01*
G01*
X7154540Y-8145780D02*
G75*
G03*
X7154540Y-8145780I-40000J0D01*
G01*
X7154540Y-9669780D02*
G75*
G03*
X7154540Y-9669780I-40000J0D01*
G01*
X7408540Y-8145780D02*
G75*
G03*
X7408540Y-8145780I-40000J0D01*
G01*
X7408540Y-9669780D02*
G75*
G03*
X7408540Y-9669780I-40000J0D01*
G01*
X7662540Y-8145780D02*
G75*
G03*
X7662540Y-8145780I-40000J0D01*
G01*
X7662540Y-9669780D02*
G75*
G03*
X7662540Y-9669780I-40000J0D01*
G01*
X7916540Y-8145780D02*
G75*
G03*
X7916540Y-8145780I-40000J0D01*
G01*
X7916540Y-9669780D02*
G75*
G03*
X7916540Y-9669780I-40000J0D01*
G01*
X8170540Y-8145780D02*
G75*
G03*
X8170540Y-8145780I-40000J0D01*
G01*
X8170540Y-9669780D02*
G75*
G03*
X8170540Y-9669780I-40000J0D01*
G01*
X8424540Y-8145780D02*
G75*
G03*
X8424540Y-8145780I-40000J0D01*
G01*
X8424540Y-9669780D02*
G75*
G03*
X8424540Y-9669780I-40000J0D01*
G01*
X8678540Y-8145780D02*
G75*
G03*
X8678540Y-8145780I-40000J0D01*
G01*
X8678540Y-9669780D02*
G75*
G03*
X8678540Y-9669780I-40000J0D01*
G01*
X8932540Y-8145780D02*
G75*
G03*
X8932540Y-8145780I-40000J0D01*
G01*
X8932540Y-9669780D02*
G75*
G03*
X8932540Y-9669780I-40000J0D01*
G01*
X9186540Y-8145780D02*
G75*
G03*
X9186540Y-8145780I-40000J0D01*
G01*
X9186540Y-9669780D02*
G75*
G03*
X9186540Y-9669780I-40000J0D01*
G01*
X9440540Y-8145780D02*
G75*
G03*
X9440540Y-8145780I-40000J0D01*
G01*
X9440540Y-9669780D02*
G75*
G03*
X9440540Y-9669780I-40000J0D01*
G01*
X9694540Y-8145780D02*
G75*
G03*
X9694540Y-8145780I-40000J0D01*
G01*
X9694540Y-9669780D02*
G75*
G03*
X9694540Y-9669780I-40000J0D01*
G01*
X9948540Y-8145780D02*
G75*
G03*
X9948540Y-8145780I-40000J0D01*
G01*
X9948540Y-9669780D02*
G75*
G03*
X9948540Y-9669780I-40000J0D01*
G01*
X10202540Y-8145780D02*
G75*
G03*
X10202540Y-8145780I-40000J0D01*
G01*
X10202540Y-9669780D02*
G75*
G03*
X10202540Y-9669780I-40000J0D01*
G01*
X10456540Y-8145780D02*
G75*
G03*
X10456540Y-8145780I-40000J0D01*
G01*
X10456540Y-9669780D02*
G75*
G03*
X10456540Y-9669780I-40000J0D01*
G01*
X10710540Y-8145780D02*
G75*
G03*
X10710540Y-8145780I-40000J0D01*
G01*
X10710540Y-9669780D02*
G75*
G03*
X10710540Y-9669780I-40000J0D01*
G01*
X10964540Y-8145780D02*
G75*
G03*
X10964540Y-8145780I-40000J0D01*
G01*
X10964540Y-9669780D02*
G75*
G03*
X10964540Y-9669780I-40000J0D01*
G01*
X11218540Y-8145780D02*
G75*
G03*
X11218540Y-8145780I-40000J0D01*
G01*
X11218540Y-9669780D02*
G75*
G03*
X11218540Y-9669780I-40000J0D01*
G01*
D11*
X6348619Y-10221476D02*
X6348619Y-10021476D01*
X6396238Y-10021476D01*
X6424809Y-10031000D01*
X6443857Y-10050048D01*
X6453381Y-10069095D01*
X6462905Y-10107190D01*
X6462905Y-10135762D01*
X6453381Y-10173857D01*
X6443857Y-10192905D01*
X6424809Y-10211952D01*
X6396238Y-10221476D01*
X6348619Y-10221476D01*
X6548619Y-10221476D02*
X6548619Y-10088143D01*
X6548619Y-10126238D02*
X6558143Y-10107190D01*
X6567667Y-10097667D01*
X6586714Y-10088143D01*
X6605762Y-10088143D01*
X6672428Y-10221476D02*
X6672428Y-10088143D01*
X6672428Y-10021476D02*
X6662905Y-10031000D01*
X6672428Y-10040524D01*
X6681952Y-10031000D01*
X6672428Y-10021476D01*
X6672428Y-10040524D01*
X6796238Y-10221476D02*
X6777190Y-10211952D01*
X6767667Y-10192905D01*
X6767667Y-10021476D01*
X6901000Y-10221476D02*
X6881952Y-10211952D01*
X6872428Y-10192905D01*
X6872428Y-10021476D01*
X7129571Y-10221476D02*
X7129571Y-10021476D01*
X7196238Y-10164333D01*
X7262905Y-10021476D01*
X7262905Y-10221476D01*
X7443857Y-10221476D02*
X7443857Y-10116714D01*
X7434333Y-10097667D01*
X7415286Y-10088143D01*
X7377190Y-10088143D01*
X7358143Y-10097667D01*
X7443857Y-10211952D02*
X7424809Y-10221476D01*
X7377190Y-10221476D01*
X7358143Y-10211952D01*
X7348619Y-10192905D01*
X7348619Y-10173857D01*
X7358143Y-10154810D01*
X7377190Y-10145286D01*
X7424809Y-10145286D01*
X7443857Y-10135762D01*
X7539095Y-10088143D02*
X7539095Y-10288143D01*
X7539095Y-10097667D02*
X7558143Y-10088143D01*
X7596238Y-10088143D01*
X7615286Y-10097667D01*
X7624809Y-10107190D01*
X7634333Y-10126238D01*
X7634333Y-10183381D01*
X7624809Y-10202429D01*
X7615286Y-10211952D01*
X7596238Y-10221476D01*
X7558143Y-10221476D01*
X7539095Y-10211952D01*
X7720048Y-10202429D02*
X7729571Y-10211952D01*
X7720048Y-10221476D01*
X7710524Y-10211952D01*
X7720048Y-10202429D01*
X7720048Y-10221476D01*
X7720048Y-10097667D02*
X7729571Y-10107190D01*
X7720048Y-10116714D01*
X7710524Y-10107190D01*
X7720048Y-10097667D01*
X7720048Y-10116714D01*
D12*
X6051000Y-10531000D02*
X6091000Y-10571000D01*
X6091000Y-10531000D02*
X6051000Y-10571000D01*
D11*
X6386714Y-10441476D02*
X6405762Y-10441476D01*
X6424809Y-10451000D01*
X6434333Y-10460524D01*
X6443857Y-10479571D01*
X6453381Y-10517667D01*
X6453381Y-10565286D01*
X6443857Y-10603381D01*
X6434333Y-10622429D01*
X6424809Y-10631952D01*
X6405762Y-10641476D01*
X6386714Y-10641476D01*
X6367667Y-10631952D01*
X6358143Y-10622429D01*
X6348619Y-10603381D01*
X6339095Y-10565286D01*
X6339095Y-10517667D01*
X6348619Y-10479571D01*
X6358143Y-10460524D01*
X6367667Y-10451000D01*
X6386714Y-10441476D01*
X6539095Y-10622429D02*
X6548619Y-10631952D01*
X6539095Y-10641476D01*
X6529571Y-10631952D01*
X6539095Y-10622429D01*
X6539095Y-10641476D01*
X6720048Y-10508143D02*
X6720048Y-10641476D01*
X6672428Y-10431952D02*
X6624809Y-10574810D01*
X6748619Y-10574810D01*
X6862905Y-10441476D02*
X6881952Y-10441476D01*
X6901000Y-10451000D01*
X6910524Y-10460524D01*
X6920048Y-10479571D01*
X6929571Y-10517667D01*
X6929571Y-10565286D01*
X6920048Y-10603381D01*
X6910524Y-10622429D01*
X6901000Y-10631952D01*
X6881952Y-10641476D01*
X6862905Y-10641476D01*
X6843857Y-10631952D01*
X6834333Y-10622429D01*
X6824809Y-10603381D01*
X6815286Y-10565286D01*
X6815286Y-10517667D01*
X6824809Y-10479571D01*
X6834333Y-10460524D01*
X6843857Y-10451000D01*
X6862905Y-10441476D01*
X7053381Y-10441476D02*
X7072428Y-10441476D01*
X7091476Y-10451000D01*
X7101000Y-10460524D01*
X7110524Y-10479571D01*
X7120048Y-10517667D01*
X7120048Y-10565286D01*
X7110524Y-10603381D01*
X7101000Y-10622429D01*
X7091476Y-10631952D01*
X7072428Y-10641476D01*
X7053381Y-10641476D01*
X7034333Y-10631952D01*
X7024809Y-10622429D01*
X7015286Y-10603381D01*
X7005762Y-10565286D01*
X7005762Y-10517667D01*
X7015286Y-10479571D01*
X7024809Y-10460524D01*
X7034333Y-10451000D01*
X7053381Y-10441476D01*
X7205762Y-10641476D02*
X7205762Y-10508143D01*
X7205762Y-10527190D02*
X7215286Y-10517667D01*
X7234333Y-10508143D01*
X7262905Y-10508143D01*
X7281952Y-10517667D01*
X7291476Y-10536714D01*
X7291476Y-10641476D01*
X7291476Y-10536714D02*
X7301000Y-10517667D01*
X7320048Y-10508143D01*
X7348619Y-10508143D01*
X7367667Y-10517667D01*
X7377190Y-10536714D01*
X7377190Y-10641476D01*
X7472428Y-10641476D02*
X7472428Y-10508143D01*
X7472428Y-10527190D02*
X7481952Y-10517667D01*
X7501000Y-10508143D01*
X7529571Y-10508143D01*
X7548619Y-10517667D01*
X7558143Y-10536714D01*
X7558143Y-10641476D01*
X7558143Y-10536714D02*
X7567667Y-10517667D01*
X7586714Y-10508143D01*
X7615286Y-10508143D01*
X7634333Y-10517667D01*
X7643857Y-10536714D01*
X7643857Y-10641476D01*
X8034333Y-10431952D02*
X7862905Y-10689095D01*
X8291476Y-10441476D02*
X8310524Y-10441476D01*
X8329571Y-10451000D01*
X8339095Y-10460524D01*
X8348619Y-10479571D01*
X8358143Y-10517667D01*
X8358143Y-10565286D01*
X8348619Y-10603381D01*
X8339095Y-10622429D01*
X8329571Y-10631952D01*
X8310524Y-10641476D01*
X8291476Y-10641476D01*
X8272428Y-10631952D01*
X8262905Y-10622429D01*
X8253381Y-10603381D01*
X8243857Y-10565286D01*
X8243857Y-10517667D01*
X8253381Y-10479571D01*
X8262905Y-10460524D01*
X8272428Y-10451000D01*
X8291476Y-10441476D01*
X8443857Y-10622429D02*
X8453381Y-10631952D01*
X8443857Y-10641476D01*
X8434333Y-10631952D01*
X8443857Y-10622429D01*
X8443857Y-10641476D01*
X8577190Y-10441476D02*
X8596238Y-10441476D01*
X8615286Y-10451000D01*
X8624810Y-10460524D01*
X8634333Y-10479571D01*
X8643857Y-10517667D01*
X8643857Y-10565286D01*
X8634333Y-10603381D01*
X8624810Y-10622429D01*
X8615286Y-10631952D01*
X8596238Y-10641476D01*
X8577190Y-10641476D01*
X8558143Y-10631952D01*
X8548619Y-10622429D01*
X8539095Y-10603381D01*
X8529571Y-10565286D01*
X8529571Y-10517667D01*
X8539095Y-10479571D01*
X8548619Y-10460524D01*
X8558143Y-10451000D01*
X8577190Y-10441476D01*
X8834333Y-10641476D02*
X8720048Y-10641476D01*
X8777190Y-10641476D02*
X8777190Y-10441476D01*
X8758143Y-10470048D01*
X8739095Y-10489095D01*
X8720048Y-10498619D01*
X9015286Y-10441476D02*
X8920048Y-10441476D01*
X8910524Y-10536714D01*
X8920048Y-10527190D01*
X8939095Y-10517667D01*
X8986714Y-10517667D01*
X9005762Y-10527190D01*
X9015286Y-10536714D01*
X9024810Y-10555762D01*
X9024810Y-10603381D01*
X9015286Y-10622429D01*
X9005762Y-10631952D01*
X8986714Y-10641476D01*
X8939095Y-10641476D01*
X8920048Y-10631952D01*
X8910524Y-10622429D01*
X9091476Y-10441476D02*
X9224810Y-10441476D01*
X9139095Y-10641476D01*
X9291476Y-10441476D02*
X9291476Y-10479571D01*
X9367667Y-10441476D02*
X9367667Y-10479571D01*
X9662905Y-10717667D02*
X9653381Y-10708143D01*
X9634333Y-10679571D01*
X9624810Y-10660524D01*
X9615286Y-10631952D01*
X9605762Y-10584333D01*
X9605762Y-10546238D01*
X9615286Y-10498619D01*
X9624810Y-10470048D01*
X9634333Y-10451000D01*
X9653381Y-10422429D01*
X9662905Y-10412905D01*
X9824810Y-10508143D02*
X9824810Y-10641476D01*
X9777190Y-10431952D02*
X9729571Y-10574810D01*
X9853381Y-10574810D01*
X9967667Y-10441476D02*
X9986714Y-10441476D01*
X10005762Y-10451000D01*
X10015286Y-10460524D01*
X10024810Y-10479571D01*
X10034333Y-10517667D01*
X10034333Y-10565286D01*
X10024810Y-10603381D01*
X10015286Y-10622429D01*
X10005762Y-10631952D01*
X9986714Y-10641476D01*
X9967667Y-10641476D01*
X9948619Y-10631952D01*
X9939095Y-10622429D01*
X9929571Y-10603381D01*
X9920048Y-10565286D01*
X9920048Y-10517667D01*
X9929571Y-10479571D01*
X9939095Y-10460524D01*
X9948619Y-10451000D01*
X9967667Y-10441476D01*
X10272429Y-10641476D02*
X10272429Y-10441476D01*
X10358143Y-10641476D02*
X10358143Y-10536714D01*
X10348619Y-10517667D01*
X10329571Y-10508143D01*
X10301000Y-10508143D01*
X10281952Y-10517667D01*
X10272429Y-10527190D01*
X10481952Y-10641476D02*
X10462905Y-10631952D01*
X10453381Y-10622429D01*
X10443857Y-10603381D01*
X10443857Y-10546238D01*
X10453381Y-10527190D01*
X10462905Y-10517667D01*
X10481952Y-10508143D01*
X10510524Y-10508143D01*
X10529571Y-10517667D01*
X10539095Y-10527190D01*
X10548619Y-10546238D01*
X10548619Y-10603381D01*
X10539095Y-10622429D01*
X10529571Y-10631952D01*
X10510524Y-10641476D01*
X10481952Y-10641476D01*
X10662905Y-10641476D02*
X10643857Y-10631952D01*
X10634333Y-10612905D01*
X10634333Y-10441476D01*
X10815286Y-10631952D02*
X10796238Y-10641476D01*
X10758143Y-10641476D01*
X10739095Y-10631952D01*
X10729571Y-10612905D01*
X10729571Y-10536714D01*
X10739095Y-10517667D01*
X10758143Y-10508143D01*
X10796238Y-10508143D01*
X10815286Y-10517667D01*
X10824810Y-10536714D01*
X10824810Y-10555762D01*
X10729571Y-10574810D01*
X10901000Y-10631952D02*
X10920048Y-10641476D01*
X10958143Y-10641476D01*
X10977190Y-10631952D01*
X10986714Y-10612905D01*
X10986714Y-10603381D01*
X10977190Y-10584333D01*
X10958143Y-10574810D01*
X10929571Y-10574810D01*
X10910524Y-10565286D01*
X10901000Y-10546238D01*
X10901000Y-10536714D01*
X10910524Y-10517667D01*
X10929571Y-10508143D01*
X10958143Y-10508143D01*
X10977190Y-10517667D01*
X11053381Y-10717667D02*
X11062905Y-10708143D01*
X11081952Y-10679571D01*
X11091476Y-10660524D01*
X11101000Y-10631952D01*
X11110524Y-10584333D01*
X11110524Y-10546238D01*
X11101000Y-10498619D01*
X11091476Y-10470048D01*
X11081952Y-10451000D01*
X11062905Y-10422429D01*
X11053381Y-10412905D01*
D13*
X6091000Y-10815000D02*
G75*
G03*
X6091000Y-10815000I-40000J0D01*
G01*
D11*
X6386714Y-10705476D02*
X6405762Y-10705476D01*
X6424809Y-10715000D01*
X6434333Y-10724524D01*
X6443857Y-10743571D01*
X6453381Y-10781667D01*
X6453381Y-10829286D01*
X6443857Y-10867381D01*
X6434333Y-10886429D01*
X6424809Y-10895952D01*
X6405762Y-10905476D01*
X6386714Y-10905476D01*
X6367667Y-10895952D01*
X6358143Y-10886429D01*
X6348619Y-10867381D01*
X6339095Y-10829286D01*
X6339095Y-10781667D01*
X6348619Y-10743571D01*
X6358143Y-10724524D01*
X6367667Y-10715000D01*
X6386714Y-10705476D01*
X6539095Y-10886429D02*
X6548619Y-10895952D01*
X6539095Y-10905476D01*
X6529571Y-10895952D01*
X6539095Y-10886429D01*
X6539095Y-10905476D01*
X6662905Y-10791190D02*
X6643857Y-10781667D01*
X6634333Y-10772143D01*
X6624809Y-10753095D01*
X6624809Y-10743571D01*
X6634333Y-10724524D01*
X6643857Y-10715000D01*
X6662905Y-10705476D01*
X6701000Y-10705476D01*
X6720048Y-10715000D01*
X6729571Y-10724524D01*
X6739095Y-10743571D01*
X6739095Y-10753095D01*
X6729571Y-10772143D01*
X6720048Y-10781667D01*
X6701000Y-10791190D01*
X6662905Y-10791190D01*
X6643857Y-10800714D01*
X6634333Y-10810238D01*
X6624809Y-10829286D01*
X6624809Y-10867381D01*
X6634333Y-10886429D01*
X6643857Y-10895952D01*
X6662905Y-10905476D01*
X6701000Y-10905476D01*
X6720048Y-10895952D01*
X6729571Y-10886429D01*
X6739095Y-10867381D01*
X6739095Y-10829286D01*
X6729571Y-10810238D01*
X6720048Y-10800714D01*
X6701000Y-10791190D01*
X6862905Y-10705476D02*
X6881952Y-10705476D01*
X6901000Y-10715000D01*
X6910524Y-10724524D01*
X6920048Y-10743571D01*
X6929571Y-10781667D01*
X6929571Y-10829286D01*
X6920048Y-10867381D01*
X6910524Y-10886429D01*
X6901000Y-10895952D01*
X6881952Y-10905476D01*
X6862905Y-10905476D01*
X6843857Y-10895952D01*
X6834333Y-10886429D01*
X6824809Y-10867381D01*
X6815286Y-10829286D01*
X6815286Y-10781667D01*
X6824809Y-10743571D01*
X6834333Y-10724524D01*
X6843857Y-10715000D01*
X6862905Y-10705476D01*
X7053381Y-10705476D02*
X7072428Y-10705476D01*
X7091476Y-10715000D01*
X7101000Y-10724524D01*
X7110524Y-10743571D01*
X7120048Y-10781667D01*
X7120048Y-10829286D01*
X7110524Y-10867381D01*
X7101000Y-10886429D01*
X7091476Y-10895952D01*
X7072428Y-10905476D01*
X7053381Y-10905476D01*
X7034333Y-10895952D01*
X7024809Y-10886429D01*
X7015286Y-10867381D01*
X7005762Y-10829286D01*
X7005762Y-10781667D01*
X7015286Y-10743571D01*
X7024809Y-10724524D01*
X7034333Y-10715000D01*
X7053381Y-10705476D01*
X7205762Y-10905476D02*
X7205762Y-10772143D01*
X7205762Y-10791190D02*
X7215286Y-10781667D01*
X7234333Y-10772143D01*
X7262905Y-10772143D01*
X7281952Y-10781667D01*
X7291476Y-10800714D01*
X7291476Y-10905476D01*
X7291476Y-10800714D02*
X7301000Y-10781667D01*
X7320048Y-10772143D01*
X7348619Y-10772143D01*
X7367667Y-10781667D01*
X7377190Y-10800714D01*
X7377190Y-10905476D01*
X7472428Y-10905476D02*
X7472428Y-10772143D01*
X7472428Y-10791190D02*
X7481952Y-10781667D01*
X7501000Y-10772143D01*
X7529571Y-10772143D01*
X7548619Y-10781667D01*
X7558143Y-10800714D01*
X7558143Y-10905476D01*
X7558143Y-10800714D02*
X7567667Y-10781667D01*
X7586714Y-10772143D01*
X7615286Y-10772143D01*
X7634333Y-10781667D01*
X7643857Y-10800714D01*
X7643857Y-10905476D01*
X8034333Y-10695952D02*
X7862905Y-10953095D01*
X8291476Y-10705476D02*
X8310524Y-10705476D01*
X8329571Y-10715000D01*
X8339095Y-10724524D01*
X8348619Y-10743571D01*
X8358143Y-10781667D01*
X8358143Y-10829286D01*
X8348619Y-10867381D01*
X8339095Y-10886429D01*
X8329571Y-10895952D01*
X8310524Y-10905476D01*
X8291476Y-10905476D01*
X8272428Y-10895952D01*
X8262905Y-10886429D01*
X8253381Y-10867381D01*
X8243857Y-10829286D01*
X8243857Y-10781667D01*
X8253381Y-10743571D01*
X8262905Y-10724524D01*
X8272428Y-10715000D01*
X8291476Y-10705476D01*
X8443857Y-10886429D02*
X8453381Y-10895952D01*
X8443857Y-10905476D01*
X8434333Y-10895952D01*
X8443857Y-10886429D01*
X8443857Y-10905476D01*
X8577190Y-10705476D02*
X8596238Y-10705476D01*
X8615286Y-10715000D01*
X8624810Y-10724524D01*
X8634333Y-10743571D01*
X8643857Y-10781667D01*
X8643857Y-10829286D01*
X8634333Y-10867381D01*
X8624810Y-10886429D01*
X8615286Y-10895952D01*
X8596238Y-10905476D01*
X8577190Y-10905476D01*
X8558143Y-10895952D01*
X8548619Y-10886429D01*
X8539095Y-10867381D01*
X8529571Y-10829286D01*
X8529571Y-10781667D01*
X8539095Y-10743571D01*
X8548619Y-10724524D01*
X8558143Y-10715000D01*
X8577190Y-10705476D01*
X8710524Y-10705476D02*
X8834333Y-10705476D01*
X8767667Y-10781667D01*
X8796238Y-10781667D01*
X8815286Y-10791190D01*
X8824810Y-10800714D01*
X8834333Y-10819762D01*
X8834333Y-10867381D01*
X8824810Y-10886429D01*
X8815286Y-10895952D01*
X8796238Y-10905476D01*
X8739095Y-10905476D01*
X8720048Y-10895952D01*
X8710524Y-10886429D01*
X9024810Y-10905476D02*
X8910524Y-10905476D01*
X8967667Y-10905476D02*
X8967667Y-10705476D01*
X8948619Y-10734048D01*
X8929571Y-10753095D01*
X8910524Y-10762619D01*
X9205762Y-10705476D02*
X9110524Y-10705476D01*
X9101000Y-10800714D01*
X9110524Y-10791190D01*
X9129571Y-10781667D01*
X9177190Y-10781667D01*
X9196238Y-10791190D01*
X9205762Y-10800714D01*
X9215286Y-10819762D01*
X9215286Y-10867381D01*
X9205762Y-10886429D01*
X9196238Y-10895952D01*
X9177190Y-10905476D01*
X9129571Y-10905476D01*
X9110524Y-10895952D01*
X9101000Y-10886429D01*
X9291476Y-10705476D02*
X9291476Y-10743571D01*
X9367667Y-10705476D02*
X9367667Y-10743571D01*
X9662905Y-10981667D02*
X9653381Y-10972143D01*
X9634333Y-10943571D01*
X9624810Y-10924524D01*
X9615286Y-10895952D01*
X9605762Y-10848333D01*
X9605762Y-10810238D01*
X9615286Y-10762619D01*
X9624810Y-10734048D01*
X9634333Y-10715000D01*
X9653381Y-10686429D01*
X9662905Y-10676905D01*
X9824810Y-10772143D02*
X9824810Y-10905476D01*
X9777190Y-10695952D02*
X9729571Y-10838810D01*
X9853381Y-10838810D01*
X9967667Y-10705476D02*
X9986714Y-10705476D01*
X10005762Y-10715000D01*
X10015286Y-10724524D01*
X10024810Y-10743571D01*
X10034333Y-10781667D01*
X10034333Y-10829286D01*
X10024810Y-10867381D01*
X10015286Y-10886429D01*
X10005762Y-10895952D01*
X9986714Y-10905476D01*
X9967667Y-10905476D01*
X9948619Y-10895952D01*
X9939095Y-10886429D01*
X9929571Y-10867381D01*
X9920048Y-10829286D01*
X9920048Y-10781667D01*
X9929571Y-10743571D01*
X9939095Y-10724524D01*
X9948619Y-10715000D01*
X9967667Y-10705476D01*
X10272429Y-10905476D02*
X10272429Y-10705476D01*
X10358143Y-10905476D02*
X10358143Y-10800714D01*
X10348619Y-10781667D01*
X10329571Y-10772143D01*
X10301000Y-10772143D01*
X10281952Y-10781667D01*
X10272429Y-10791190D01*
X10481952Y-10905476D02*
X10462905Y-10895952D01*
X10453381Y-10886429D01*
X10443857Y-10867381D01*
X10443857Y-10810238D01*
X10453381Y-10791190D01*
X10462905Y-10781667D01*
X10481952Y-10772143D01*
X10510524Y-10772143D01*
X10529571Y-10781667D01*
X10539095Y-10791190D01*
X10548619Y-10810238D01*
X10548619Y-10867381D01*
X10539095Y-10886429D01*
X10529571Y-10895952D01*
X10510524Y-10905476D01*
X10481952Y-10905476D01*
X10662905Y-10905476D02*
X10643857Y-10895952D01*
X10634333Y-10876905D01*
X10634333Y-10705476D01*
X10815286Y-10895952D02*
X10796238Y-10905476D01*
X10758143Y-10905476D01*
X10739095Y-10895952D01*
X10729571Y-10876905D01*
X10729571Y-10800714D01*
X10739095Y-10781667D01*
X10758143Y-10772143D01*
X10796238Y-10772143D01*
X10815286Y-10781667D01*
X10824810Y-10800714D01*
X10824810Y-10819762D01*
X10729571Y-10838810D01*
X10901000Y-10895952D02*
X10920048Y-10905476D01*
X10958143Y-10905476D01*
X10977190Y-10895952D01*
X10986714Y-10876905D01*
X10986714Y-10867381D01*
X10977190Y-10848333D01*
X10958143Y-10838810D01*
X10929571Y-10838810D01*
X10910524Y-10829286D01*
X10901000Y-10810238D01*
X10901000Y-10800714D01*
X10910524Y-10781667D01*
X10929571Y-10772143D01*
X10958143Y-10772143D01*
X10977190Y-10781667D01*
X11053381Y-10981667D02*
X11062905Y-10972143D01*
X11081952Y-10943571D01*
X11091476Y-10924524D01*
X11101000Y-10895952D01*
X11110524Y-10848333D01*
X11110524Y-10810238D01*
X11101000Y-10762619D01*
X11091476Y-10734048D01*
X11081952Y-10715000D01*
X11062905Y-10686429D01*
X11053381Y-10676905D01*
M02*
