M48
; DRILL file {KiCad 6.0.2} date Sun 10 Apr 2022 12:21:17 PM MDT
; FORMAT={-:-/ absolute / inch / decimal}
; #@! TF.CreationDate,2022-04-10T12:21:17-06:00
; #@! TF.GenerationSoftware,Kicad,Pcbnew,6.0.2
; #@! TF.FileFunction,MixedPlating,1,4
FMAT,2
INCH
; #@! TA.AperFunction,Plated,PTH,ViaDrill
T1C0.0157
; #@! TA.AperFunction,Plated,PTH,ComponentDrill
T2C0.0315
%
G90
G05
T1
X2.5Y-3.375
X2.502Y-3.693
X2.503Y-3.585
X2.612Y-3.37
X2.613Y-3.585
X2.716Y-3.485
X3.18Y-3.5777
X3.22Y-3.64
X3.325Y-3.425
X3.325Y-3.475
X3.325Y-3.525
X3.325Y-3.575
X3.375Y-3.425
X3.375Y-3.475
X3.375Y-3.525
X3.375Y-3.575
X3.38Y-3.685
X3.425Y-3.425
X3.425Y-3.475
X3.425Y-3.525
X3.425Y-3.575
X3.4498Y-3.2848
X3.46Y-3.704
X3.475Y-3.425
X3.475Y-3.475
X3.475Y-3.525
X3.475Y-3.575
X3.54Y-3.3632
X3.608Y-3.2991
X3.76Y-3.36
X3.866Y-3.317
X3.905Y-3.6171
X4.049Y-3.723
X4.153Y-3.725
X4.2Y-3.525
X4.275Y-3.525
X4.31Y-3.425
X4.401Y-3.295
X4.435Y-3.425
X4.446Y-3.551
T2
X2.501Y-3.207
X2.501Y-3.807
X2.601Y-3.207
X2.601Y-3.807
X2.701Y-3.207
X2.701Y-3.807
X2.801Y-3.207
X2.801Y-3.807
X2.901Y-3.207
X2.901Y-3.807
X3.001Y-3.207
X3.001Y-3.807
X3.101Y-3.207
X3.101Y-3.807
X3.201Y-3.207
X3.201Y-3.807
X3.301Y-3.207
X3.301Y-3.807
X3.401Y-3.207
X3.401Y-3.807
X3.501Y-3.207
X3.501Y-3.807
X3.601Y-3.207
X3.601Y-3.807
X3.701Y-3.207
X3.701Y-3.807
X3.801Y-3.207
X3.801Y-3.807
X3.901Y-3.207
X3.901Y-3.807
X4.001Y-3.207
X4.001Y-3.807
X4.101Y-3.207
X4.101Y-3.807
X4.201Y-3.207
X4.201Y-3.807
X4.301Y-3.207
X4.301Y-3.807
X4.401Y-3.207
X4.401Y-3.807
T0
M30
