%TF.GenerationSoftware,KiCad,Pcbnew,6.0.2*%
%TF.CreationDate,2022-04-10T12:21:24-06:00*%
%TF.ProjectId,FPGA_1,46504741-5f31-42e6-9b69-6361645f7063,rev?*%
%TF.SameCoordinates,Original*%
%TF.FileFunction,Soldermask,Top*%
%TF.FilePolarity,Negative*%
%FSLAX46Y46*%
G04 Gerber Fmt 4.6, Leading zero omitted, Abs format (unit mm)*
G04 Created by KiCad (PCBNEW 6.0.2) date 2022-04-10 12:21:24*
%MOMM*%
%LPD*%
G01*
G04 APERTURE LIST*
G04 Aperture macros list*
%AMRoundRect*
0 Rectangle with rounded corners*
0 $1 Rounding radius*
0 $2 $3 $4 $5 $6 $7 $8 $9 X,Y pos of 4 corners*
0 Add a 4 corners polygon primitive as box body*
4,1,4,$2,$3,$4,$5,$6,$7,$8,$9,$2,$3,0*
0 Add four circle primitives for the rounded corners*
1,1,$1+$1,$2,$3*
1,1,$1+$1,$4,$5*
1,1,$1+$1,$6,$7*
1,1,$1+$1,$8,$9*
0 Add four rect primitives between the rounded corners*
20,1,$1+$1,$2,$3,$4,$5,0*
20,1,$1+$1,$4,$5,$6,$7,0*
20,1,$1+$1,$6,$7,$8,$9,0*
20,1,$1+$1,$8,$9,$2,$3,0*%
%AMOutline5P*
0 Free polygon, 5 corners , with rotation*
0 The origin of the aperture is its center*
0 number of corners: always 5*
0 $1 to $10 corner X, Y*
0 $11 Rotation angle, in degrees counterclockwise*
0 create outline with 5 corners*
4,1,5,$1,$2,$3,$4,$5,$6,$7,$8,$9,$10,$1,$2,$11*%
%AMOutline6P*
0 Free polygon, 6 corners , with rotation*
0 The origin of the aperture is its center*
0 number of corners: always 6*
0 $1 to $12 corner X, Y*
0 $13 Rotation angle, in degrees counterclockwise*
0 create outline with 6 corners*
4,1,6,$1,$2,$3,$4,$5,$6,$7,$8,$9,$10,$11,$12,$1,$2,$13*%
%AMOutline7P*
0 Free polygon, 7 corners , with rotation*
0 The origin of the aperture is its center*
0 number of corners: always 7*
0 $1 to $14 corner X, Y*
0 $15 Rotation angle, in degrees counterclockwise*
0 create outline with 7 corners*
4,1,7,$1,$2,$3,$4,$5,$6,$7,$8,$9,$10,$11,$12,$13,$14,$1,$2,$15*%
%AMOutline8P*
0 Free polygon, 8 corners , with rotation*
0 The origin of the aperture is its center*
0 number of corners: always 8*
0 $1 to $16 corner X, Y*
0 $17 Rotation angle, in degrees counterclockwise*
0 create outline with 8 corners*
4,1,8,$1,$2,$3,$4,$5,$6,$7,$8,$9,$10,$11,$12,$13,$14,$15,$16,$1,$2,$17*%
G04 Aperture macros list end*
%ADD10RoundRect,0.160000X0.197500X0.160000X-0.197500X0.160000X-0.197500X-0.160000X0.197500X-0.160000X0*%
%ADD11RoundRect,0.218750X-0.218750X-0.256250X0.218750X-0.256250X0.218750X0.256250X-0.218750X0.256250X0*%
%ADD12RoundRect,0.218750X-0.256250X0.218750X-0.256250X-0.218750X0.256250X-0.218750X0.256250X0.218750X0*%
%ADD13RoundRect,0.062500X-0.062500X0.375000X-0.062500X-0.375000X0.062500X-0.375000X0.062500X0.375000X0*%
%ADD14RoundRect,0.062500X-0.375000X0.062500X-0.375000X-0.062500X0.375000X-0.062500X0.375000X0.062500X0*%
%ADD15R,5.600000X5.600000*%
%ADD16Outline8P,-0.600000X0.760000X-0.360000X1.000000X0.360000X1.000000X0.600000X0.760000X0.600000X-0.760000X0.360000X-1.000000X-0.360000X-1.000000X-0.600000X-0.760000X180.000000*%
%ADD17O,1.200000X2.000000*%
%ADD18RoundRect,0.155000X-0.212500X-0.155000X0.212500X-0.155000X0.212500X0.155000X-0.212500X0.155000X0*%
G04 APERTURE END LIST*
D10*
%TO.C,R5*%
X107810900Y-93548200D03*
X106615900Y-93548200D03*
%TD*%
D11*
%TO.C,D2*%
X111328100Y-91490800D03*
X112903100Y-91490800D03*
%TD*%
D12*
%TO.C,D1*%
X65709800Y-86969500D03*
X65709800Y-88544500D03*
%TD*%
D10*
%TO.C,R6*%
X107836300Y-92532200D03*
X106641300Y-92532200D03*
%TD*%
D13*
%TO.C,U1*%
X89110000Y-85462500D03*
X88610000Y-85462500D03*
X88110000Y-85462500D03*
X87610000Y-85462500D03*
X87110000Y-85462500D03*
X86610000Y-85462500D03*
X86110000Y-85462500D03*
X85610000Y-85462500D03*
X85110000Y-85462500D03*
X84610000Y-85462500D03*
X84110000Y-85462500D03*
X83610000Y-85462500D03*
D14*
X82922500Y-86150000D03*
X82922500Y-86650000D03*
X82922500Y-87150000D03*
X82922500Y-87650000D03*
X82922500Y-88150000D03*
X82922500Y-88650000D03*
X82922500Y-89150000D03*
X82922500Y-89650000D03*
X82922500Y-90150000D03*
X82922500Y-90650000D03*
X82922500Y-91150000D03*
X82922500Y-91650000D03*
D13*
X83610000Y-92337500D03*
X84110000Y-92337500D03*
X84610000Y-92337500D03*
X85110000Y-92337500D03*
X85610000Y-92337500D03*
X86110000Y-92337500D03*
X86610000Y-92337500D03*
X87110000Y-92337500D03*
X87610000Y-92337500D03*
X88110000Y-92337500D03*
X88610000Y-92337500D03*
X89110000Y-92337500D03*
D14*
X89797500Y-91650000D03*
X89797500Y-91150000D03*
X89797500Y-90650000D03*
X89797500Y-90150000D03*
X89797500Y-89650000D03*
X89797500Y-89150000D03*
X89797500Y-88650000D03*
X89797500Y-88150000D03*
X89797500Y-87650000D03*
X89797500Y-87150000D03*
X89797500Y-86650000D03*
X89797500Y-86150000D03*
D15*
X86360000Y-88900000D03*
%TD*%
D16*
%TO.C,J1*%
X111785400Y-81457800D03*
D17*
X109245400Y-81457800D03*
X106705400Y-81457800D03*
X104165400Y-81457800D03*
X101625400Y-81457800D03*
X99085400Y-81457800D03*
X96545400Y-81457800D03*
X94005400Y-81457800D03*
X91465400Y-81457800D03*
X88925400Y-81457800D03*
X86385400Y-81457800D03*
X83845400Y-81457800D03*
X81305400Y-81457800D03*
X78765400Y-81457800D03*
X76225400Y-81457800D03*
X73685400Y-81457800D03*
X71145400Y-81457800D03*
X68605400Y-81457800D03*
X66065400Y-81457800D03*
X63525400Y-81457800D03*
X63525400Y-96697800D03*
X66065400Y-96697800D03*
X68605400Y-96697800D03*
X71145400Y-96697800D03*
X73685400Y-96697800D03*
X76225400Y-96697800D03*
X78765400Y-96697800D03*
X81305400Y-96697800D03*
X83845400Y-96697800D03*
X86385400Y-96697800D03*
X88925400Y-96697800D03*
X91465400Y-96697800D03*
X94005400Y-96697800D03*
X96545400Y-96697800D03*
X99085400Y-96697800D03*
X101625400Y-96697800D03*
X104165400Y-96697800D03*
X106705400Y-96697800D03*
X109245400Y-96697800D03*
X111785400Y-96697800D03*
%TD*%
D10*
%TO.C,R2*%
X68161500Y-86944200D03*
X66966500Y-86944200D03*
%TD*%
%TO.C,R1*%
X68186900Y-88519000D03*
X66991900Y-88519000D03*
%TD*%
%TO.C,R4*%
X107861700Y-91516200D03*
X106666700Y-91516200D03*
%TD*%
D18*
%TO.C,C9*%
X110557500Y-86995000D03*
X111692500Y-86995000D03*
%TD*%
D11*
%TO.C,D3*%
X111328100Y-94640400D03*
X112903100Y-94640400D03*
%TD*%
%TO.C,D4*%
X111328100Y-93040200D03*
X112903100Y-93040200D03*
%TD*%
M02*
