%TF.GenerationSoftware,KiCad,Pcbnew,6.0.2*%
%TF.CreationDate,2022-04-10T12:21:24-06:00*%
%TF.ProjectId,FPGA_1,46504741-5f31-42e6-9b69-6361645f7063,rev?*%
%TF.SameCoordinates,Original*%
%TF.FileFunction,Legend,Top*%
%TF.FilePolarity,Positive*%
%FSLAX46Y46*%
G04 Gerber Fmt 4.6, Leading zero omitted, Abs format (unit mm)*
G04 Created by KiCad (PCBNEW 6.0.2) date 2022-04-10 12:21:24*
%MOMM*%
%LPD*%
G01*
G04 APERTURE LIST*
%ADD10C,0.150000*%
%ADD11C,0.120000*%
G04 APERTURE END LIST*
D10*
%TO.C,R5*%
X107199133Y-95245180D02*
X106865800Y-94768990D01*
X106627704Y-95245180D02*
X106627704Y-94245180D01*
X107008657Y-94245180D01*
X107103895Y-94292800D01*
X107151514Y-94340419D01*
X107199133Y-94435657D01*
X107199133Y-94578514D01*
X107151514Y-94673752D01*
X107103895Y-94721371D01*
X107008657Y-94768990D01*
X106627704Y-94768990D01*
X108103895Y-94245180D02*
X107627704Y-94245180D01*
X107580085Y-94721371D01*
X107627704Y-94673752D01*
X107722942Y-94626133D01*
X107961038Y-94626133D01*
X108056276Y-94673752D01*
X108103895Y-94721371D01*
X108151514Y-94816609D01*
X108151514Y-95054704D01*
X108103895Y-95149942D01*
X108056276Y-95197561D01*
X107961038Y-95245180D01*
X107722942Y-95245180D01*
X107627704Y-95197561D01*
X107580085Y-95149942D01*
%TO.C,D2*%
X108735904Y-91917780D02*
X108735904Y-90917780D01*
X108974000Y-90917780D01*
X109116857Y-90965400D01*
X109212095Y-91060638D01*
X109259714Y-91155876D01*
X109307333Y-91346352D01*
X109307333Y-91489209D01*
X109259714Y-91679685D01*
X109212095Y-91774923D01*
X109116857Y-91870161D01*
X108974000Y-91917780D01*
X108735904Y-91917780D01*
X109688285Y-91013019D02*
X109735904Y-90965400D01*
X109831142Y-90917780D01*
X110069238Y-90917780D01*
X110164476Y-90965400D01*
X110212095Y-91013019D01*
X110259714Y-91108257D01*
X110259714Y-91203495D01*
X110212095Y-91346352D01*
X109640666Y-91917780D01*
X110259714Y-91917780D01*
%TO.C,D1*%
X66111380Y-90857295D02*
X65111380Y-90857295D01*
X65111380Y-90619200D01*
X65159000Y-90476342D01*
X65254238Y-90381104D01*
X65349476Y-90333485D01*
X65539952Y-90285866D01*
X65682809Y-90285866D01*
X65873285Y-90333485D01*
X65968523Y-90381104D01*
X66063761Y-90476342D01*
X66111380Y-90619200D01*
X66111380Y-90857295D01*
X66111380Y-89333485D02*
X66111380Y-89904914D01*
X66111380Y-89619200D02*
X65111380Y-89619200D01*
X65254238Y-89714438D01*
X65349476Y-89809676D01*
X65397095Y-89904914D01*
%TO.C,R6*%
X105014733Y-92959180D02*
X104681400Y-92482990D01*
X104443304Y-92959180D02*
X104443304Y-91959180D01*
X104824257Y-91959180D01*
X104919495Y-92006800D01*
X104967114Y-92054419D01*
X105014733Y-92149657D01*
X105014733Y-92292514D01*
X104967114Y-92387752D01*
X104919495Y-92435371D01*
X104824257Y-92482990D01*
X104443304Y-92482990D01*
X105871876Y-91959180D02*
X105681400Y-91959180D01*
X105586161Y-92006800D01*
X105538542Y-92054419D01*
X105443304Y-92197276D01*
X105395685Y-92387752D01*
X105395685Y-92768704D01*
X105443304Y-92863942D01*
X105490923Y-92911561D01*
X105586161Y-92959180D01*
X105776638Y-92959180D01*
X105871876Y-92911561D01*
X105919495Y-92863942D01*
X105967114Y-92768704D01*
X105967114Y-92530609D01*
X105919495Y-92435371D01*
X105871876Y-92387752D01*
X105776638Y-92340133D01*
X105586161Y-92340133D01*
X105490923Y-92387752D01*
X105443304Y-92435371D01*
X105395685Y-92530609D01*
%TO.C,U1*%
X90632380Y-89661904D02*
X91441904Y-89661904D01*
X91537142Y-89614285D01*
X91584761Y-89566666D01*
X91632380Y-89471428D01*
X91632380Y-89280952D01*
X91584761Y-89185714D01*
X91537142Y-89138095D01*
X91441904Y-89090476D01*
X90632380Y-89090476D01*
X91632380Y-88090476D02*
X91632380Y-88661904D01*
X91632380Y-88376190D02*
X90632380Y-88376190D01*
X90775238Y-88471428D01*
X90870476Y-88566666D01*
X90918095Y-88661904D01*
%TO.C,R2*%
X67524333Y-86050380D02*
X67191000Y-85574190D01*
X66952904Y-86050380D02*
X66952904Y-85050380D01*
X67333857Y-85050380D01*
X67429095Y-85098000D01*
X67476714Y-85145619D01*
X67524333Y-85240857D01*
X67524333Y-85383714D01*
X67476714Y-85478952D01*
X67429095Y-85526571D01*
X67333857Y-85574190D01*
X66952904Y-85574190D01*
X67905285Y-85145619D02*
X67952904Y-85098000D01*
X68048142Y-85050380D01*
X68286238Y-85050380D01*
X68381476Y-85098000D01*
X68429095Y-85145619D01*
X68476714Y-85240857D01*
X68476714Y-85336095D01*
X68429095Y-85478952D01*
X67857666Y-86050380D01*
X68476714Y-86050380D01*
%TO.C,R1*%
X67549733Y-90241380D02*
X67216400Y-89765190D01*
X66978304Y-90241380D02*
X66978304Y-89241380D01*
X67359257Y-89241380D01*
X67454495Y-89289000D01*
X67502114Y-89336619D01*
X67549733Y-89431857D01*
X67549733Y-89574714D01*
X67502114Y-89669952D01*
X67454495Y-89717571D01*
X67359257Y-89765190D01*
X66978304Y-89765190D01*
X68502114Y-90241380D02*
X67930685Y-90241380D01*
X68216400Y-90241380D02*
X68216400Y-89241380D01*
X68121161Y-89384238D01*
X68025923Y-89479476D01*
X67930685Y-89527095D01*
%TO.C,R4*%
X104989333Y-91638380D02*
X104656000Y-91162190D01*
X104417904Y-91638380D02*
X104417904Y-90638380D01*
X104798857Y-90638380D01*
X104894095Y-90686000D01*
X104941714Y-90733619D01*
X104989333Y-90828857D01*
X104989333Y-90971714D01*
X104941714Y-91066952D01*
X104894095Y-91114571D01*
X104798857Y-91162190D01*
X104417904Y-91162190D01*
X105846476Y-90971714D02*
X105846476Y-91638380D01*
X105608380Y-90590761D02*
X105370285Y-91305047D01*
X105989333Y-91305047D01*
%TO.C,C9*%
X110958333Y-86192142D02*
X110910714Y-86239761D01*
X110767857Y-86287380D01*
X110672619Y-86287380D01*
X110529761Y-86239761D01*
X110434523Y-86144523D01*
X110386904Y-86049285D01*
X110339285Y-85858809D01*
X110339285Y-85715952D01*
X110386904Y-85525476D01*
X110434523Y-85430238D01*
X110529761Y-85335000D01*
X110672619Y-85287380D01*
X110767857Y-85287380D01*
X110910714Y-85335000D01*
X110958333Y-85382619D01*
X111434523Y-86287380D02*
X111625000Y-86287380D01*
X111720238Y-86239761D01*
X111767857Y-86192142D01*
X111863095Y-86049285D01*
X111910714Y-85858809D01*
X111910714Y-85477857D01*
X111863095Y-85382619D01*
X111815476Y-85335000D01*
X111720238Y-85287380D01*
X111529761Y-85287380D01*
X111434523Y-85335000D01*
X111386904Y-85382619D01*
X111339285Y-85477857D01*
X111339285Y-85715952D01*
X111386904Y-85811190D01*
X111434523Y-85858809D01*
X111529761Y-85906428D01*
X111720238Y-85906428D01*
X111815476Y-85858809D01*
X111863095Y-85811190D01*
X111910714Y-85715952D01*
%TO.C,D3*%
X108735904Y-95118180D02*
X108735904Y-94118180D01*
X108974000Y-94118180D01*
X109116857Y-94165800D01*
X109212095Y-94261038D01*
X109259714Y-94356276D01*
X109307333Y-94546752D01*
X109307333Y-94689609D01*
X109259714Y-94880085D01*
X109212095Y-94975323D01*
X109116857Y-95070561D01*
X108974000Y-95118180D01*
X108735904Y-95118180D01*
X109640666Y-94118180D02*
X110259714Y-94118180D01*
X109926380Y-94499133D01*
X110069238Y-94499133D01*
X110164476Y-94546752D01*
X110212095Y-94594371D01*
X110259714Y-94689609D01*
X110259714Y-94927704D01*
X110212095Y-95022942D01*
X110164476Y-95070561D01*
X110069238Y-95118180D01*
X109783523Y-95118180D01*
X109688285Y-95070561D01*
X109640666Y-95022942D01*
%TO.C,D4*%
X108786704Y-93492580D02*
X108786704Y-92492580D01*
X109024800Y-92492580D01*
X109167657Y-92540200D01*
X109262895Y-92635438D01*
X109310514Y-92730676D01*
X109358133Y-92921152D01*
X109358133Y-93064009D01*
X109310514Y-93254485D01*
X109262895Y-93349723D01*
X109167657Y-93444961D01*
X109024800Y-93492580D01*
X108786704Y-93492580D01*
X110215276Y-92825914D02*
X110215276Y-93492580D01*
X109977180Y-92444961D02*
X109739085Y-93159247D01*
X110358133Y-93159247D01*
D11*
%TO.C,R5*%
X107381021Y-93928200D02*
X107045779Y-93928200D01*
X107381021Y-93168200D02*
X107045779Y-93168200D01*
%TO.C,D2*%
X110630600Y-90755800D02*
X110630600Y-92225800D01*
X112915600Y-90755800D02*
X110630600Y-90755800D01*
X110630600Y-92225800D02*
X112915600Y-92225800D01*
%TO.C,D1*%
X64974800Y-86272000D02*
X64974800Y-88557000D01*
X66444800Y-86272000D02*
X64974800Y-86272000D01*
X66444800Y-88557000D02*
X66444800Y-86272000D01*
%TO.C,R6*%
X107406421Y-92152200D02*
X107071179Y-92152200D01*
X107406421Y-92912200D02*
X107071179Y-92912200D01*
%TO.C,U1*%
X82750000Y-85290000D02*
X83225000Y-85290000D01*
X89970000Y-92510000D02*
X89495000Y-92510000D01*
X89970000Y-85765000D02*
X89970000Y-85290000D01*
X82750000Y-85765000D02*
X82750000Y-85290000D01*
X82750000Y-92035000D02*
X82750000Y-92510000D01*
X82750000Y-92510000D02*
X83225000Y-92510000D01*
X89970000Y-92035000D02*
X89970000Y-92510000D01*
%TO.C,R2*%
X67731621Y-87324200D02*
X67396379Y-87324200D01*
X67731621Y-86564200D02*
X67396379Y-86564200D01*
%TO.C,R1*%
X67757021Y-88139000D02*
X67421779Y-88139000D01*
X67757021Y-88899000D02*
X67421779Y-88899000D01*
%TO.C,R4*%
X107431821Y-91136200D02*
X107096579Y-91136200D01*
X107431821Y-91896200D02*
X107096579Y-91896200D01*
%TO.C,C9*%
X111009165Y-86635000D02*
X111240835Y-86635000D01*
X111009165Y-87355000D02*
X111240835Y-87355000D01*
%TO.C,D3*%
X110630600Y-95375400D02*
X112915600Y-95375400D01*
X110630600Y-93905400D02*
X110630600Y-95375400D01*
X112915600Y-93905400D02*
X110630600Y-93905400D01*
%TO.C,D4*%
X110630600Y-92305200D02*
X110630600Y-93775200D01*
X110630600Y-93775200D02*
X112915600Y-93775200D01*
X112915600Y-92305200D02*
X110630600Y-92305200D01*
%TD*%
M02*
